/* XPM */
static char *result[] = {
/* columns rows colors chars-per-pixel */
"80 80 25 1 ",
"  c #C79758",
". c #CC9F60",
"X c #CFA466",
"o c #C59258",
"O c #C48F57",
"+ c #C28957",
"@ c #CA9C5E",
"# c #CA9C5D",
"$ c #C99A5B",
"% c #C69458",
"& c #C9985D",
"* c #CA9960",
"= c #C59158",
"- c #C7945D",
"; c #C7955B",
": c #C7965A",
"> c #C6945A",
", c #C8985B",
"< c #CB9D5F",
"1 c #C69558",
"2 c #C8995A",
"3 c #CB9D60",
"4 c #CEA264",
"5 c #C8975D",
"6 c #CB9E5F",
/* pixels */
"                      .XX                                                  XXXXX",
"                      .XX                                                  XXXXX",
"                      .XX                                          oOO     XXXXX",
"                      .XX                                          O++     XXXXX",
"                      .XX                                          O++     XXXXX",
"                                                         O++XX@                 ",
"                                                         O++XX@                 ",
"       #....$            OO%                             &**XX@              #..",
"       .XXXX@            ++=                             .XXXX@              .XX",
"       .XXXX@            ++=                             .XXXX@              .XX",
"       .XXXX-++                      .XXXX@              .XXXX@                 ",
"       .XXXX-++                      .XXXX@              .XXXX@                 ",
"       ;--@@:==                      .XXXX@              $@@@@>OO     ..$       ",
"       O++                           .XXXX@                   O++     XX@       ",
"       O++                           .XXXX@                   O++     XX@       ",
"       .XX                              ++*XXXX-++                    XX@       ",
"       .XX                              ++*XXXX-++                    XX@       ",
"       $@@       #..OO%                 ==,@@@@:==            #..     --:       ",
"                 .XX++=                                       .XX     ++=       ",
"                 .XX++=                                       .XX     ++=       ",
"                 .XXXX@         .XXXX@                   O++  .XX               ",
"                 .XXXX@         .XXXX@                   O++  .XX               ",
"                 .XXXX@         .XXXX@         #....$    &**..<@@               ",
"                 .XXXX@         .XXXX@         .XXXX@    .XXXX@                 ",
"                 .XXXX@         .XXXX@         .XXXX@    .XXXX@                 ",
"               ++=            XX@              .XXXX@    .XXXX@         .XX     ",
"               ++=            XX@              .XXXX@    .XXXX@         .XX     ",
"               ==1            @@2    #..       $@@@@2    $@@@@2         $@@     ",
"                                     .XX                                        ",
"                                     .XX                                        ",
"       .XX          XX@              .XX++=       XX@                           ",
"       .XX          XX@              .XX++=       XX@                           ",
"       .XX          @@2              $@@**3..     @@2                 ..$       ",
"       .XX                              XXXXX                         XX@       ",
"       .XX                              XXXXX                         XX@       ",
"          ++=            XX@            XXXXX++=            ++=    O++          ",
"          ++=            XX@            XXXXX++=            ++=    O++          ",
"          ==1            XX@            @@@@@==1         #..==1    &**..$       ",
"                         XX@                             .XX       .XXXX@       ",
"                         XX@                             .XX       .XXXX@       ",
"XX@                 XXXXX                                .XX       .XXXX@       ",
"XX@                 XXXXX                                .XX       .XXXX@       ",
"XX@       ..$    oOOXXXXX          OO%                   $@@     ..4XX@@2       ",
"XX@       XX@    O++XXXXX          ++=                           XXXXX          ",
"XX@       XX@    O++XXXXX          ++=                           XXXXX          ",
"       .XXXX@    .XX                      .XX          XX@                      ",
"       .XXXX@    .XX                      .XX          XX@                      ",
"       .XXXX@    $@@                      .XX     ..;OOXX@                      ",
"       .XXXX@                             .XX     XX-++XX@                      ",
"       .XXXX@                             .XX     XX-++XX@                      ",
"     ++=                        .XXXX@            XXXXX     ++=    .XXXX@       ",
"     ++=                        .XXXX@            XXXXX     ++=    .XXXX@       ",
"     ==1                 ..$    .XXXX@         oOOXXXXX     ==1    .XXXX5OO     ",
"                         XX@    .XXXX@         O++XXXXX            .XXXX-++     ",
"                         XX@    .XXXX@         O++XXXXX            .XXXX-++     ",
"          XX@                                                                   ",
"          XX@                                                                   ",
"..$       XX5OO                                                                 ",
"XX@       XX-++                                                                 ",
"XX@       XX-++                                                                 ",
"                 .XX                 O++                                        ",
"                 .XX                 O++                                        ",
".....            $@@  oOO            %==            oOO       #..OO%    oOO     ",
"XXXXX                 O++                           O++       .XX++=    O++     ",
"XXXXX                 O++                           O++       .XX++=    O++     ",
"XXXXX            .XXXX@                   O++XX@                 XXXXX       .XX",
"XXXXX            .XXXX@                   O++XX@                 XXXXX       .XX",
"@@@@@            .XXXX@       ..$         %==XX@                 XXXXX       .XX",
"                 .XXXX@       XX@            XX@                 XXXXX       .XX",
"                 .XXXX@       XX@            XX@                 XXXXX       .XX",
"            O++               ++*XX                                O++          ",
"            O++               ++*XX                                O++          ",
"            &**               ==3XX                    ..$         %==          ",
"            .XX                 .XX                    XX@                      ",
"            .XX                 .XX                    XX@                      ",
"                                                       XX@                      ",
"                                                       XX@                      ",
"                                                       @@6..                    ",
"                                                         .XX                    ",
"                                                         .XX                    "
};
