/* XPM */
static char *result[] = {
/* columns rows colors chars-per-pixel */
"72 100 56 1 ",
"  c #1F333C",
". c #20353F",
"X c #233A46",
"o c #243D49",
"O c #2D4048",
"+ c #284858",
"@ c #2B4959",
"# c #2F5062",
"$ c #305F76",
"% c #485960",
"& c #495960",
"* c #495961",
"= c #56666C",
"- c #56666D",
"; c #346A85",
": c #346B86",
"> c #3B6F88",
", c #3B6F89",
"< c #337D9E",
"1 c #337D9F",
"2 c #3B7B99",
"3 c #3B7C99",
"4 c #3B7C9A",
"5 c #48788F",
"6 c #4F7D92",
"7 c #727F85",
"8 c #348BB2",
"9 c #348CB3",
"0 c #7F8C91",
"q c #4899BC",
"w c #489DC1",
"e c #489EC1",
"r c #4FAED5",
"t c #4FAFD5",
"y c #71B5CE",
"u c #63BCDE",
"i c #71C1DF",
"p c #71C2DF",
"a c #808C91",
"s c #9BA5A9",
"d c #9CA5A9",
"f c #A9B2B5",
"g c #85C3D7",
"h c #85D3EE",
"j c #85D4EE",
"k c #8CD8F1",
"l c #99E1F7",
"z c #A0E6FA",
"x c #C5CBCD",
"c c #C5CBCE",
"v c #D2D8D9",
"b c #D2D8DA",
"n c #D3D8DA",
"m c #EEF1F2",
"M c #FCFEFE",
"N c None",
/* pixels */
"NNNNNNNNNNNNNNNNNNNNNNNNNNNNNNNNNNNNNNNNNNNNNNNNNNNNNNNNNNNNNNNNNNNNNNNN",
"NNNNNNNNNNNNNNNNNNNNNNNNNNNNNNNNNNNNNNNNNNNNNNNNNNNNNNNNNNNNNNNNNNNNNNNN",
"NNNNNNNNNNNNNNNNNNNNNNNNNNNNNNNNNNNNNNNNNNNNNNNNNNNNNNNNNNNNNNNNNNNNNNNN",
"NNNNNNNNNNNNNNNNNNNNNNNNNNNNNNNNNNNNNNNNNNNNNNNNNNNNNNNNNNNNNNNNNNNNNNNN",
"NNNNNNNNNNNNNNNNNNNNNNNNNNNNNNNNNNNNNNNNNNNNNNNNNNNNNNNNNNNNNNNNNNNNNNNN",
"NNNNNNNNNNNNNNNNNNNNNNNNNNNNNNNNNNNNNNNNNNNNNNNNNNNNNNNNNNNNNNNNNNNNNNNN",
"NNNNNNNNNNNNNNNNNNNNNNNNNN                    NNNNNNNNNNNNNNNNNNNNNNNNNN",
"NNNNNNNNNNNNNNNNNNNNNNNNNN                    NNNNNNNNNNNNNNNNNNNNNNNNNN",
"NNNNNNNNNNNNNNNNNNNNNN                            NNNNNNNNNNNNNNNNNNNNNN",
"NNNNNNNNNNNNNNNNNNNNNN   O%------------------%O   NNNNNNNNNNNNNNNNNNNNNN",
"NNNNNNNNNNNNNNNNNN       &sccccccccccccccccccs%       NNNNNNNNNNNNNNNNNN",
"NNNNNNNNNNNNNNNNNN   O%--anMMMMMMMMMMMMMMMMMMba--%O   NNNNNNNNNNNNNNNNNN",
"NNNNNNNNNNNNNNNN     %sccnmMMMMMMMMMMMMMMMMMMmnccs%     NNNNNNNNNNNNNNNN",
"NNNNNNNNNNNNNNNN O%--anMMMMMMMMMMMMMMMMMMMMMMMMMMba--%O NNNNNNNNNNNNNNNN",
"NNNNNNNNNNNNNN   %sccnmMMMMMMMMMMMMMMMMMMMMMMMMMMmnccs%   NNNNNNNNNNNNNN",
"NNNNNNNNNNNNNN O%anMMMMMMMMmnxxxxxxxxxxxxxxnmMMMMMMMMba%O NNNNNNNNNNNNNN",
"NNNNNNNNNNNN   %snmMMMMMMMMba==============anMMMMMMMMmns%   NNNNNNNNNNNN",
"NNNNNNNNNNNN O%anMMMMmnxxxxs%              &sxxxxnmMMMMba%O NNNNNNNNNNNN",
"NNNNNNNNNN   %snmMMMMna====%O              O%====anMMMMmns%   NNNNNNNNNN",
"NNNNNNNNNN   -cMMMMmns%                          &snmMMMMx=   NNNNNNNNNN",
"NNNNNNNNNN   -cMMMMna%O                          O%anMMMMx=   NNNNNNNNNN",
"NNNNNNNNNN O%anMMmns%                              &snmMMba%O NNNNNNNNNN",
"NNNNNNNN   %snmMMna%O                              O%anMMmns%   NNNNNNNN",
"NNNNNNNN   -cMMMMx=                                  -cMMMMx=   NNNNNNNN",
"NNNNNNNN   -cMMMMx=                                  -cMMMMx=   NNNNNNNN",
"NNNNNNNN O%anMMmns%  .XooooX.              .XooooX.  &snmMMba%O NNNNNNNN",
"NNNNNN   %snmMMna%O  X@####@X              X@####@X  O%anMMmns%   NNNNNN",
"NNNNNN   -cMMMMx=  .X+$::::$+X.          .X+$::::$+X.  -cMMMMx=   NNNNNN",
"NNNNNN   -cMMMMx=  X@$<9999<$@X          X@$19999<$@X  -cMMMMx=   NNNNNN",
"NNNNNN   -cMMmns%.X+$3ettttw2$+X.      .X+$4ettttw2$+X.&snmMMx=   NNNNNN",
"NNNNNN   -cMMna%OX@$<epjjjjiw<$@X      X@$1epjjjjiw<$@XO%anMMx=   NNNNNN",
"NNNNNN   -cMMx=.X+$3eukzzzzkuw2$+X.  .X+$4eukzzzzkuw2$+X.-cMMx=   NNNNNN",
"NNNNNN   -cMMx=X@$<epklzzzzlkiw<$@X  X@$1epklzzzzlkiw<$@X-cMMx=   NNNNNN",
"NNNNNN   -cMMx=o#,qukzzzzzzzzkuq,#o  o#,qukzzzzzzzzkuq>#o-cMMx=   NNNNNN",
"NNNNNN   -cMMx=o#5yklzzzzzzzzlky5#o  o#5yklzzzzzzzzlky5#o-cMMx=   NNNNNN",
"NNNNNN   -cMMx=o#6gzzzzzzzzzzzzg6#o  o#6gzzzzzzzzzzzzg6#o-cMMx=   NNNNNN",
"NNNNNN   -cMMx=o#6gzzzzzzzzzzzzg6#o  o#6gzzzzzzzzzzzzg6#o-cMMx=   NNNNNN",
"NNNNNN   -cMMx=o#6gzzzzzzzzzzzzg6#o  o#6gzzzzzzzzzzzzg6#o-cMMx=   NNNNNN",
"NNNNNN   -cMMx=o#6gzzzzzzzzzzzzg6#o  o#6gzzzzzzzzzzzzg6#o-cMMx=   NNNNNN",
"NNNNNN   -cMMx=o#5yklzzzzzzzzlky5#o  o#5yklzzzzzzzzlky5#o-cMMx=   NNNNNN",
"NNNNNN   -cMMx=o#,qukzzzzzzzzkuq,#o  o#,qukzzzzzzzzkuq>#o-cMMx=   NNNNNN",
"NNNNNN   -cMMx=X@$<wiklzzzzlkiw<$@X  X@$<epklzzzzlkiw<$@X-cMMx=   NNNNNN",
"NNNNNN   -cMMx=.X+$2wukzzzzkuw2$+X.  .X+$3eukzzzzkuw2$+X.-cMMx=   NNNNNN",
"NNNNNN   %sbmna%OX@$<wihhhhiw<$@X      X@$<ephhhhiw<$@XO&anmbs%   NNNNNN",
"NNNNNNNN O%anmns%.X+$2wrrrrw2$+X.      .X+$3errrrw2$+X.*dnmv0%O NNNNNNNN",
"NNNNNNNN   -cMMx=  X@$<8888<$@X          X@$<8888<$@X  -cMMx=   NNNNNNNN",
"NNNNNNNN   -cMMx=  .X+$;;;;$+X.          .X+$;;;;$+X.  -cMMx=   NNNNNNNN",
"NNNNNNNN   %sbmna&O  X@####@X              X@####@X  O&anmbs%   NNNNNNNN",
"NNNNNNNNNN O%anmns%  .XooooX.              .XooooX.  *dnmv0%O NNNNNNNNNN",
"NNNNNNNNNN   %sbmna&O                              O&anmbs%   NNNNNNNNNN",
"NNNNNNNNNN   O%anmns%                              *dnmv0%O   NNNNNNNNNN",
"NNNNNNNNNN     %sbmna--&O                      O&--anmbs%     NNNNNNNNNN",
"NNNNNNNNNNNN   O%anmnccs%                      &dccnmv0%O   NNNNNNNNNNNN",
"NNNNNNNNNNNN     %sxxxxf7----------------------7fxxxxs%     NNNNNNNNNNNN",
"NNNNNNNNNNNNNN   O%====7fccccccccccccccccccccccf7====%O   NNNNNNNNNNNNNN",
"NNNNNNNNNNNNNN         %sxxxxxxxxxxxxxxxxxxxxxxs%         NNNNNNNNNNNNNN",
"NNNNNNNNNNNNNN         O%======================%O         NNNNNNNNNNNNNN",
"NNNNNNNNNNNNNN                                            NNNNNNNNNNNNNN",
"NNNNNNNNNNNN                                                NNNNNNNNNNNN",
"NNNNNNNNNNNN   O&&O  O&&O                      O&%O  O&%O   NNNNNNNNNNNN",
"NNNNNNNNNNNN   &ss%  &ss%                      *ds%  *ds%   NNNNNNNNNNNN",
"NNNNNNNNNNNN O&anx=  -cna----------------------anx=  -cba%O NNNNNNNNNNNN",
"NNNNNNNNNN   &snmx=  -cmnccccccccccccccccccccccnmx=  -cmns%   NNNNNNNNNN",
"NNNNNNNNNN   -cMMx=  -cMMMMMMMMMMMMMMMMMMMMMMMMMMx=  -cMMx=   NNNNNNNNNN",
"NNNNNNNNNN   -cMMx=  -cMMMMMMMMMMMMMMMMMMMMMMMMMMx=  -cMMx=   NNNNNNNNNN",
"NNNNNNNNNN   -cMMx=  -cMMMMMMMMMMMMMMMMMMMMMMMMMMx=  -cMMx=   NNNNNNNNNN",
"NNNNNNNNNN   -cMMx=  -cMMMMMMMMMMMMMMMMMMMMMMMMMMx=  -cMMx=   NNNNNNNNNN",
"NNNNNNNNNN   -cMMx=  -cMMMMMMMMMMMMMMMMMMMMMMMMMMx=  -cMMx=   NNNNNNNNNN",
"NNNNNNNNNN   -cMMx=  -cMMMMMMMMMMMMMMMMMMMMMMMMMMx=  -cMMx=   NNNNNNNNNN",
"NNNNNNNNNN   -cMMx=  -cMMMMMMMMMMMMMMMMMMMMMMMMMMx=  -cMMx=   NNNNNNNNNN",
"NNNNNNNNNN   -cMMx=  -cMMMMMMMMMMMMMMMMMMMMMMMMMMx=  -cMMx=   NNNNNNNNNN",
"NNNNNNNNNN   %sbmna&O%sbmMMMMMMMMMMMMMMMMMMMMMMmvs%O*anmvs%   NNNNNNNNNN",
"NNNNNNNNNNNN O%anmns%O%anMMMMMMMMMMMMMMMMMMMMMMv0%O*dnmv0%O NNNNNNNNNNNN",
"NNNNNNNNNNNN   %sxxs%  -cMMMMMMMMMMMMMMMMMMMMMMx=  &sxxs%   NNNNNNNNNNNN",
"NNNNNNNNNNNN   O%==%O  -cMMMMMMMMMMMMMMMMMMMMMMx=  O%==%O   NNNNNNNNNNNN",
"NNNNNNNNNNNN           -cMMMMMMMMMMMMMMMMMMMMMMx=           NNNNNNNNNNNN",
"NNNNNNNNNNNNNN         -cMMMMMMMMMMMMMMMMMMMMMMx=         NNNNNNNNNNNNNN",
"NNNNNNNNNNNNNN         %sbmMMMMMMMMMMMMMMMMMMmvs%         NNNNNNNNNNNNNN",
"NNNNNNNNNNNNNNNNNNNNNN O%anMMMMMMMMMMMMMMMMMMv0%O NNNNNNNNNNNNNNNNNNNNNN",
"NNNNNNNNNNNNNNNNNNNNNN   %sxxbmMMMMMMMMMMmvxxs%   NNNNNNNNNNNNNNNNNNNNNN",
"NNNNNNNNNNNNNNNNNNNNNN   O%==anMMMMMMMMMMb0==%O   NNNNNNNNNNNNNNNNNNNNNN",
"NNNNNNNNNNNNNNNNNNNNNN       %sxxxxxxxxxxs%       NNNNNNNNNNNNNNNNNNNNNN",
"NNNNNNNNNNNNNNNNNNNNNNNN     O%==========%O     NNNNNNNNNNNNNNNNNNNNNNNN",
"NNNNNNNNNNNNNNNNNNNNNNNN                        NNNNNNNNNNNNNNNNNNNNNNNN",
"NNNNNNNNNNNNNNNNNNNNNNNNNNNN                NNNNNNNNNNNNNNNNNNNNNNNNNNNN",
"NNNNNNNNNNNNNNNNNNNNNNNNNNNN                NNNNNNNNNNNNNNNNNNNNNNNNNNNN",
"NNNNNNNNNNNNNNNNNNNNNNNNNNNNNNNNNNNNNNNNNNNNNNNNNNNNNNNNNNNNNNNNNNNNNNNN",
"NNNNNNNNNNNNNNNNNNNNNNNNNNNNNNNNNNNNNNNNNNNNNNNNNNNNNNNNNNNNNNNNNNNNNNNN",
"NNNNNNNNNNNNNNNNNNNNNNNNNNNNNNNNNNNNNNNNNNNNNNNNNNNNNNNNNNNNNNNNNNNNNNNN",
"NNNNNNNNNNNNNNNNNNNNNNNNNNNNNNNNNNNNNNNNNNNNNNNNNNNNNNNNNNNNNNNNNNNNNNNN",
"NNNNNNNNNNNNNNNNNNNNNNNNNNNNNNNNNNNNNNNNNNNNNNNNNNNNNNNNNNNNNNNNNNNNNNNN",
"NNNNNNNNNNNNNNNNNNNNNNNNNNNNNNNNNNNNNNNNNNNNNNNNNNNNNNNNNNNNNNNNNNNNNNNN",
"NNNNNNNNNNNNNNNNNNNNNNNNNNNNNNNNNNNNNNNNNNNNNNNNNNNNNNNNNNNNNNNNNNNNNNNN",
"NNNNNNNNNNNNNNNNNNNNNNNNNNNNNNNNNNNNNNNNNNNNNNNNNNNNNNNNNNNNNNNNNNNNNNNN",
"NNNNNNNNNNNNNNNNNNNNNNNNNNNNNNNNNNNNNNNNNNNNNNNNNNNNNNNNNNNNNNNNNNNNNNNN",
"NNNNNNNNNNNNNNNNNNNNNNNNNNNNNNNNNNNNNNNNNNNNNNNNNNNNNNNNNNNNNNNNNNNNNNNN",
"NNNNNNNNNNNNNNNNNNNNNNNNNNNNNNNNNNNNNNNNNNNNNNNNNNNNNNNNNNNNNNNNNNNNNNNN",
"NNNNNNNNNNNNNNNNNNNNNNNNNNNNNNNNNNNNNNNNNNNNNNNNNNNNNNNNNNNNNNNNNNNNNNNN",
"NNNNNNNNNNNNNNNNNNNNNNNNNNNNNNNNNNNNNNNNNNNNNNNNNNNNNNNNNNNNNNNNNNNNNNNN",
"NNNNNNNNNNNNNNNNNNNNNNNNNNNNNNNNNNNNNNNNNNNNNNNNNNNNNNNNNNNNNNNNNNNNNNNN"
};
