/* XPM */
static char *result[] = {
/* columns rows colors chars-per-pixel */
"74 100 71 1 ",
"  c #1F333C",
". c #20353F",
"X c #233A46",
"o c #243D49",
"O c #2D3F48",
"+ c #2D4048",
"@ c #284858",
"# c #2B4959",
"$ c #2F5062",
"% c #305F76",
"& c #485860",
"* c #485960",
"= c #495960",
"- c #56656C",
"; c #56666C",
": c #56666D",
"> c #346A85",
", c #346B86",
"< c #3B6F89",
"1 c #337D9E",
"2 c #3B7B99",
"3 c #3B7C99",
"4 c #48788F",
"5 c #4F7D92",
"6 c #348BB2",
"7 c #348CB3",
"8 c #7F8A90",
"9 c #7F8B90",
"0 c #7F8B91",
"q c #7F8C91",
"w c #4899BC",
"e c #489DC1",
"r c #489EC1",
"t c #4FAED5",
"y c #4FAFD5",
"u c #71B5CE",
"i c #63BCDE",
"p c #71C1DF",
"a c #71C2DF",
"s c #808B91",
"d c #808C91",
"f c #9BA3A8",
"g c #9BA3A9",
"h c #9BA4A9",
"j c #9BA5A9",
"k c #85C3D7",
"l c #85D3EE",
"z c #85D4EE",
"x c #8CD8F1",
"c c #99E1F7",
"v c #A0E6FA",
"b c #C4C9CD",
"n c #C4CACD",
"m c #C4CBCD",
"M c #C5CBCD",
"N c #C5CBCE",
"B c #D2D5D9",
"V c #D2D6D9",
"C c #D2D7D9",
"Z c #D2D8D9",
"A c #D2D8DA",
"S c #D3D8DA",
"D c #EDEEF1",
"F c #EDEFF1",
"G c #EEF0F1",
"H c #EEF1F2",
"J c #FBFBFD",
"K c #FBFCFD",
"L c #FCFDFE",
"P c #FCFEFE",
"I c None",
/* pixels */
"IIIIIIIIIIIIIIIIIIIIIIIIIIIIIIIIIIIIIIIIIIIIIIIIIIIIIIIIIIIIIIIIIIIIIIIIII",
"IIIIIIIIIIIIIIIIIIIIIIIIIIIIIIIIIIIIIIIIIIIIIIIIIIIIIIIIIIIIIIIIIIIIIIIIII",
"IIIIIIIIIIIIIIIIIIIIIIIIIIIIIIIIIIIIIIIIIIIIIIIIIIIIIIIIIIIIIIIIIIIIIIIIII",
"IIIIIIIIIIIIIIIIIIIIIIIIIIIIIIIIIIIIIIIIIIIIIIIIIIIIIIIIIIIIIIIIIIIIIIIIII",
"IIIIIIIIIIIIIIIIIIIIIIIIIIIIIIIIIIIIIIIIIIIIIIIIIIIIIIIIIIIIIIIIIIIIIIIIII",
"IIIIIIIIIIIIIIIIIIIIIIIIIIIIIIIIIIIIIIIIIIIIIIIIIIIIIIIIIIIIIIIIIIIIIIIIII",
"IIIIIIIIIIIIIIIIIIIIIIIIII                    IIIIIIIIIIIIIIIIIIIIIIIIIIII",
"IIIIIIIIIIIIIIIIIIIIIIIIII                    IIIIIIIIIIIIIIIIIIIIIIIIIIII",
"IIIIIIIIIIIIIIIIIIIIII                            IIIIIIIIIIIIIIIIIIIIIIII",
"IIIIIIIIIIIIIIIIIIIIII   +*::::::::::::::::::*+   IIIIIIIIIIIIIIIIIIIIIIII",
"IIIIIIIIIIIIIIIIII       *jNNNNNNNNNNNNNNNNNNj=       IIIIIIIIIIIIIIIIIIII",
"IIIIIIIIIIIIIIIIII   +*;-0CLLLLLLLLLLLLLLLLLLCs-;*+   IIIIIIIIIIIIIIIIIIII",
"IIIIIIIIIIIIIIII     *jMnVFKKKKKKKKKKKKKKKKKKFVnMj*     IIIIIIIIIIIIIIIIII",
"IIIIIIIIIIIIIIII +*;-0CLKJJJJJJJJJJJJJJJJJJJJJJKLCs-;*+ IIIIIIIIIIIIIIIIII",
"IIIIIIIIIIIIII   *jMnVFKJJJJJJJJJJJJJJJJJJJJJJJJKFVnMj*   IIIIIIIIIIIIIIII",
"IIIIIIIIIIIIII +*dCLKJJJJJJJJJJJJJJJJJJJJJJJJJJJJJJFCj*   IIIIIIIIIIIIIIII",
"IIIIIIIIIIII   *jCGKJJJJJJJJJJJJJJJJJJJJJJJJJJJJJJJV0*+     IIIIIIIIIIIIII",
"IIIIIIIIIIII +*dCLKJJJJJJJJJJJJJJJJJJJJJJJJJJFBbbbbh*       IIIIIIIIIIIIII",
"IIIIIIIIII   *jCGKJJJJJJJJJJJJJJJJJJJJJJJJJJJV9----&+         IIIIIIIIIIII",
"IIIIIIIIII   -mLKJJJJJJJJJJJJJJJJJJJJJJJJJJFBh*               IIIIIIIIIIII",
"IIIIIIIIII   -bKJJJJJJJJJJJJJJJJJJJJJJJJJJJV9&+               IIIIIIIIIIII",
"IIIIIIIIII +*0VJJJJJJJJJJJJJJJJJJJJJJJJJJFBh*                 IIIIIIIIIIII",
"IIIIIIII   *jCFJJJJJJJJJJJJJJJJJJJJJJJJJJV9&+                   IIIIIIIIII",
"IIIIIIII   -mLKJJJJJJJJJJJJJJJJJJJJJJJJJJb-      .XooooX.       IIIIIIIIII",
"IIIIIIII   -bKJJJJJJJJJJJJJJJJJJJJJJJJJJJb-      X#$$$$#X       IIIIIIIIII",
"IIIIIIII +*0VJJJJJJJJJJJJJJJJJJJJJJJJJJFBh*    .X@%,,,,%@X.     IIIIIIIIII",
"IIIIII   *jCFJJJJJJJJJJJJJJJJJJJJJJJJJJV9&+    X#%177771%#X       IIIIIIII",
"IIIIII   -mLKJJJJJJJJJJJJJJJJJJJJJJJJJJb-    .X@%2ryyyyr3%@X.     IIIIIIII",
"IIIIII   -bKJJJJJJJJJJJJJJJJJJJJJJJJJJJb-    X#%1epzzzzar1%#X     IIIIIIII",
"IIIIII   -bJJJJJJJJJJJJJJJJJJJJJJJJJJFBh*  .X@%2eixvvvvxir3%@X.   IIIIIIII",
"IIIIII   -bJJJJJJJJJJJJJJJJJJJJJJJJJJV9&+  X#%1epxcvvvvcxar1%#X   IIIIIIII",
"IIIIII   -bJJJJJJJJJJJJJJJJJJJJJJJJJJb-    o$<wixvvvvvvvvxiw<$o   IIIIIIII",
"IIIIII   -bJJJJJJJJJJJJJJJJJJJJJJJJJJb-    o$4uxcvvvvvvvvcxu4$o   IIIIIIII",
"IIIIII   -bJJJJJJJJJJJJJJJJJJJJJJJJJJb-    o$5kvvvvvvvvvvvvk5$o   IIIIIIII",
"IIIIII   -bJJJJJJJJJJJJJJJJJJJJJJJJJJb-    o$5kvvvvvvvvvvvvk5$o   IIIIIIII",
"IIIIII   -bJJJJJJJJJJJJJJJJJJJJJJJJJJb-    o$5kvvvvvvvvvvvvk5$o   IIIIIIII",
"IIIIII   -bJJJJJJJJJJJJJJJJJJJJJJJJJJb-    o$5kvvvvvvvvvvvvk5$o   IIIIIIII",
"IIIIII   -bJJJJJJJJJJJJJJJJJJJJJJJJJJb-    o$4uxcvvvvvvvvcxu4$o   IIIIIIII",
"IIIIII   -bJJJJJJJJJJJJJJJJJJJJJJJJJJb-    o$<wixvvvvvvvvxiw<$o   IIIIIIII",
"IIIIII   -bKJJJJJJJJJJJJJJJJJJJJJJJJJb-    X#%1epxcvvvvcxpe1%#X   IIIIIIII",
"IIIIII   -mLKJJJJJJJJJJJJJJJJJJJJJJJJb-    .X@%2eixvvvvxie2%@X.   IIIIIIII",
"IIIIII   ;MLKKJJJJJJJJJJJJJJJJJJJJJJJb-      X#%1epllllpe1%#X     IIIIIIII",
"IIIIII   ;MPLLKJJJJJJJJJJJJJJJJJJJJJJb-      .X@%2etttte2%@X.     IIIIIIII",
"IIIIII   *jAHLKKKKKKJJJJJJJJJJJJJJJJJV0*+      X#%166661%#X       IIIIIIII",
"IIIIIIII +*qZPLLLLLLKJJJJJJJJJJJJJJJJFVh*      .X@%>>>>%@X.     IIIIIIIIII",
"IIIIIIII   ;MPPPPPPLKKKKKKKKKKKKKKKKKKKn-        X#$$$$#X       IIIIIIIIII",
"IIIIIIII   ;MPPPPPPPLLLLLLLLLLLLLLLLLLLM:        .XooooX.       IIIIIIIIII",
"IIIIIIII   *jAHPPPPPPPPPPPPPPPPPPPPPPPPSd=+                     IIIIIIIIII",
"IIIIIIIIII +*qZPPPPPPPPPPPPPPPPPPPPPPPPHSj=                   IIIIIIIIIIII",
"IIIIIIIIII   *jAHPPPPPPPPPPPPPPPPPPPPPPPPSd=+                 IIIIIIIIIIII",
"IIIIIIIIII   +*qZPPPPPPPPPPPPPPPPPPPPPPPPHSj=                 IIIIIIIIIIII",
"IIIIIIIIII     *jAHPPPPPPPPPPPPPPPPPPPPPPPPSd::::=+           IIIIIIIIIIII",
"IIIIIIIIIIII   +*qZPPPPPPPPPPPPPPPPPPPPPPPPHSNNNNj=         IIIIIIIIIIIIII",
"IIIIIIIIIIII     *jMMMMAHPPPPPPPPPPPPPPPPPPPPPPHAj*         IIIIIIIIIIIIII",
"IIIIIIIIIIIIII   +*;;;;qAPPPPPPPPPPPPPPPPPPPPPPSd*+       IIIIIIIIIIIIIIII",
"IIIIIIIIIIIIII         *jMMMMMMMMMMMMMMMMMMMMMMj*         IIIIIIIIIIIIIIII",
"IIIIIIIIIIIIIIIIII     +*;;;;;;;;;;;;;;;;;;;;;;*+     IIIIIIIIIIIIIIIIIIII",
"IIIIIIIIIIIIIIIIII                                    IIIIIIIIIIIIIIIIIIII",
"IIIIIIIIIIIIIIIIII                                    IIIIIIIIIIIIIIIIIIII",
"IIIIIIIIIIIIIIIIII   O**+        +*--*+        +**+   IIIIIIIIIIIIIIIIIIII",
"IIIIIIIIIIIIIIIIII   &gh*        &hbbh*        &hh*   IIIIIIIIIIIIIIIIIIII",
"IIIIIIIIIIIIIIIIII   -bV0--*+  +*9BJJV0*+  +*--9Bb-   IIIIIIIIIIIIIIIIIIII",
"IIIIIIIIIIIIIIIIII   -bFVbbh*  &hVFJJFVh*  &hbbVFb-   IIIIIIIIIIIIIIIIIIII",
"IIIIIIIIIIIIIIIIII   -bJJJJb-  -bJJJJJJb-  -bJJJJb-   IIIIIIIIIIIIIIIIIIII",
"IIIIIIIIIIIIIIIIII   -bJJJJb-  -bJJJJJJb-  -bJJJJb-   IIIIIIIIIIIIIIIIIIII",
"IIIIIIIIIIIIIIIIII   -bJJJJb-  -bJJJJJJb-  -bJJJJb-   IIIIIIIIIIIIIIIIIIII",
"IIIIIIIIIIIIIIIIII   -bJJJJb-  -bJJJJJJb-  -bJJJJb-   IIIIIIIIIIIIIIIIIIII",
"IIIIIIIIIIIIIIIIII   -bJJJJb-  -bJJJJJJb-  -bJJJJb-   IIIIIIIIIIIIIIIIIIII",
"IIIIIIIIIIIIIIIIII   -bJJJJb-  -bJJJJJJb-  -bJJJJb-   IIIIIIIIIIIIIIIIIIII",
"IIIIIIIIIIIIIIIIII   -bJJJJb-  -bJJJJJJb-  -bJJJJb-   IIIIIIIIIIIIIIIIIIII",
"IIIIIIIIIIIIIIIIII   -bJJJJb-  -bJJJJJJb-  -bJJJJb-   IIIIIIIIIIIIIIIIIIII",
"IIIIIIIIIIIIIIIIII   &fBDJJV0*+&fBDJJDBg*+*9BJJDBg*   IIIIIIIIIIIIIIIIIIII",
"IIIIIIIIIIIIIIIIIIII O&8BJJFVh*O&8BJJV8&O&hVFJJV8&O IIIIIIIIIIIIIIIIIIIIII",
"IIIIIIIIIIIIIIIIIIII   -bJJJJb-  &fbbg*  -bJJJJb-   IIIIIIIIIIIIIIIIIIIIII",
"IIIIIIIIIIIIIIIIIIII   -bJJJJb-  O&--&O  -bJJJJb-   IIIIIIIIIIIIIIIIIIIIII",
"IIIIIIIIIIIIIIIIIIII   -bJJJJV0*+      +*9BJJJJb-   IIIIIIIIIIIIIIIIIIIIII",
"IIIIIIIIIIIIIIIIIIII   -bJJJJFVh*      &hVFJJJJb-   IIIIIIIIIIIIIIIIIIIIII",
"IIIIIIIIIIIIIIIIIIII   &fBDJJJJV0------9BJJJJDBf*   IIIIIIIIIIIIIIIIIIIIII",
"IIIIIIIIIIIIIIIIIIIIII O&8BJJJJFVbbbbbbVFJJJJV8&O IIIIIIIIIIIIIIIIIIIIIIII",
"IIIIIIIIIIIIIIIIIIIIII   &fbbBDJJJJJJJJJJDBbbf*   IIIIIIIIIIIIIIIIIIIIIIII",
"IIIIIIIIIIIIIIIIIIIIII   O&--8BJJJJJJJJJJV8--&O   IIIIIIIIIIIIIIIIIIIIIIII",
"IIIIIIIIIIIIIIIIIIIIII       &fbbbbbbbbbbg*       IIIIIIIIIIIIIIIIIIIIIIII",
"IIIIIIIIIIIIIIIIIIIIIIII     O&----------&O     IIIIIIIIIIIIIIIIIIIIIIIIII",
"IIIIIIIIIIIIIIIIIIIIIIII                        IIIIIIIIIIIIIIIIIIIIIIIIII",
"IIIIIIIIIIIIIIIIIIIIIIIIIIII                IIIIIIIIIIIIIIIIIIIIIIIIIIIIII",
"IIIIIIIIIIIIIIIIIIIIIIIIIIII                IIIIIIIIIIIIIIIIIIIIIIIIIIIIII",
"IIIIIIIIIIIIIIIIIIIIIIIIIIIIIIIIIIIIIIIIIIIIIIIIIIIIIIIIIIIIIIIIIIIIIIIIII",
"IIIIIIIIIIIIIIIIIIIIIIIIIIIIIIIIIIIIIIIIIIIIIIIIIIIIIIIIIIIIIIIIIIIIIIIIII",
"IIIIIIIIIIIIIIIIIIIIIIIIIIIIIIIIIIIIIIIIIIIIIIIIIIIIIIIIIIIIIIIIIIIIIIIIII",
"IIIIIIIIIIIIIIIIIIIIIIIIIIIIIIIIIIIIIIIIIIIIIIIIIIIIIIIIIIIIIIIIIIIIIIIIII",
"IIIIIIIIIIIIIIIIIIIIIIIIIIIIIIIIIIIIIIIIIIIIIIIIIIIIIIIIIIIIIIIIIIIIIIIIII",
"IIIIIIIIIIIIIIIIIIIIIIIIIIIIIIIIIIIIIIIIIIIIIIIIIIIIIIIIIIIIIIIIIIIIIIIIII",
"IIIIIIIIIIIIIIIIIIIIIIIIIIIIIIIIIIIIIIIIIIIIIIIIIIIIIIIIIIIIIIIIIIIIIIIIII",
"IIIIIIIIIIIIIIIIIIIIIIIIIIIIIIIIIIIIIIIIIIIIIIIIIIIIIIIIIIIIIIIIIIIIIIIIII",
"IIIIIIIIIIIIIIIIIIIIIIIIIIIIIIIIIIIIIIIIIIIIIIIIIIIIIIIIIIIIIIIIIIIIIIIIII",
"IIIIIIIIIIIIIIIIIIIIIIIIIIIIIIIIIIIIIIIIIIIIIIIIIIIIIIIIIIIIIIIIIIIIIIIIII",
"IIIIIIIIIIIIIIIIIIIIIIIIIIIIIIIIIIIIIIIIIIIIIIIIIIIIIIIIIIIIIIIIIIIIIIIIII",
"IIIIIIIIIIIIIIIIIIIIIIIIIIIIIIIIIIIIIIIIIIIIIIIIIIIIIIIIIIIIIIIIIIIIIIIIII",
"IIIIIIIIIIIIIIIIIIIIIIIIIIIIIIIIIIIIIIIIIIIIIIIIIIIIIIIIIIIIIIIIIIIIIIIIII",
"IIIIIIIIIIIIIIIIIIIIIIIIIIIIIIIIIIIIIIIIIIIIIIIIIIIIIIIIIIIIIIIIIIIIIIIIII"
};
