/* XPM */
static char *result[] = {
/* columns rows colors chars-per-pixel */
"74 100 71 1 ",
"  c #1F333C",
". c #20353F",
"X c #233A46",
"o c #243D49",
"O c #2D3F48",
"+ c #2D4048",
"@ c #284858",
"# c #2B4959",
"$ c #2F5062",
"% c #305F76",
"& c #485860",
"* c #485960",
"= c #495960",
"- c #56656C",
"; c #56666C",
": c #56666D",
"> c #346A85",
", c #346B86",
"< c #3B6F89",
"1 c #337D9E",
"2 c #3B7B99",
"3 c #3B7C99",
"4 c #48788F",
"5 c #4F7D92",
"6 c #348BB2",
"7 c #348CB3",
"8 c #7F8A90",
"9 c #7F8B90",
"0 c #7F8B91",
"q c #7F8C91",
"w c #4899BC",
"e c #489DC1",
"r c #489EC1",
"t c #4FAED5",
"y c #4FAFD5",
"u c #71B5CE",
"i c #63BCDE",
"p c #71C1DF",
"a c #71C2DF",
"s c #808B91",
"d c #808C91",
"f c #9BA3A8",
"g c #9BA3A9",
"h c #9BA4A9",
"j c #9BA5A9",
"k c #85C3D7",
"l c #85D3EE",
"z c #85D4EE",
"x c #8CD8F1",
"c c #99E1F7",
"v c #A0E6FA",
"b c #C4C9CD",
"n c #C4CACD",
"m c #C4CBCD",
"M c #C5CBCD",
"N c #C5CBCE",
"B c #D2D5D9",
"V c #D2D6D9",
"C c #D2D7D9",
"Z c #D2D8D9",
"A c #D2D8DA",
"S c #D3D8DA",
"D c #EDEEF1",
"F c #EDEFF1",
"G c #EEF0F1",
"H c #EEF1F2",
"J c #FBFBFD",
"K c #FBFCFD",
"L c #FCFDFE",
"P c #FCFEFE",
"I c None",
/* pixels */
"IIIIIIIIIIIIIIIIIIIIIIIIIIIIIIIIIIIIIIIIIIIIIIIIIIIIIIIIIIIIIIIIIIIIIIIIII",
"IIIIIIIIIIIIIIIIIIIIIIIIIIIIIIIIIIIIIIIIIIIIIIIIIIIIIIIIIIIIIIIIIIIIIIIIII",
"IIIIIIIIIIIIIIIIIIIIIIIIIIIIIIIIIIIIIIIIIIIIIIIIIIIIIIIIIIIIIIIIIIIIIIIIII",
"IIIIIIIIIIIIIIIIIIIIIIIIIIIIIIIIIIIIIIIIIIIIIIIIIIIIIIIIIIIIIIIIIIIIIIIIII",
"IIIIIIIIIIIIIIIIIIIIIIIIIIIIIIIIIIIIIIIIIIIIIIIIIIIIIIIIIIIIIIIIIIIIIIIIII",
"IIIIIIIIIIIIIIIIIIIIIIIIIIIIIIIIIIIIIIIIIIIIIIIIIIIIIIIIIIIIIIIIIIIIIIIIII",
"IIIIIIIIIIIIIIIIIIIIIIIIII                    IIIIIIIIIIIIIIIIIIIIIIIIIIII",
"IIIIIIIIIIIIIIIIIIIIIIIIII                    IIIIIIIIIIIIIIIIIIIIIIIIIIII",
"IIIIIIIIIIIIIIIIIIIIII                            IIIIIIIIIIIIIIIIIIIIIIII",
"IIIIIIIIIIIIIIIIIIIIII   +*::::::::::::::::::*+   IIIIIIIIIIIIIIIIIIIIIIII",
"IIIIIIIIIIIIIIIIII       =jNNNNNNNNNNNNNNNNNNj*       IIIIIIIIIIIIIIIIIIII",
"IIIIIIIIIIIIIIIIII   +*;-sCLLLLLLLLLLLLLLLLLLC0-;*+   IIIIIIIIIIIIIIIIIIII",
"IIIIIIIIIIIIIIII     *jMnVFKKKKKKKKKKKKKKKKKKFVnMj*     IIIIIIIIIIIIIIIIII",
"IIIIIIIIIIIIIIII +*;-sCLKJJJJJJJJJJJJJJJJJJJJJJKLC0-;*+ IIIIIIIIIIIIIIIIII",
"IIIIIIIIIIIIII   *jMnVFKJJJJJJJJJJJJJJJJJJJJJJJJKFVnMj*   IIIIIIIIIIIIIIII",
"IIIIIIIIIIIIII   *jCFJJJJJJJJJJJJJJJJJJJJJJJJJJJJJJKLCd*+ IIIIIIIIIIIIIIII",
"IIIIIIIIIIII     +*0VJJJJJJJJJJJJJJJJJJJJJJJJJJJJJJJKGCj*   IIIIIIIIIIIIII",
"IIIIIIIIIIII       *hbbbbBFJJJJJJJJJJJJJJJJJJJJJJJJJJKLCd*+ IIIIIIIIIIIIII",
"IIIIIIIIII         +&----9VJJJJJJJJJJJJJJJJJJJJJJJJJJJKGCj*   IIIIIIIIIIII",
"IIIIIIIIII               *hBFJJJJJJJJJJJJJJJJJJJJJJJJJJKLm-   IIIIIIIIIIII",
"IIIIIIIIII               +&9VJJJJJJJJJJJJJJJJJJJJJJJJJJJKb-   IIIIIIIIIIII",
"IIIIIIIIII                 *hBFJJJJJJJJJJJJJJJJJJJJJJJJJJV0*+ IIIIIIIIIIII",
"IIIIIIII                   +&9VJJJJJJJJJJJJJJJJJJJJJJJJJJFCj*   IIIIIIIIII",
"IIIIIIII       .XooooX.      -bJJJJJJJJJJJJJJJJJJJJJJJJJJKLm-   IIIIIIIIII",
"IIIIIIII       X#$$$$#X      -bJJJJJJJJJJJJJJJJJJJJJJJJJJJKb-   IIIIIIIIII",
"IIIIIIII     .X@%,,,,%@X.    *hBFJJJJJJJJJJJJJJJJJJJJJJJJJJV0*+ IIIIIIIIII",
"IIIIII       X#%177771%#X    +&9VJJJJJJJJJJJJJJJJJJJJJJJJJJFCj*   IIIIIIII",
"IIIIII     .X@%3ryyyyr2%@X.    -bJJJJJJJJJJJJJJJJJJJJJJJJJJKLm-   IIIIIIII",
"IIIIII     X#%1razzzzpe1%#X    -bJJJJJJJJJJJJJJJJJJJJJJJJJJJKb-   IIIIIIII",
"IIIIII   .X@%3rixvvvvxie2%@X.  *hBFJJJJJJJJJJJJJJJJJJJJJJJJJJb-   IIIIIIII",
"IIIIII   X#%1raxcvvvvcxpe1%#X  +&9VJJJJJJJJJJJJJJJJJJJJJJJJJJb-   IIIIIIII",
"IIIIII   o$<wixvvvvvvvvxiw<$o    -bJJJJJJJJJJJJJJJJJJJJJJJJJJb-   IIIIIIII",
"IIIIII   o$4uxcvvvvvvvvcxu4$o    -bJJJJJJJJJJJJJJJJJJJJJJJJJJb-   IIIIIIII",
"IIIIII   o$5kvvvvvvvvvvvvk5$o    -bJJJJJJJJJJJJJJJJJJJJJJJJJJb-   IIIIIIII",
"IIIIII   o$5kvvvvvvvvvvvvk5$o    -bJJJJJJJJJJJJJJJJJJJJJJJJJJb-   IIIIIIII",
"IIIIII   o$5kvvvvvvvvvvvvk5$o    -bJJJJJJJJJJJJJJJJJJJJJJJJJJb-   IIIIIIII",
"IIIIII   o$5kvvvvvvvvvvvvk5$o    -bJJJJJJJJJJJJJJJJJJJJJJJJJJb-   IIIIIIII",
"IIIIII   o$4uxcvvvvvvvvcxu4$o    -bJJJJJJJJJJJJJJJJJJJJJJJJJJb-   IIIIIIII",
"IIIIII   o$<wixvvvvvvvvxiw<$o    -bJJJJJJJJJJJJJJJJJJJJJJJJJJb-   IIIIIIII",
"IIIIII   X#%1epxcvvvvcxpe1%#X    -bJJJJJJJJJJJJJJJJJJJJJJJJJKb-   IIIIIIII",
"IIIIII   .X@%2eixvvvvxie2%@X.    -bJJJJJJJJJJJJJJJJJJJJJJJJKLm-   IIIIIIII",
"IIIIII     X#%1epllllpe1%#X      -bJJJJJJJJJJJJJJJJJJJJJJJKKLM;   IIIIIIII",
"IIIIII     .X@%2etttte2%@X.      -bJJJJJJJJJJJJJJJJJJJJJJKLLPM;   IIIIIIII",
"IIIIII       X#%166661%#X      +*0VJJJJJJJJJJJJJJJJJKKKKKKLHAj*   IIIIIIII",
"IIIIIIII     .X@%>>>>%@X.      *hVFJJJJJJJJJJJJJJJJKLLLLLLPZq*+ IIIIIIIIII",
"IIIIIIII       X#$$$$#X        -nKKKKKKKKKKKKKKKKKKKLPPPPPPM;   IIIIIIIIII",
"IIIIIIII       .XooooX.        :MLLLLLLLLLLLLLLLLLLLPPPPPPPM;   IIIIIIIIII",
"IIIIIIII                     +=dSPPPPPPPPPPPPPPPPPPPPPPPPHAj*   IIIIIIIIII",
"IIIIIIIIII                   =jSHPPPPPPPPPPPPPPPPPPPPPPPPZq*+ IIIIIIIIIIII",
"IIIIIIIIII                 +=dSPPPPPPPPPPPPPPPPPPPPPPPPHAj*   IIIIIIIIIIII",
"IIIIIIIIII                 =jSHPPPPPPPPPPPPPPPPPPPPPPPPZq*+   IIIIIIIIIIII",
"IIIIIIIIII           +=::::dSPPPPPPPPPPPPPPPPPPPPPPPPHAj*     IIIIIIIIIIII",
"IIIIIIIIIIII         =jNNNNSHPPPPPPPPPPPPPPPPPPPPPPPPZq*+   IIIIIIIIIIIIII",
"IIIIIIIIIIII         *jAHPPPPPPPPPPPPPPPPPPPPPPHAMMMMj*     IIIIIIIIIIIIII",
"IIIIIIIIIIIIII       +*dSPPPPPPPPPPPPPPPPPPPPPPAq;;;;*+   IIIIIIIIIIIIIIII",
"IIIIIIIIIIIIII         *jMMMMMMMMMMMMMMMMMMMMMMj*         IIIIIIIIIIIIIIII",
"IIIIIIIIIIIIIIIIII     +*;;;;;;;;;;;;;;;;;;;;;;*+     IIIIIIIIIIIIIIIIIIII",
"IIIIIIIIIIIIIIIIII                                    IIIIIIIIIIIIIIIIIIII",
"IIIIIIIIIIIIIIIIII                                    IIIIIIIIIIIIIIIIIIII",
"IIIIIIIIIIIIIIIIII   +**+        +*--*+        +**O   IIIIIIIIIIIIIIIIIIII",
"IIIIIIIIIIIIIIIIII   *hh&        *hbbh&        *hg&   IIIIIIIIIIIIIIIIIIII",
"IIIIIIIIIIIIIIIIII   -bB9--*+  +*0VJJB9*+  +*--0Vb-   IIIIIIIIIIIIIIIIIIII",
"IIIIIIIIIIIIIIIIII   -bFVbbh&  *hVFJJFVh&  *hbbVFb-   IIIIIIIIIIIIIIIIIIII",
"IIIIIIIIIIIIIIIIII   -bJJJJb-  -bJJJJJJb-  -bJJJJb-   IIIIIIIIIIIIIIIIIIII",
"IIIIIIIIIIIIIIIIII   -bJJJJb-  -bJJJJJJb-  -bJJJJb-   IIIIIIIIIIIIIIIIIIII",
"IIIIIIIIIIIIIIIIII   -bJJJJb-  -bJJJJJJb-  -bJJJJb-   IIIIIIIIIIIIIIIIIIII",
"IIIIIIIIIIIIIIIIII   -bJJJJb-  -bJJJJJJb-  -bJJJJb-   IIIIIIIIIIIIIIIIIIII",
"IIIIIIIIIIIIIIIIII   -bJJJJb-  -bJJJJJJb-  -bJJJJb-   IIIIIIIIIIIIIIIIIIII",
"IIIIIIIIIIIIIIIIII   -bJJJJb-  -bJJJJJJb-  -bJJJJb-   IIIIIIIIIIIIIIIIIIII",
"IIIIIIIIIIIIIIIIII   -bJJJJb-  -bJJJJJJb-  -bJJJJb-   IIIIIIIIIIIIIIIIIIII",
"IIIIIIIIIIIIIIIIII   -bJJJJb-  -bJJJJJJb-  -bJJJJb-   IIIIIIIIIIIIIIIIIIII",
"IIIIIIIIIIIIIIIIII   *gBDJJB9*+*gBDJJDBf&+*0VJJDBf&   IIIIIIIIIIIIIIIIIIII",
"IIIIIIIIIIIIIIIIIIII O&8VJJFVh&O&8VJJB8&O*hVFJJB8&O IIIIIIIIIIIIIIIIIIIIII",
"IIIIIIIIIIIIIIIIIIII   -bJJJJb-  *gbbf&  -bJJJJb-   IIIIIIIIIIIIIIIIIIIIII",
"IIIIIIIIIIIIIIIIIIII   -bJJJJb-  O&--&O  -bJJJJb-   IIIIIIIIIIIIIIIIIIIIII",
"IIIIIIIIIIIIIIIIIIII   -bJJJJB9*+      +*0VJJJJb-   IIIIIIIIIIIIIIIIIIIIII",
"IIIIIIIIIIIIIIIIIIII   -bJJJJFVh&      *hVFJJJJb-   IIIIIIIIIIIIIIIIIIIIII",
"IIIIIIIIIIIIIIIIIIII   *fBDJJJJB9------0VJJJJDBf&   IIIIIIIIIIIIIIIIIIIIII",
"IIIIIIIIIIIIIIIIIIIIII O&8VJJJJFVbbbbbbVFJJJJB8&O IIIIIIIIIIIIIIIIIIIIIIII",
"IIIIIIIIIIIIIIIIIIIIII   *fbbBDJJJJJJJJJJDBbbf&   IIIIIIIIIIIIIIIIIIIIIIII",
"IIIIIIIIIIIIIIIIIIIIII   O&--8VJJJJJJJJJJB8--&O   IIIIIIIIIIIIIIIIIIIIIIII",
"IIIIIIIIIIIIIIIIIIIIII       *gbbbbbbbbbbf&       IIIIIIIIIIIIIIIIIIIIIIII",
"IIIIIIIIIIIIIIIIIIIIIIII     O&----------&O     IIIIIIIIIIIIIIIIIIIIIIIIII",
"IIIIIIIIIIIIIIIIIIIIIIII                        IIIIIIIIIIIIIIIIIIIIIIIIII",
"IIIIIIIIIIIIIIIIIIIIIIIIIIII                IIIIIIIIIIIIIIIIIIIIIIIIIIIIII",
"IIIIIIIIIIIIIIIIIIIIIIIIIIII                IIIIIIIIIIIIIIIIIIIIIIIIIIIIII",
"IIIIIIIIIIIIIIIIIIIIIIIIIIIIIIIIIIIIIIIIIIIIIIIIIIIIIIIIIIIIIIIIIIIIIIIIII",
"IIIIIIIIIIIIIIIIIIIIIIIIIIIIIIIIIIIIIIIIIIIIIIIIIIIIIIIIIIIIIIIIIIIIIIIIII",
"IIIIIIIIIIIIIIIIIIIIIIIIIIIIIIIIIIIIIIIIIIIIIIIIIIIIIIIIIIIIIIIIIIIIIIIIII",
"IIIIIIIIIIIIIIIIIIIIIIIIIIIIIIIIIIIIIIIIIIIIIIIIIIIIIIIIIIIIIIIIIIIIIIIIII",
"IIIIIIIIIIIIIIIIIIIIIIIIIIIIIIIIIIIIIIIIIIIIIIIIIIIIIIIIIIIIIIIIIIIIIIIIII",
"IIIIIIIIIIIIIIIIIIIIIIIIIIIIIIIIIIIIIIIIIIIIIIIIIIIIIIIIIIIIIIIIIIIIIIIIII",
"IIIIIIIIIIIIIIIIIIIIIIIIIIIIIIIIIIIIIIIIIIIIIIIIIIIIIIIIIIIIIIIIIIIIIIIIII",
"IIIIIIIIIIIIIIIIIIIIIIIIIIIIIIIIIIIIIIIIIIIIIIIIIIIIIIIIIIIIIIIIIIIIIIIIII",
"IIIIIIIIIIIIIIIIIIIIIIIIIIIIIIIIIIIIIIIIIIIIIIIIIIIIIIIIIIIIIIIIIIIIIIIIII",
"IIIIIIIIIIIIIIIIIIIIIIIIIIIIIIIIIIIIIIIIIIIIIIIIIIIIIIIIIIIIIIIIIIIIIIIIII",
"IIIIIIIIIIIIIIIIIIIIIIIIIIIIIIIIIIIIIIIIIIIIIIIIIIIIIIIIIIIIIIIIIIIIIIIIII",
"IIIIIIIIIIIIIIIIIIIIIIIIIIIIIIIIIIIIIIIIIIIIIIIIIIIIIIIIIIIIIIIIIIIIIIIIII",
"IIIIIIIIIIIIIIIIIIIIIIIIIIIIIIIIIIIIIIIIIIIIIIIIIIIIIIIIIIIIIIIIIIIIIIIIII",
"IIIIIIIIIIIIIIIIIIIIIIIIIIIIIIIIIIIIIIIIIIIIIIIIIIIIIIIIIIIIIIIIIIIIIIIIII"
};
