/* XPM */
static char *result[] = {
/* columns rows colors chars-per-pixel */
"72 100 34 1 ",
"  c #1F333C",
". c #2D3F48",
"X c #2D4048",
"o c #485860",
"O c #485960",
"+ c #495960",
"@ c #495961",
"# c #56656C",
"$ c #56666C",
"% c #56666D",
"& c #7F8A90",
"* c #7F8B90",
"= c #7F8B91",
"- c #7F8C91",
"; c #808C91",
": c #9BA3A8",
"> c #9BA3A9",
", c #9BA4A9",
"< c #9BA5A9",
"1 c #9CA5A9",
"2 c #C4C9CD",
"3 c #C5CBCD",
"4 c #C5CBCE",
"5 c #D2D5D9",
"6 c #D2D6D9",
"7 c #D2D8D9",
"8 c #D2D8DA",
"9 c #D3D8DA",
"0 c #EDEEF1",
"q c #EDEFF1",
"w c #EEF1F2",
"e c #FBFBFD",
"r c #FCFEFE",
"t c None",
/* pixels */
"tttttttttttttttttttttttttttttttttttttttttttttttttttttttttttttttttttttttt",
"tttttttttttttttttttttttttttttttttttttttttttttttttttttttttttttttttttttttt",
"tttttttttttttttttttttttttttttttttttttttttttttttttttttttttttttttttttttttt",
"tttttttttttttttttttttttttttttttttttttttttttttttttttttttttttttttttttttttt",
"tttttttttttttttttttttttttttttttttttttttttttttttttttttttttttttttttttttttt",
"tttttttttttttttttttttttttttttttttttttttttttttttttttttttttttttttttttttttt",
"tttttttttttttttttttttttttt                    tttttttttttttttttttttttttt",
"tttttttttttttttttttttttttt                    tttttttttttttttttttttttttt",
"tttttttttttttttttttttt                            tttttttttttttttttttttt",
"tttttttttttttttttttttt   XO##################o.   tttttttttttttttttttttt",
"tttttttttttttttttt       O,222222222222222222:o       tttttttttttttttttt",
"tttttttttttttttttt   XO##=6eeeeeeeeeeeeeeeeee5&##o.   tttttttttttttttttt",
"tttttttttttttttt     O,226qeeeeeeeeeeeeeeeeee0522:o     tttttttttttttttt",
"tttttttttttttttt XO##=6eeeeeeeeeeeeeeeeeeeeeeeeee5&##o. tttttttttttttttt",
"tttttttttttttt   O,226qeeeeeeeeeeeeeeeeeeeeeeeeee0522:o   tttttttttttttt",
"tttttttttttttt XO*6eeeeeeeeeeeeeeeeeeeeeeeeeeeeeeeeee5&o. tttttttttttttt",
"tttttttttttt   O,6qeeeeeeeeeeeeeeeeeeeeeeeeeeeeeeeeee05:o   tttttttttttt",
"tttttttttttt XO*6eeeeeeeeeeeeeeeeeeeeeeeeeeeeeeeeeeeeee5&o. tttttttttttt",
"tttttttttt   O,6qeeeeeeeeeeeeeeeeeeeeeeeeeeeeeeeeeeeeee05:o   tttttttttt",
"tttttttttt   #2eeeeeeeeeeeeeeeeeeeeeeeeeeeeeeeeeeeeeeeeee2#   tttttttttt",
"tttttttttt   #2eeeeeeeeeeeeeeeeeeeeeeeeeeeeeeeeeeeeeeeeee2#   tttttttttt",
"tttttttttt XO*6eeeeeeeeeeeeeeeeeeeeeeeeeeeeeeeeeeeeeeeeee5&o. tttttttttt",
"tttttttt   O,6qeeeeeeeeeeeeeeeeeeeeeeeeeeeeeeeeeeeeeeeeee05:o   tttttttt",
"tttttttt   #2eeeeeeeeeeeeeeeeeeeeeeeeeeeeeeeeeeeeeeeeeeeeee2#   tttttttt",
"tttttttt   #2eeeeeeeeeeeeeeeeeeeeeeeeeeeeeeeeeeeeeeeeeeeeee2#   tttttttt",
"tttttttt XO*6eeeeeeeeeeeeeeeeeeeeeeeeeeeeeeeeeeeeeeeeeeeeee5&o. tttttttt",
"tttttt   O,6qeeeeeeeeeeeeeeeeeeeeeeeeeeeeeeeeeeeeeeeeeeeeee05:o   tttttt",
"tttttt   #2eeeeeeeeeeeeeeeeeeeeeeeeeeeeeeeeeeeeeeeeeeeeeeeeee2#   tttttt",
"tttttt   #2eeeeeeeeeeeeeeeeeeeeeeeeeeeeeeeeeeeeeeeeeeeeeeeeee2#   tttttt",
"tttttt   #2eeeeeeeeeeeeeeeeeeeeeeeeeeeeeeeeeeeeeeeeeeeeeeeeee2#   tttttt",
"tttttt   #2eeeeeeeeeeeeeeeeeeeeeeeeeeeeeeeeeeeeeeeeeeeeeeeeee2#   tttttt",
"tttttt   #2eeeeeeeeeeeeeeeeeeeeeeeeeeeeeeeeeeeeeeeeeeeeeeeeee2#   tttttt",
"tttttt   #2eeeeeeeeeeeeeeeeeeeeeeeeeeeeeeeeeeeeeeeeeeeeeeeeee2#   tttttt",
"tttttt   #2eeeeeeeeeeeeeeeeeeeeeeeeeeeeeeeeeeeeeeeeeeeeeeeeee2#   tttttt",
"tttttt   #2eeeeeeeeeeeeeeeeeeeeeeeeeeeeeeeeeeeeeeeeeeeeeeeeee2#   tttttt",
"tttttt   #2eeeeeeeeeeeeeeeeeeeeeeeeeeeeeeeeeeeeeeeeeeeeeeeeee2#   tttttt",
"tttttt   #2eeeeeeeeeeeeeeeeeeeeeeeeeeeeeeeeeeeeeeeeeeeeeeeeee2#   tttttt",
"tttttt   #2eeeeeeeeeeeeeeeeeeeeeeeeeeeeeeeeeeeeeeeeeeeeeeeeee2#   tttttt",
"tttttt   #2eeeeeeeeeeeeeeeeeeeeeeeeeeeeeeeeeeeeeeeeeeeeeeeeee2#   tttttt",
"tttttt   #2eeeeeeeeeeeeeeeeeeeeeeeeeeeeeeeeeeeeeeeeeeeeeeeeee2#   tttttt",
"tttttt   #2eeeeeeeeeeeeeeeeeeeeeeeeeeeeeeeeeeeeeeeeeeeeeeeeee2#   tttttt",
"tttttt   #2eeeeeeeeeeeeeeeeeeeeeeeeeeeeeeeeeeeeeeeeeeeeeeeeee2#   tttttt",
"tttttt   #2eeeeeeeeeeeeeeeeeeeeeeeeeeeeeeeeeeeeeeeeeeeeeeeeee2#   tttttt",
"tttttt   o>50eeeeeeeeeeeeeeeeeeeeeeeeeeeeeeeeeeeeeeeeeeeeee05:o   tttttt",
"tttttttt .o&6eeeeeeeeeeeeeeeeeeeeeeeeeeeeeeeeeeeeeeeeeeeeee5&o. tttttttt",
"tttttttt   #2eeeeeeeeeeeeeeeeeeeeeeeeeeeeeeeeeeeeeeeeeeeeee2#   tttttttt",
"tttttttt   #2eeeeeeeeeeeeeeeeeeeeeeeeeeeeeeeeeeeeeeeeeeeeee2#   tttttttt",
"tttttttt   O>50eeeeeeeeeeeeeeeeeeeeeeeeeeeeeeeeeeeeeeeeee05:o   tttttttt",
"tttttttttt .o&6eeeeeeeeeeeeeeeeeeeeeeeeeeeeeeeeeeeeeeeeee5&o. tttttttttt",
"tttttttttt   O>50eeeeeeeeeeeeeeeeeeeeeeeeeeeeeeeeeeeeee05:o   tttttttttt",
"tttttttttt   .o&6eeeeeeeeeeeeeeeeeeeeeeeeeeeeeeeeeeeeee5&o.   tttttttttt",
"tttttttttt     O>50eeeeeeeeeeeeeeeeeeeeeeeeeeeeeeeeee05:o     tttttttttt",
"tttttttttttt   .o&6eeeeeeeeeeeeeeeeeeeeeeeeeeeeeeeeee5&o.   tttttttttttt",
"tttttttttttt     O>222250eeeeeeeeeeeeeeeeeeeeee052222:o     tttttttttttt",
"tttttttttttttt   .o####&6eeeeeeeeeeeeeeeeeeeeee5&####o.   tttttttttttttt",
"tttttttttttttt         O>2222222222222222222222:o         tttttttttttttt",
"tttttttttttttt         .o######################o.         tttttttttttttt",
"tttttttttttttt                                            tttttttttttttt",
"tttttttttttt                                                tttttttttttt",
"tttttttttttt   X++X  X++X                      X+OX  X+OX   tttttttttttt",
"tttttttttttt   +<<O  +<<O                      @1<O  @1<O   tttttttttttt",
"tttttttttttt X+;93$  %49;%%%%%%%%%%%%%%%%%%%%%%;93$  %48;OX tttttttttttt",
"tttttttttt   +<9w3$  %4w944444444444444444444449w3$  %4w9<O   tttttttttt",
"tttttttttt   %4rr3$  %4rrrrrrrrrrrrrrrrrrrrrrrrrr3$  %4rr3$   tttttttttt",
"tttttttttt   %4rr3$  %4rrrrrrrrrrrrrrrrrrrrrrrrrr3$  %4rr3$   tttttttttt",
"tttttttttt   %4rr3$  %4rrrrrrrrrrrrrrrrrrrrrrrrrr3$  %4rr3$   tttttttttt",
"tttttttttt   %4rr3$  %4rrrrrrrrrrrrrrrrrrrrrrrrrr3$  %4rr3$   tttttttttt",
"tttttttttt   %4rr3$  %4rrrrrrrrrrrrrrrrrrrrrrrrrr3$  %4rr3$   tttttttttt",
"tttttttttt   %4rr3$  %4rrrrrrrrrrrrrrrrrrrrrrrrrr3$  %4rr3$   tttttttttt",
"tttttttttt   %4rr3$  %4rrrrrrrrrrrrrrrrrrrrrrrrrr3$  %4rr3$   tttttttttt",
"tttttttttt   %4rr3$  %4rrrrrrrrrrrrrrrrrrrrrrrrrr3$  %4rr3$   tttttttttt",
"tttttttttt   O<8w9;+XO<8wrrrrrrrrrrrrrrrrrrrrrrw7<OX@;9w7<O   tttttttttt",
"tttttttttttt XO;9w9<OXO;9rrrrrrrrrrrrrrrrrrrrrr7-OX@19w7-OX tttttttttttt",
"tttttttttttt   O<33<O  %4rrrrrrrrrrrrrrrrrrrrrr3$  +<33<O   tttttttttttt",
"tttttttttttt   XO$$OX  %4rrrrrrrrrrrrrrrrrrrrrr3$  XO$$OX   tttttttttttt",
"tttttttttttt           %4rrrrrrrrrrrrrrrrrrrrrr3$           tttttttttttt",
"tttttttttttttt         %4rrrrrrrrrrrrrrrrrrrrrr3$         tttttttttttttt",
"tttttttttttttt         O<8wrrrrrrrrrrrrrrrrrrw7<O         tttttttttttttt",
"tttttttttttttttttttttt XO;9rrrrrrrrrrrrrrrrrr7-OX tttttttttttttttttttttt",
"tttttttttttttttttttttt   O<338wrrrrrrrrrrw733<O   tttttttttttttttttttttt",
"tttttttttttttttttttttt   XO$$;9rrrrrrrrrr8-$$OX   tttttttttttttttttttttt",
"tttttttttttttttttttttt       O<3333333333<O       tttttttttttttttttttttt",
"tttttttttttttttttttttttt     XO$$$$$$$$$$OX     tttttttttttttttttttttttt",
"tttttttttttttttttttttttt                        tttttttttttttttttttttttt",
"tttttttttttttttttttttttttttt                tttttttttttttttttttttttttttt",
"tttttttttttttttttttttttttttt                tttttttttttttttttttttttttttt",
"tttttttttttttttttttttttttttttttttttttttttttttttttttttttttttttttttttttttt",
"tttttttttttttttttttttttttttttttttttttttttttttttttttttttttttttttttttttttt",
"tttttttttttttttttttttttttttttttttttttttttttttttttttttttttttttttttttttttt",
"tttttttttttttttttttttttttttttttttttttttttttttttttttttttttttttttttttttttt",
"tttttttttttttttttttttttttttttttttttttttttttttttttttttttttttttttttttttttt",
"tttttttttttttttttttttttttttttttttttttttttttttttttttttttttttttttttttttttt",
"tttttttttttttttttttttttttttttttttttttttttttttttttttttttttttttttttttttttt",
"tttttttttttttttttttttttttttttttttttttttttttttttttttttttttttttttttttttttt",
"tttttttttttttttttttttttttttttttttttttttttttttttttttttttttttttttttttttttt",
"tttttttttttttttttttttttttttttttttttttttttttttttttttttttttttttttttttttttt",
"tttttttttttttttttttttttttttttttttttttttttttttttttttttttttttttttttttttttt",
"tttttttttttttttttttttttttttttttttttttttttttttttttttttttttttttttttttttttt",
"tttttttttttttttttttttttttttttttttttttttttttttttttttttttttttttttttttttttt",
"tttttttttttttttttttttttttttttttttttttttttttttttttttttttttttttttttttttttt"
};
