/* XPM */
static char *result[] = {
/* columns rows colors chars-per-pixel */
"80 77 36 1 ",
"  c #FF4D00",
". c #FF4F02",
"X c #FF5607",
"o c #FF5809",
"O c #FF5B0B",
"+ c #FF5C0C",
"@ c #FF5D0D",
"# c #FF5E0D",
"$ c #FF5F0D",
"% c #FF600C",
"& c #FF620C",
"* c #FF630C",
"= c #FF650C",
"- c #FF6C0A",
"; c #FF7B07",
": c #FF7209",
"> c #FF7409",
", c #FF7708",
"< c #FF7808",
"1 c #FF8306",
"2 c #FF8505",
"3 c #FF8A04",
"4 c #FF8E04",
"5 c #FF9203",
"6 c #FF9C03",
"7 c #FFA702",
"8 c #FFAA02",
"9 c #FFB602",
"0 c #FFC201",
"q c #FFCC01",
"w c #FFD001",
"e c #FFDA00",
"r c #FFE100",
"t c #FFE400",
"y c #FFE600",
"u c None",
/* pixels */
"uuuuuuuuuuuuuuuuuuuuuuuuuuuuuuuuuuuuuuuuuuuuuuuuuuuuuuuuuuuuuuuuuuuuuuuuuuuuuuuu",
"uuuuuuuuuuuuuuuuuuuuuuuuuuuuuuuuuuuuuuuuuuuuuuuuuuuuuuuuuuuuuuuuuuuuuuuuuuuuuuuu",
"uuuuuuuuuuuuuuuuuuuuuuuuuuuuuuuuuuuuuuuuuuuuuuuuuuuuuuuuuuuuuuuuuuuuuuuuuuuuuuuu",
"uuuuuuuuuuuuuuuuuuuuuuuuuuuuuuuuuuuuuuuuuuuuuuuuuuuuuuuuuuuuuuuuuuuuuuuuuuuuuuuu",
"uuuuuuuuuuuuuuuuuuuuuuuuuuuuuuuuuuuuuuuuuuuuuuuuuuuuuuuuuuuuuuuuuuuuuuuuuuuuuuuu",
"uuuuuuuuuuuuuuuuuuuuuuuuuuuuuuuuuuuuuuuuuuuuuuuuuuuuuuuuuuuuuuuuuuuuuuuuuuuuuuuu",
"uuuuuuuuuuuuuuuuuuuuuuuuuuuuuuuuuuuuuuuuuuuuuuuuuuuuuuuuuuuuuuuuuuuuuuuuuuuuuuuu",
"uuuuuuuuuuuuuuuuuuuuuuuuuuuuuuuuuuuuuuuuuuuuuuuuuuuuuuuuuuuuuuuuuuuuuuuuuuuuuuuu",
"uuuuuuuuuuuuuuuuuuuuuuuuuuuuuuuuuuuuuuuuuuuuuuuuuuuuuuuuuuuuuuuuuuuuuuuuuuuuuuuu",
"uuuuuuuuuuuuuuuuuuuuuuuuuuuuuuuuuuuuuuuuuuuuuuuuuuuuuuuuuuuuuuuuuuuuuuuuuuuuuuuu",
"uuuuuuuuuuuuuuuuuuuuuuuuuuuuuuuuuuuuuuuuuuuuuuuuuuuuuuuuuuuuuuuuuuuuuuuuuuuuuuuu",
"uuuuuuuuuuuuuuuuuuuuuuuuuuuuuuuuuuuuuuuuuuuuuuuuuuuuuuuuuuuuuuuuuuuuuuuuuuuuuuuu",
"uuuuuuuuuuuuuuuuuuuuuuuuuuuuuuuuuuuuuuuuuuuuuuuuuuuuuuuuuuuuuuuuuuuuuuuuuuuuuuuu",
"uuuuuuuuuuuuuuuuuuuuuuuuuuuuuuuuuuuuuuuuuuuuuuuuuuuuuuuuuuuuuuuuuuuuuuuuuuuuuuuu",
"uuuuuuuuuuuuuuuuuuuuuuuuuuuuuuuuuuuuuuuuuu  uuuuuuuuuuuuuuuuuuuuuuuuuuuuuuuuuuuu",
"uuuuuuuuuuuuuuuuuuuuuuuuuuuuuuuuuuuuuuuuuu   uuuuuuuuuuuuuuuuuuuuuuuuuuuuuuuuuuu",
"uuuuuuuuuuuuuuuuuuuuuuuuuuuuuuuuuuuuuuuuuu   uuuuuuuuuuuuuuuuuuuuuuuuuuuuuuuuuuu",
"uuuuuuuuuuuuuuuuuuuuuuuuuuuuuuuuuuuuuuuuuu   uuuuuuuuuuuuuuuuuuuuuuuuuuuuuuuuuuu",
"uuuuuuuuuuuuuuuuuuuuuuuuuuuuuuuuuuuuuuuuuu   uuuuuuuuuuuuuuuuuuuuuuuuuuuuuuuuuuu",
"uuuuuuuuuuuuuuuuuuuuuuuuuuuuuuuuuuuuuuuuuu   uuuuuuuuuuuuuuuuuuuuuuuuuuuuuuuuuuu",
"uuuuuuuuuuuuuuuuuuuuuuuuuuuuuuuuuuuuuuuuuu...uuuuuuuuuuuuuuuuuuuuuuuuuuuuuuuuuuu",
"uuuuuuuuuuuuuuuuuuuuuuuuuuuuuuuu   uuuuuuu@@O   uuuuuuuuuuuuuuuuuuuuuuuuuuuuuuuu",
"uuuuuuuuuuuuuuuuuuuuuuuuuuuuuuuu   uuuuuuu@@O   uuuuuuuuuuuuuuuuuuuuuuuuuuuuuuuu",
"uuuuuuuuuuuuuuuuuuuuuuuuuuuuuuuu   uuuuuuu@@O   uuuuuuuuuuuuuuuuuuuuuuuuuuuuuuuu",
"uuuuuuuuuuuuuuuuuuuuuuuuuuuuuuuu@@@uuu@@@@@@O   uuuuuuuuuuuuuuuuuuuuuuuuuuuuuuuu",
"uuuuuuuuuuuuuuuuuuuuuuuuuuuuuuuu@@@uuu@@@@@@O   uuuuuuuuuuuuuuuuuuuuuuuuuuuuuuuu",
"uuuuuuuuuuuuuuuuuuuuuuuuuuuuuuuu@@@uuu@@@@@@O   uuuuuuuuuuuuuuuuuuuuuuuuuuuuuuuu",
"uuuuuuuuuuuuuuuuuuu   uuuuuuu@@@@@@uuu@@@@@@+ooouuuuuuu  uuuuuuuuuuuuuuuuuuuuuuu",
"uuuuuuuuuuuuuuuuuuu   uuuuuuu@@@@@@uuu@@@@@@@@@@uuuuuu    uuuuuuuuuuuuuuuuuuuuuu",
"uuuuuuuuuuuuuuuuuuu   uuuuuuu@@@@@@uuu@@@@@@@@@@uuuuuu    uuuuuuuuuuuuuuuuuuuuuu",
"uuuuuuuuuuuuuuuuuuuXXXuuuuuuu@@@@@@uuu@@@@@@@@@@@@@uuuuuuuuuuuuuuuuuuuuuuuuuuuuu",
"uuuuuuuuuuuuuuuuuuu@@@uuuuuuu@@@@@@uuu@@@@@@@@@@@@@uuuuuuuuuuuuuuuuuuuuuuuuuuuuu",
"uuuuuuuuuuuuuuuuuuu@@@uuuuuuu@@@@@@uuu@@@@@@@@@@@@@uuuuuuuuuuuuuuuuuuuuuuuuuuuuu",
"uuuuuuuuuuuuuuuuuuu@@@uuuuuuu@@@@@@uuu@@@@@@@@@@@@@uuuuuuuuuuuuuuuuuuuuuuuuuuuuu",
"uuuuuuuuuuuuuuuuuuuuuuuuuu@@@@@@@@@@@@@@@@@@@@@@@@@uuu@@@@uuuuuuuuuuuuuuuuuuuuuu",
"uuuuuuuuuuuuuuuuuuuuuuuuuu@@@@@@@@@@@@@@@@@@@@@@@@@uuu@@@@uuuuuuuuuuuuuuuuuuuuuu",
"uuuuuuuuuuuuuuuuuuuuuuuuuu@@@@@@@@@@@@@@@%==*@@@@@@uuu@@@@uuuuuuuuuuuuuuuuuuuuuu",
"uuuuuuuuuuuuuuuuuuuuuuuuuu@@@@@@@@@@@@@@@>553@@@@@@uuu@@@@uuuuuuuuuuuuuuuuuuuuuu",
"uuuuuuuuuuuuuuuuuuuuuuuuuu@@@@@@@@@@@@@@@>553@@@@@@uuu@@@@uuuuuuuuuuuuuuuuuuuuuu",
"uuuuuuuuuuuuuuuuuuuuuuuuuu@@@@@@@@@@@@@@@>553@@@@@@uuu@@@@uuuuuuuuuuuuuuuuuuuuuu",
"uuuuuuuuuuuuuuuuuuu@@@uuuu@@@@@@@@@@@@,334553@@@@@@@@@@@@@@@@uuuuuuuuuuuuuuuuuuu",
"uuuuuuuuuuuuuuuuuuu@@@uuuu@@@@@@@@@@@@;555553@@@@@@@@@@@@@@@@uuuuuuuuuuuuuuuuuuu",
"uuuuuuuuuuuuuuuuuuu@@@uuuu@@@@@@@@@@@@;555553@@@@@@@@@@@@@@@@uuuuuuuuuuuuuuuuuuu",
"uuuuuuuuuuuuuuuuuuu@@@@@@@@@@@@@111&@@;555553@@@@@@@@@@@@@@@@uuuuuuuuuuuuuuuuuuu",
"uuuuuuuuuuuuuuuuuuu@@@@@@@@@@@@@555=@@;555553@@@@@@@@@@@@@@@@uuuuuuuuuuuuuuuuuuu",
"uuuuuuuuuuuuuuuuuuu@@@@@@@@@@@@@555=@@;555553@@@@@@@@@@@@@@@@uuuuuuuuuuuuuuuuuuu",
"uuuuuuuuuuuuuuuuuuu@@@@@@@@@%>>>555<>>2555554>>>@@@@@@@@@@@@@uuuuuuuuuuuuuuuuuuu",
"uuuuuuuuuuuuuuuuuuu@@@@@@@@@=5555555555555555555@@@@@@@@@@@@@uuuuuuuuuuuuuuuuuuu",
"uuuuuuuuuuuuuuuuuuu@@@@@@@@@=5555555555555555555@@@@@@@@@@@@@uuuuuuuuuuuuuuuuuuu",
"uuuuuuuuuuuuuuuuuuu@@@@@@@@@=5555555555556887555---$@@@@@@@@@uuuuuuuuuuuuuuuuuuu",
"uuuuuuuuuuuuuuuuuuu@@@@@@@@@=5555555555559yye555555=@@@@@@@@@uuuuuuuuuuuuuuuuuuu",
"uuuuuuuuuuuuuuuuuuu@@@@@@@@@=5555555555559yye555555=@@@@@@@@@uuuuuuuuuuuuuuuuuuu",
"uuuuuuuuuuuuuuuuuuu@@@@@@@@@=5555555555559yye555555=@@@@@@@@@uuuuuuuuuuuuuuuuuuu",
"uuuuuuuuuuuuuuuuuuuuuu@@@@@@=5555555550yyyyye555555555>@@@@@@uuuuuuuuuuuuuuuuuuu",
"uuuuuuuuuuuuuuuuuuuuuu@@@@@@=5555555550yyyyye555555555>@@@@@@uuuuuuuuuuuuuuuuuuu",
"uuuuuuuuuuuuuuuuuuuuuu@@@@@@=5555555550yyyyye555555555>@@@@@@uuuuuuuuuuuuuuuuuuu",
"uuuuuuuuuuuuuuuuuuuuuuuuu@@@#===555weeryyyyyteee555555>@@@@@@uuuuuuuuuuuuuuuuuuu",
"uuuuuuuuuuuuuuuuuuuuuuuuuu@@@@@@555eyyyyyyyyyyyy555555>@@@@@@uuuuuuuuuuuuuuuuuuu",
"uuuuuuuuuuuuuuuuuuuuuuuuuu@@@@@@555eyyyyyyyyyyyy555555>@@@@@@uuuuuuuuuuuuuuuuuuu",
"uuuuuuuuuuuuuuuuuuuuuuuuuu@@@@@@555788qyyyyyyyyy555:--*@@@uuuuuuuuuuuuuuuuuuuuuu",
"uuuuuuuuuuuuuuuuuuuuuuuuuu@@@@@@5555550yyyyyyyyy555=@@@@@@uuuuuuuuuuuuuuuuuuuuuu",
"uuuuuuuuuuuuuuuuuuuuuuuuuu@@@@@@5555550yyyyyyyyy555=@@@@@@uuuuuuuuuuuuuuuuuuuuuu",
"uuuuuuuuuuuuuuuuuuuuuuuuuu@@@@@@5555550yyyyyyyyy555=@@@@@uuuuuuuuuuuuuuuuuuuuuuu",
"uuuuuuuuuuuuuuuuuuuuuuuuuuuuuuuuuuuuuuuuuuuuuuuuuuuuuuuuuuuuuuuuuuuuuuuuuuuuuuuu",
"uuuuuuuuuuuuuuuuuuuuuuuuuuuuuuuuuuuuuuuuuuuuuuuuuuuuuuuuuuuuuuuuuuuuuuuuuuuuuuuu",
"uuuuuuuuuuuuuuuuuuuuuuuuuuuuuuuuuuuuuuuuuuuuuuuuuuuuuuuuuuuuuuuuuuuuuuuuuuuuuuuu",
"uuuuuuuuuuuuuuuuuuuuuuuuuuuuuuuuuuuuuuuuuuuuuuuuuuuuuuuuuuuuuuuuuuuuuuuuuuuuuuuu",
"uuuuuuuuuuuuuuuuuuuuuuuuuuuuuuuuuuuuuuuuuuuuuuuuuuuuuuuuuuuuuuuuuuuuuuuuuuuuuuuu",
"uuuuuuuuuuuuuuuuuuuuuuuuuuuuuuuuuuuuuuuuuuuuuuuuuuuuuuuuuuuuuuuuuuuuuuuuuuuuuuuu",
"uuuuuuuuuuuuuuuuuuuuuuuuuuuuuuuuuuuuuuuuuuuuuuuuuuuuuuuuuuuuuuuuuuuuuuuuuuuuuuuu",
"uuuuuuuuuuuuuuuuuuuuuuuuuuuuuuuuuuuuuuuuuuuuuuuuuuuuuuuuuuuuuuuuuuuuuuuuuuuuuuuu",
"uuuuuuuuuuuuuuuuuuuuuuuuuuuuuuuuuuuuuuuuuuuuuuuuuuuuuuuuuuuuuuuuuuuuuuuuuuuuuuuu",
"uuuuuuuuuuuuuuuuuuuuuuuuuuuuuuuuuuuuuuuuuuuuuuuuuuuuuuuuuuuuuuuuuuuuuuuuuuuuuuuu",
"uuuuuuuuuuuuuuuuuuuuuuuuuuuuuuuuuuuuuuuuuuuuuuuuuuuuuuuuuuuuuuuuuuuuuuuuuuuuuuuu",
"uuuuuuuuuuuuuuuuuuuuuuuuuuuuuuuuuuuuuuuuuuuuuuuuuuuuuuuuuuuuuuuuuuuuuuuuuuuuuuuu",
"uuuuuuuuuuuuuuuuuuuuuuuuuuuuuuuuuuuuuuuuuuuuuuuuuuuuuuuuuuuuuuuuuuuuuuuuuuuuuuuu",
"uuuuuuuuuuuuuuuuuuuuuuuuuuuuuuuuuuuuuuuuuuuuuuuuuuuuuuuuuuuuuuuuuuuuuuuuuuuuuuuu"
};
