/* XPM */
static char *result[] = {
/* columns rows colors chars-per-pixel */
"80 85 154 2 ",
"   c #000000",
".  c #0B0705",
"X  c #030B06",
"o  c #0F0906",
"O  c #080708",
"+  c #0A0A0A",
"@  c #120B06",
"#  c #170F08",
"$  c #05130A",
"%  c #071A0C",
"&  c #1D120A",
"*  c #121212",
"=  c #191919",
"-  c #23150A",
";  c #2A1A0D",
":  c #26190D",
">  c #331F0F",
",  c #211B19",
"<  c #311F11",
"1  c #0A2410",
"2  c #0A2913",
"3  c #1B241B",
"4  c #16281C",
"5  c #0E3619",
"6  c #0A3A1B",
"7  c #34200F",
"8  c #2D241D",
"9  c #352111",
"0  c #3D2612",
"q  c #3E2811",
"w  c #323A1B",
"e  c #1A3221",
"r  c #232323",
"t  c gray16",
"y  c #222A23",
"u  c #342E2B",
"i  c #2F312F",
"p  c #38392D",
"a  c #303E30",
"s  c #402713",
"d  c #422913",
"f  c #4B2E16",
"g  c #412C19",
"h  c #4B331C",
"j  c #523216",
"k  c #5A3615",
"l  c #5D3916",
"z  c #53351A",
"x  c #593619",
"c  c #573B1E",
"v  c #5D3919",
"b  c #623B16",
"n  c #633C19",
"m  c #5A3E21",
"M  c #403C31",
"N  c #0C4E25",
"B  c #0E5628",
"V  c #0E5B2A",
"C  c #0D5125",
"Z  c #175A28",
"A  c #2F4230",
"S  c #344235",
"D  c #3D523C",
"F  c #0E672F",
"G  c #0E682F",
"H  c #18642E",
"J  c #16652E",
"K  c #0F6730",
"L  c #0F6830",
"P  c #116C32",
"I  c #147435",
"U  c #1C7133",
"Y  c #157936",
"T  c #177B38",
"R  c #7C4C1E",
"E  c #4B4123",
"W  c #5F4123",
"Q  c #52452F",
"!  c #404F3E",
"~  c #514738",
"^  c #654322",
"/  c #6B4623",
"(  c #684927",
")  c #784D21",
"_  c #714E28",
"`  c #724E27",
"'  c #795029",
"]  c #735D3E",
"[  c #377546",
"{  c #475F46",
"}  c #495D47",
"|  c #466447",
" . c #736247",
".. c #726955",
"X. c #845323",
"o. c #8B5622",
"O. c #84572A",
"+. c #855B2F",
"@. c #905A24",
"#. c #8A5C32",
"$. c #9E662D",
"%. c #996835",
"&. c #966530",
"*. c #A56B31",
"=. c #AB7134",
"-. c #B17537",
";. c #B37638",
":. c #B57A3B",
">. c #BC7F3D",
",. c #896F4A",
"<. c #89704A",
"1. c #877452",
"2. c #877D65",
"3. c #887C65",
"4. c #1B853C",
"5. c #1D8A3E",
"6. c #1F8E40",
"7. c #208240",
"8. c #229643",
"9. c #239844",
"0. c #38A254",
"q. c #6D926A",
"w. c #4FAE68",
"e. c #4EAD67",
"r. c #50AE68",
"t. c #6DB074",
"y. c #74C27D",
"u. c #BC803E",
"i. c #C68742",
"p. c #C68843",
"a. c #C98A46",
"s. c #C98C4A",
"d. c #D19651",
"f. c #D59B56",
"g. c #D69D59",
"h. c #DBA35E",
"j. c #DFAC6A",
"k. c #E2AE68",
"l. c #E2AD67",
"z. c #E6B36D",
"x. c #F2C37D",
"c. c #89B786",
"v. c #8AB886",
"b. c #E5BF88",
"n. c #9DD69A",
"m. c #9FD89B",
"M. c #A2DA9D",
"N. c #E5C089",
"B. c #F1CC8F",
"V. c #E4C491",
"C. c #EFDAAD",
"Z. c #F0D4A2",
"A. c #F0DAAD",
"S. c None",
/* pixels */
"S.S.S.S.S.S.S.S.S.S.S.S.S.S.S.S.S.S.S.S.S.S.S.S.S.S.S.S.S.S.S.S.S.S.S.S.S.S.S.S.S.S.S.S.S.S.S.S.S.S.S.S.S.S.S.S.S.S.S.S.S.S.S.S.S.S.S.S.S.S.S.S.S.S.S.S.S.S.S.S.",
"S.S.S.S.S.S.S.S.S.S.S.S.S.S.S.S.S.S.S.S.S.S.S.S.S.S.S.S.S.S.S.S.S.S.S.S.S.S.S.S.S.S.S.S.S.S.S.S.S.S.S.S.S.S.S.S.S.S.S.S.S.S.S.S.S.S.S.S.S.S.S.S.S.S.S.S.S.S.S.S.",
"S.S.S.S.S.S.S.S.S.S.S.S.S.S.S.S.S.S.S.S.S.S.S.S.S.S.S.S.S.S.S.S.S.S.S.S.S.S.S.S.S.S.S.S.S.S.S.S.S.S.S.S.S.S.S.S.S.S.S.S.S.S.S.S.S.S.S.S.S.S.S.S.S.S.S.S.S.S.S.S.",
"S.S.S.S.S.S.S.S.S.S.S.S.S.S.S.S.S.S.S.S.S.S.S.S.S.S.S.S.S.S.S.S.S.S.S.S.S.S.S.S.S.S.S.S.S.S.S.S.S.S.S.S.S.S.S.S.S.S.S.S.S.S.S.S.S.S.S.S.S.S.S.S.S.S.S.S.S.S.S.S.",
"S.S.S.S.S.S.S.S.S.S.S.S.S.S.S.S.S.S.S.S.S.S.S.S.S.S.S.S.S.S.S.S.S.S.S.S.S.S.S.S.S.S.S.S.S.S.S.S.S.S.S.S.S.S.S.S.S.S.S.S.S.S.S.S.S.S.S.S.S.S.S.S.S.S.S.S.S.S.S.S.",
"S.S.S.S.S.S.S.S.S.S.S.S.S.S.S.S.S.S.S.S.S.S.S.S.S.S.S.S.S.S.S.S.S.S.S.S.S.S.S.S.S.S.S.S.S.S.S.S.S.S.S.S.S.S.S.S.S.S.S.S.S.S.S.S.S.S.S.S.S.S.S.S.S.S.S.S.S.S.S.S.",
"S.S.S.S.S.S.S.S.S.S.S.S.S.S.S.S.S.S.S.S.S.S.S.S.S.* * * * * * * * * * * S.S.S.S.* * * r S.S.S.S.S.S.S.S.S.S.S.S.S.S.S.S.S.S.S.S.S.S.S.S.S.S.S.S.S.S.S.S.S.S.S.S.",
"S.S.S.S.S.S.S.S.S.S.S.S.S.S.S.S.S.S.S.S.S.S.S.S.S.                      S.S.S.S.O     * S.S.S.S.S.S.S.S.S.S.S.S.S.S.S.S.S.S.S.S.S.S.S.S.S.S.S.S.S.S.S.S.S.S.S.S.",
"S.S.S.S.S.S.S.S.S.S.S.S.S.S.S.S.S.S.S.S.S.S.S.S.S.                      S.S.S.S.O     * S.S.S.S.S.S.S.S.S.S.S.S.S.S.S.S.S.S.S.S.S.S.S.S.S.S.S.S.S.S.S.S.S.S.S.S.",
"S.S.S.S.S.S.S.S.S.S.S.S.S.S.S.S.S.S.S.S.S.S.S.S.S.X O X O X O X O X   X S.S.S.S.      * S.S.S.S.S.S.S.S.S.S.S.S.S.S.S.S.S.S.S.S.S.S.S.S.S.S.S.S.S.S.S.S.S.S.S.S.",
"S.S.S.S.S.S.S.S.S.S.S.S.S.S.S.S.S.S.S.S.S.* * * ! q.q.q.q.q.q.q.[ H H H e * * *       * S.S.S.S.* * * * * * * S.S.S.S.S.S.S.S.S.S.S.S.S.S.S.S.S.S.S.S.S.S.S.S.S.",
"S.S.S.S.S.S.S.S.S.S.S.S.S.S.S.S.S.S.S.S.S.      D M.M.M.M.M.M.M.w.8.8.8.2             * S.S.S.S.              t S.S.S.S.S.S.S.S.S.S.S.S.S.S.S.S.S.S.S.S.S.S.S.S.",
"S.S.S.S.S.S.S.S.S.S.S.S.S.S.S.S.S.S.S.S.S.      D M.M.M.M.M.M.M.w.8.8.8.2             * S.S.S.S.              t S.S.S.S.S.S.S.S.S.S.S.S.S.S.S.S.S.S.S.S.S.S.S.S.",
"S.S.S.S.S.S.S.S.S.S.S.S.S.S.S.S.S.S.S.S.S.X O O D M.M.n.m.m.m.m.e.8.8.8.2             * S.S.S.S.O X X O X O O i S.S.S.S.S.S.S.S.S.S.S.S.S.S.S.S.S.S.S.S.S.S.S.S.",
"S.S.S.S.S.S.S.S.S.S.S.S.S.S.S.S.S.+ O O y v.c.c.t.0.0.0.0.0.0.0.T I P P V V B B X     O O O O A c.c.c.c.c.c.v.} O O O S.S.S.S.S.S.S.S.S.S.S.S.S.S.S.S.S.S.S.S.S.",
"S.S.S.S.S.S.S.S.S.S.S.S.S.S.S.S.S.O     3 M.M.M.y.8.8.8.8.8.8.8.T K K K L L K V $             a M.M.M.M.M.M.M.{       S.S.S.S.S.S.S.S.S.S.S.S.S.S.S.S.S.S.S.S.S.",
"S.S.S.S.S.S.S.S.S.S.S.S.S.S.S.S.S.O     3 M.M.M.y.8.8.8.8.8.8.8.Y K F K F F K F X             a M.M.M.M.M.M.M.{       S.S.S.S.S.S.S.S.S.S.S.S.S.S.S.S.S.S.S.S.S.",
"S.S.S.S.S.S.S.S.S.S.S.S.S.S.S.S.S.O     3 n.n.n.y.8.8.8.8.8.8.8.Y F G K V F F V X       X X   A n.n.n.n.n.n.n.| O X O S.S.S.S.S.S.S.S.S.S.S.S.S.S.S.S.S.S.S.S.S.",
"S.S.S.S.S.S.S.S.S.S.S.S.S.S.S.S.S.O     % 9.8.8.8.8.8.8.Y G G G K K K K %             $ K P F I 8.8.8.8.8.8.8.9.9.8.9.1     + S.S.S.S.S.S.S.S.S.S.S.S.S.S.S.S.S.",
"S.S.S.S.S.S.S.S.S.S.S.S.S.S.S.S.S.O     $ 9.8.8.8.8.8.9.Y G G G F F L L %             $ F F F I 8.8.8.8.8.8.8.8.8.8.8.1     * S.S.S.S.S.S.S.S.S.S.S.S.S.S.S.S.S.",
"S.S.S.S.S.S.S.S.S.S.S.S.S.S.S.S.S.O     % 8.8.8.9.8.8.8.T F F F F L K G %             $ K F F I 8.8.8.8.8.8.8.8.8.8.8.1     + S.S.S.S.S.S.S.S.S.S.S.S.S.S.S.S.S.",
"S.S.S.S.S.S.S.S.S.S.S.S.S.S.S.S.S.o     % 8.8.8.6.5.5.5.Y G F F B N N N 4 * * *       $ L F F I 5.4.5.5.8.8.8.8.8.8.8.1     + S.S.S.S.S.S.S.S.S.S.S.S.S.S.S.S.S.",
"S.S.S.S.S.S.S.S.S.S.S.S.S.S.S.S.S.O     % 9.8.8.5.F F F F F F F 2       S.S.S.S.O     $ K F F F F F F Y 8.8.8.8.8.8.8.1     + S.S.S.S.S.S.S.S.S.S.S.S.S.S.S.S.S.",
"S.S.S.S.S.S.S.S.S.S.S.S.S.S.S.S.S.O     % 8.8.8.4.F F F F K F F 2       S.S.S.S.      $ K K F K F F F Y 9.8.8.8.8.8.8.1   O + S.S.S.S.S.S.S.S.S.S.S.S.S.S.S.S.S.",
"S.S.S.S.S.S.S.S.S.S.S.S.S.S.S.S.S.O     % 8.8.9.4.L L G G G G G 2       S.S.S.S.X     $ L G L L F F F Y 8.9.8.8.8.9.8.1     + S.S.S.S.S.S.S.S.S.S.S.S.S.S.S.S.S.",
"S.S.S.S.S.S.S.S.S.S.S.S.S.S.S.S.S.O     $ U U U H N N N N N N N %       r S.S.S.O     X N N N B F F F Y 5.5.5.5.8.8.8.1     + S.S.S.S.S.S.S.S.S.S.S.S.S.S.S.S.S.",
"S.S.S.S.S.S.S.S.S.S.S.S.S.S.S.S.S.O                                                           % F F G K F G F 4.8.8.8.1     + S.S.S.S.S.S.S.S.S.S.S.S.S.S.S.S.S.",
"S.S.S.S.S.S.S.S.S.S.S.S.S.S.S.S.S.O                                                           % F F F F F F F 4.8.8.8.1     * S.S.S.S.S.S.S.S.S.S.S.S.S.S.S.S.S.",
"S.S.S.S.S.S.S.S.S.S.S.S.S.S.S.S.S.O                                                           % K F F F F F F 4.8.8.8.1     + S.S.S.S.S.S.S.S.S.S.S.S.S.S.S.S.S.",
"S.S.S.S.S.S.S.S.S.S.S.S.S.S.S.S.S.O     O = = = *       M ...... .] ] ] ( W W m : - & ; W W W E 6 6 6 6 6 6 6 U 8.8.8.1     + S.S.S.S.S.S.S.S.S.S.S.S.S.S.S.S.S.",
"S.S.S.S.S.S.S.S.S.S.S.S.S.S.S.S.S.O     + S.S.S.S.      3.C.C.C.B.x.x.x.d.i.p.>.h s s z p.p.i.%.              Z 8.8.8.1     + S.S.S.S.S.S.S.S.S.S.S.S.S.S.S.S.S.",
"S.S.S.S.S.S.S.S.S.S.S.S.S.S.S.S.S.O     * S.S.S.S.      2.C.C.C.B.x.x.x.d.i.p.u.z s s x p.i.i.%.              Z 8.8.8.1   O + S.S.S.S.S.S.S.S.S.S.S.S.S.S.S.S.S.",
"S.S.S.S.S.S.S.S.S.S.S.S.S.S.S.S.S.O     + S.S.S.S.      2.A.A.A.B.x.x.x.d.i.i.u.j s s x i.i.i.%.              Z 8.8.9.1     + S.S.S.S.S.S.S.S.S.S.S.S.S.S.S.S.S.",
"S.S.S.S.S.S.S.S.S.S.S.S.S.S.S.S.S.S.S.S.S.S.S.S.S.      1.B.B.B.j.f.f.f.&.X.X.X.k j j k X.X.X.O.#.#.#.' n b n w 5 5 5 S S.S.S.S.S.S.S.S.S.S.S.S.S.S.S.S.S.S.S.S.",
"S.S.S.S.S.S.S.S.S.S.S.S.S.S.S.S.S.S.S.S.S.S.S.S.S.      <.x.x.x.g.i.i.i.R b l l b b b b b b b ) p.p.p.-.o.o.o.0       S.S.S.S.S.S.S.S.S.S.S.S.S.S.S.S.S.S.S.S.S.",
"S.S.S.S.S.S.S.S.S.S.S.S.S.S.S.S.S.S.S.S.S.S.S.S.S.      <.x.x.x.g.i.i.i.) l b b b b k l b b k R i.p.p.=.o.o.o.q       S.S.S.S.S.S.S.S.S.S.S.S.S.S.S.S.S.S.S.S.S.",
"S.S.S.S.S.S.S.S.S.S.S.S.S.S.S.S.S.S.S.S.S.S.S.S.S.      <.x.x.x.g.i.i.i.R l l l b b b b l b b R i.i.p.-.o.o.o.q       S.S.S.S.S.S.S.S.S.S.S.S.S.S.S.S.S.S.S.S.S.",
"S.S.S.S.S.S.S.S.S.S.S.S.S.S.S.S.S.S.S.S.S.S.S.S.S.S.S.S.~ Q Q Q +.$.$.$.X.R R R j f f j R R R o.$.$.$.) 7 7 > p S.S.S.S.S.S.S.S.S.S.S.S.S.S.S.S.S.S.S.S.S.S.S.S.",
"S.S.S.S.S.S.S.S.S.S.S.S.S.S.S.S.S.S.S.S.S.S.S.S.S.S.S.S.*       l o.o.o.o.o.o.X.f s s f o.o.o.o.o.o.o.l       t S.S.S.S.S.S.S.S.S.S.S.S.S.S.S.S.S.S.S.S.S.S.S.S.",
"S.S.S.S.S.S.S.S.S.S.S.S.S.S.S.S.S.S.S.S.S.S.S.S.S.S.S.S.*       l o.o.o.o.o.o.X.f s s j o.o.o.o.o.o.o.l       t S.S.S.S.S.S.S.S.S.S.S.S.S.S.S.S.S.S.S.S.S.S.S.S.",
"S.S.S.S.S.S.S.S.S.S.S.S.S.S.S.S.S.S.S.S.S.S.S.S.S.S.S.S.*       x o.o.o.o.o.o.o.f s s j o.o.o.o.o.o.o.x       t S.S.S.S.S.S.S.S.S.S.S.S.S.S.S.S.S.S.S.S.S.S.S.S.",
"S.S.S.S.S.S.S.S.S.S.S.S.S.S.S.S.S.S.S.S.S.S.S.S.S.S.S.S.*     O 7 f f f b b b n k k k k b b b b f f f <       t S.S.S.S.S.S.S.S.S.S.S.S.S.S.S.S.S.S.S.S.S.S.S.S.",
"S.S.S.S.S.S.S.S.S.S.S.S.S.S.S.S.S.S.S.S.S.S.S.S.S.S.S.S.*       ; s s s k b b b l b b b b l b l 0 s s ;       t S.S.S.S.S.S.S.S.S.S.S.S.S.S.S.S.S.S.S.S.S.S.S.S.",
"S.S.S.S.S.S.S.S.S.S.S.S.S.S.S.S.S.S.S.S.S.S.S.S.S.S.S.S.*       ; s s s k b b b b b b b l b b b s s s ;       t S.S.S.S.S.S.S.S.S.S.S.S.S.S.S.S.S.S.S.S.S.S.S.S.",
"S.S.S.S.S.S.S.S.S.S.S.S.S.S.S.S.S.S.S.S.S.S.S.S.S.S.S.S., o o o 9 f f f v n n n b b n n n n b b f f f < o o O u S.S.S.S.S.S.S.S.S.S.S.S.S.S.S.S.S.S.S.S.S.S.S.S.",
"S.S.S.S.S.S.S.S.S.S.S.S.S.S.S.S.S.S.S.S.S.S.S.S.S.      f o.o.o.;.p.p.p.p.p.i.p.i.i.p.p.a.a.i.a.a.p.p.-.o.o.o.q       S.S.S.S.S.S.S.S.S.S.S.S.S.S.S.S.S.S.S.S.S.",
"S.S.S.S.S.S.S.S.S.S.S.S.S.S.S.S.S.S.S.S.S.S.S.S.S.      z o.o.o.;.i.i.i.p.p.p.p.i.i.p.i.i.i.i.i.i.i.p.-.o.o.o.q       S.S.S.S.S.S.S.S.S.S.S.S.S.S.S.S.S.S.S.S.S.",
"S.S.S.S.S.S.S.S.S.S.S.S.S.S.S.S.S.S.S.S.S.S.S.S.S.      j o.o.o.;.p.i.i.p.i.i.i.i.i.i.i.i.i.i.i.i.i.i.-.o.o.o.q       S.S.S.S.S.S.S.S.S.S.S.S.S.S.S.S.S.S.S.S.S.",
"S.S.S.S.S.S.S.S.S.S.S.S.S.S.S.S.S.S.S.S.S.S.S.S.S.      j @.@.@.:.s.a.a.s.s.s.a.s.s.s.a.s.s.s.a.s.a.s.>.@.@.@.d       S.S.S.S.S.S.S.S.S.S.S.S.S.S.S.S.S.S.S.S.S.",
"S.S.S.S.S.S.S.S.S.S.S.S.S.S.S.S.S.S.S.S.S.S.S.S.S.      _ i.i.i.k.x.x.x.Z.C.C.C.C.C.C.C.C.C.C.Z.z.B.x.l.i.i.i.c       S.S.S.S.S.S.S.S.S.S.S.S.S.S.S.S.S.S.S.S.S.",
"S.S.S.S.S.S.S.S.S.S.S.S.S.S.S.S.S.S.S.S.S.S.S.S.S.      ` i.i.p.k.x.x.x.Z.C.C.C.C.C.C.C.C.C.C.Z.x.x.x.l.i.i.p.c       S.S.S.S.S.S.S.S.S.S.S.S.S.S.S.S.S.S.S.S.S.",
"S.S.S.S.S.S.S.S.S.S.S.S.S.S.S.S.S.S.S.S.S.S.S.S.S.      _ i.i.i.k.x.x.x.Z.C.C.C.C.C.C.C.C.C.C.Z.x.x.x.l.i.p.p.c       S.S.S.S.S.S.S.S.S.S.S.S.S.S.S.S.S.S.S.S.S.",
"S.S.S.S.S.S.S.S.S.S.S.S.S.S.S.S.S.S.S.S.S.S.S.S.8 ; ; ; O.i.i.i.h.z.z.z.N.V.V.V.V.V.V.V.N.V.V.b.z.z.z.h.i.i.i./ ; : : u S.S.S.S.S.S.S.S.S.S.S.S.S.S.S.S.S.S.S.S.",
"S.S.S.S.S.S.S.S.S.S.S.S.S.S.S.S.S.S.S.S.S.      > o.o.o.=.i.i.i.p.p.i.i.i.i.i.i.p.p.i.p.i.i.i.i.i.i.i.i.i.i.i.*.o.o.o.-     + S.S.S.S.S.S.S.S.S.S.S.S.S.S.S.S.S.",
"S.S.S.S.S.S.S.S.S.S.S.S.S.S.S.S.S.S.S.S.S.      > o.o.o.=.i.i.i.i.i.i.i.i.i.i.i.i.i.i.i.i.i.i.i.i.i.i.i.i.i.i.*.o.o.o.-     + S.S.S.S.S.S.S.S.S.S.S.S.S.S.S.S.S.",
"S.S.S.S.S.S.S.S.S.S.S.S.S.S.S.S.S.S.S.S.S.      > o.o.o.=.i.i.i.i.i.i.i.i.i.i.i.i.i.i.i.i.i.i.i.i.i.i.i.i.i.i.*.o.o.o.-   O + S.S.S.S.S.S.S.S.S.S.S.S.S.S.S.S.S.",
"S.S.S.S.S.S.S.S.S.S.S.S.S.S.S.S.S.S.S.S.S.      7 o.o.o.=.i.i.i.i.i.i.i.i.i.i.i.i.i.i.i.i.i.i.i.i.i.i.i.i.i.i.*.o.o.o.-     + S.S.S.S.S.S.S.S.S.S.S.S.S.S.S.S.S.",
"S.S.S.S.S.S.S.S.S.S.S.S.S.S.S.S.S.S.S.S.S.      7 o.o.o.=.i.i.i.i.i.i.i.i.i.i.i.i.i.i.i.i.i.i.i.i.i.i.i.i.i.i.*.o.o.o.-     + S.S.S.S.S.S.S.S.S.S.S.S.S.S.S.S.S.",
"S.S.S.S.S.S.S.S.S.S.S.S.S.S.S.S.S.S.S.S.S.      7 o.o.o.=.i.i.i.i.i.i.i.i.i.i.i.i.i.i.i.i.i.i.i.i.i.i.i.i.i.i.*.o.o.o.-     + S.S.S.S.S.S.S.S.S.S.S.S.S.S.S.S.S.",
"S.S.S.S.S.S.S.S.S.S.S.S.S.S.S.S.S.S.S.S.S.      7 o.o.o.=.i.i.i.i.i.i.i.i.i.i.i.i.i.i.i.i.i.i.i.i.i.i.i.i.i.i.$.o.o.o.-   O + S.S.S.S.S.S.S.S.S.S.S.S.S.S.S.S.S.",
"S.S.S.S.S.S.S.S.S.S.S.S.S.S.S.S.S.S.S.S.S.      7 o.o.o.$.=.=.=.u.i.i.i.i.i.i.i.i.i.i.i.i.i.i.i.i.i.i.>.=.=.=.$.o.o.o.-     + S.S.S.S.S.S.S.S.S.S.S.S.S.S.S.S.S.",
"S.S.S.S.S.S.S.S.S.S.S.S.S.S.S.S.S.S.S.S.S.      7 o.o.o.o.o.o.o.-.i.i.i.i.i.i.i.i.i.i.i.i.i.i.i.i.i.i.-.o.o.o.o.o.o.o.-     + S.S.S.S.S.S.S.S.S.S.S.S.S.S.S.S.S.",
"S.S.S.S.S.S.S.S.S.S.S.S.S.S.S.S.S.S.S.S.S.      7 o.o.o.o.o.o.o.-.i.i.i.i.i.i.i.i.i.i.i.i.i.i.i.i.i.i.-.o.o.o.o.o.o.o.-     + S.S.S.S.S.S.S.S.S.S.S.S.S.S.S.S.S.",
"S.S.S.S.S.S.S.S.S.S.S.S.S.S.S.S.S.S.S.S.S.      7 o.o.o.o.o.o.o.-.i.i.i.i.i.i.i.i.i.i.i.i.i.i.i.i.i.i.-.o.o.o.o.o.o.o.-   O + S.S.S.S.S.S.S.S.S.S.S.S.S.S.S.S.S.",
"S.S.S.S.S.S.S.S.S.S.S.S.S.S.S.S.S.S.S.S.S.      - x x x s < ; ; c / / / h g g g ^ / / ^ g g g h / / / z < < ; g x x x #     + S.S.S.S.S.S.S.S.S.S.S.S.S.S.S.S.S.",
"S.S.S.S.S.S.S.S.S.S.S.S.S.S.S.S.S.S.S.S.S.      # 0 s s &       ; s s s @     X 0 s s >       @ s s s ;       : s s s @     + S.S.S.S.S.S.S.S.S.S.S.S.S.S.S.S.S.",
"S.S.S.S.S.S.S.S.S.S.S.S.S.S.S.S.S.S.S.S.S.      # s s s &       ; s s s @     . 0 s s >       @ s s s :       : s s s @     + S.S.S.S.S.S.S.S.S.S.S.S.S.S.S.S.S.",
"S.S.S.S.S.S.S.S.S.S.S.S.S.S.S.S.S.S.S.S.S.      # 0 0 0 &       ; 0 0 s .       > s s >       @ 0 0 0 :       : 0 0 0 @     + S.S.S.S.S.S.S.S.S.S.S.S.S.S.S.S.S.",
"S.S.S.S.S.S.S.S.S.S.S.S.S.S.S.S.S.S.S.S.S.        o . O           . . .         O o O .         . O O .       X O . .       + S.S.S.S.S.S.S.S.S.S.S.S.S.S.S.S.S.",
"S.S.S.S.S.S.S.S.S.S.S.S.S.S.S.S.S.S.S.S.S.                                                                                  * S.S.S.S.S.S.S.S.S.S.S.S.S.S.S.S.S.",
"S.S.S.S.S.S.S.S.S.S.S.S.S.S.S.S.S.S.S.S.S.                      X                                                           + S.S.S.S.S.S.S.S.S.S.S.S.S.S.S.S.S.",
"S.S.S.S.S.S.S.S.S.S.S.S.S.S.S.S.S.S.S.S.S.O O O O O O O O O O O O O O O O O O O O O O O O O O O O O O O O O O O O O O O O O * S.S.S.S.S.S.S.S.S.S.S.S.S.S.S.S.S.",
"S.S.S.S.S.S.S.S.S.S.S.S.S.S.S.S.S.S.S.S.S.S.S.S.S.S.S.S.S.S.S.S.S.S.S.S.S.S.S.S.S.S.S.S.S.S.S.S.S.S.S.S.S.S.S.S.S.S.S.S.S.S.S.S.S.S.S.S.S.S.S.S.S.S.S.S.S.S.S.S.",
"S.S.S.S.S.S.S.S.S.S.S.S.S.S.S.S.S.S.S.S.S.S.S.S.S.S.S.S.S.S.S.S.S.S.S.S.S.S.S.S.S.S.S.S.S.S.S.S.S.S.S.S.S.S.S.S.S.S.S.S.S.S.S.S.S.S.S.S.S.S.S.S.S.S.S.S.S.S.S.S.",
"S.S.S.S.S.S.S.S.S.S.S.S.S.S.S.S.S.S.S.S.S.S.S.S.S.S.S.S.S.S.S.S.S.S.S.S.S.S.S.S.S.S.S.S.S.S.S.S.S.S.S.S.S.S.S.S.S.S.S.S.S.S.S.S.S.S.S.S.S.S.S.S.S.S.S.S.S.S.S.S.",
"S.S.S.S.S.S.S.S.S.S.S.S.S.S.S.S.S.S.S.S.S.S.S.S.S.S.S.S.S.S.S.S.S.S.S.S.S.S.S.S.S.S.S.S.S.S.S.S.S.S.S.S.S.S.S.S.S.S.S.S.S.S.S.S.S.S.S.S.S.S.S.S.S.S.S.S.S.S.S.S.",
"S.S.S.S.S.S.S.S.S.S.S.S.S.S.S.S.S.S.S.S.S.S.S.S.S.S.S.S.S.S.S.S.S.S.S.S.S.S.S.S.S.S.S.S.S.S.S.S.S.S.S.S.S.S.S.S.S.S.S.S.S.S.S.S.S.S.S.S.S.S.S.S.S.S.S.S.S.S.S.S.",
"S.S.S.S.S.S.S.S.S.S.S.S.S.S.S.S.S.S.S.S.S.S.S.S.S.S.S.S.S.S.S.S.S.S.S.S.S.S.S.S.S.S.S.S.S.S.S.S.S.S.S.S.S.S.S.S.S.S.S.S.S.S.S.S.S.S.S.S.S.S.S.S.S.S.S.S.S.S.S.S.",
"S.S.S.S.S.S.S.S.S.S.S.S.S.S.S.S.S.S.S.S.S.S.S.S.S.S.S.S.S.S.S.S.S.S.S.S.S.S.S.S.S.S.S.S.S.S.S.S.S.S.S.S.S.S.S.S.S.S.S.S.S.S.S.S.S.S.S.S.S.S.S.S.S.S.S.S.S.S.S.S.",
"S.S.S.S.S.S.S.S.S.S.S.S.S.S.S.S.S.S.S.S.S.S.S.S.S.S.S.S.S.S.S.S.S.S.S.S.S.S.S.S.S.S.S.S.S.S.S.S.S.S.S.S.S.S.S.S.S.S.S.S.S.S.S.S.S.S.S.S.S.S.S.S.S.S.S.S.S.S.S.S.",
"S.S.S.S.S.S.S.S.S.S.S.S.S.S.S.S.S.S.S.S.S.S.S.S.S.S.S.S.S.S.S.S.S.S.S.S.S.S.S.S.S.S.S.S.S.S.S.S.S.S.S.S.S.S.S.S.S.S.S.S.S.S.S.S.S.S.S.S.S.S.S.S.S.S.S.S.S.S.S.S.",
"S.S.S.S.S.S.S.S.S.S.S.S.S.S.S.S.S.S.S.S.S.S.S.S.S.S.S.S.S.S.S.S.S.S.S.S.S.S.S.S.S.S.S.S.S.S.S.S.S.S.S.S.S.S.S.S.S.S.S.S.S.S.S.S.S.S.S.S.S.S.S.S.S.S.S.S.S.S.S.S.",
"S.S.S.S.S.S.S.S.S.S.S.S.S.S.S.S.S.S.S.S.S.S.S.S.S.S.S.S.S.S.S.S.S.S.S.S.S.S.S.S.S.S.S.S.S.S.S.S.S.S.S.S.S.S.S.S.S.S.S.S.S.S.S.S.S.S.S.S.S.S.S.S.S.S.S.S.S.S.S.S.",
"S.S.S.S.S.S.S.S.S.S.S.S.S.S.S.S.S.S.S.S.S.S.S.S.S.S.S.S.S.S.S.S.S.S.S.S.S.S.S.S.S.S.S.S.S.S.S.S.S.S.S.S.S.S.S.S.S.S.S.S.S.S.S.S.S.S.S.S.S.S.S.S.S.S.S.S.S.S.S.S.",
"S.S.S.S.S.S.S.S.S.S.S.S.S.S.S.S.S.S.S.S.S.S.S.S.S.S.S.S.S.S.S.S.S.S.S.S.S.S.S.S.S.S.S.S.S.S.S.S.S.S.S.S.S.S.S.S.S.S.S.S.S.S.S.S.S.S.S.S.S.S.S.S.S.S.S.S.S.S.S.S."
};
