/* XPM */
static char *result[] = {
/* columns rows colors chars-per-pixel */
"80 80 33 1 ",
"  c #2F2F2F",
". c #323232",
"X c #373737",
"o c gray22",
"O c #393939",
"+ c gray25",
"@ c gray26",
"# c #4C4C4C",
"$ c #505050",
"% c gray32",
"& c #555555",
"* c #5B5B5B",
"= c #5D5D5D",
"- c gray38",
"; c gray39",
": c #646464",
"> c #656565",
", c #686868",
"< c DimGray",
"1 c #6C6C6C",
"2 c gray43",
"3 c #747474",
"4 c gray46",
"5 c #777777",
"6 c gray48",
"7 c #7C7C7C",
"8 c #808080",
"9 c #848484",
"0 c gray55",
"q c #909090",
"w c #979797",
"e c gray64",
"r c None",
/* pixels */
"rrrrrrrrrrrrrrrrrrrrrrrrrrrrrrrrrrrrrrrrrrrrrrrrrrrrrrrrrrrrrrrrrrrrrrrrrrrrrrrr",
"rrrrrrrrrrrrrrrrrrrrrrrrrrrrrrrrrrrrrrrrrrrrrrrrrrrrrrrrrrrrrrrrrrrrrrrrrrrrrrrr",
"rrrrrrrrrrrrrrrrrrrrrrrrrrrrrrrrrrrrrrrrrrrrrrrrrrrrrrrrrrrrrrrrrrrrrrrrrrrrrrrr",
"rrrrrrrrrrrrrrrrrrrrrrrrrrrrrrrrrrrrrrrrrrrrrrrrrrrrrrrrrrrrrrrrrrrrrrrrrrrrrrrr",
"rrrrrrrrrrrrrrrrrrrrrrrrrrrrrrrrrrrrrrrrrrrrrrrrrrrrrrrrrrrrrrrrrrrrrrrrrrrrrrrr",
"rrrrrrrrrrrrrrrrrrrrrrrrrrrrrrrrrrrrrrrrrrrrrrrrrrrrrrrrrrrrrrrrrrrrrrrrrrrrrrrr",
"rrrrrrrrrrrrrrrrrrrrrrrrrrrrrrrrrrrrrrrrrrrrrrrrrrrrrrrrrrrrrrrrrrrrrrrrrrrrrrrr",
"rrrrrrrrrrrrrrrrrrrrrrrrrrrrrrrrrrrrrrrrrrrrrrrrrrrrrrrrrrrrrrrrrrrrrrrrrrrrrrrr",
"rrrrrrrrrrrrrrrrrrrrrrrrrrrrrrrrrrrrrrrrrrrrrrrrrrrrrrrrrrrrrrrrrrrrrrrrrrrrrrrr",
"rrrrrrrrrrrrrrrrrrrrrrrrrrrrrrrrrrrrrrrrrrrrrrrrrrrrrrrrrrrrrrrrrrrrrrrrrrrrrrrr",
"rrrrrrrrrrrrrrrrrrrrrrrrrrrrrrrrrrrrrrrrrrrrrrrrrrrrrrrrrrrrrrrrrrrrrrrrrrrrrrrr",
"rrrrrrrrrrrrrrrrrrrrrrrrrrrrrrrrrrrrrrrrrrrrrrrrrrrrrrrrrrrrrrrrrrrrrrrrrrrrrrrr",
"rrrrrrrrrrrrrrrrrrrrrrrrrrrrrrrrrrrrrrrrrrrrrrrrrrrrrrrrrrrrrrrrrrrrrrrrrrrrrrrr",
"rrrrrrrrrrrrrrrrrrrrrrrrrrrrrrrrrrrrrrrrrrrrrrrrrrrrrrrrrrrrrrrrrrrrrrrrrrrrrrrr",
"rrrrrrrrrrrrrrrrrrrrrrrrrrrrrrrrrrrrrrrrrrrrrrrrrrrrrrrrrrrrrrrrrrrrrrrrrrrrrrrr",
"rrrrrrrrrrrrrrrrrrrrrrrrrrrrrrrrrrrrrrrrrrrrrrrrrrrrrrrrrrrrrrrrrrrrrrrrrrrrrrrr",
"rrrrrrrrrrrrrrrrrrrrrrrrrrrrrrrrrrrrrrrrrrrr&&&&&@          rrrrrrrrrrrrrrrrrrrr",
"rrrrrrrrrrrrrrrrrrrrrrrrrrrrrrrrrrrrrrrrrrrr&&&&&@          rrrrrrrrrrrrrrrrrrrr",
"rrrrrrrrrrrrrrrrrrrrrrrrrrrrrrrrrrrrrrrrrrrr&&&&&@          rrrrrrrrrrrrrrrrrrrr",
"rrrrrrrrrrrrrrrrrrrrrrrrrrrrrrrrrrrrrrrrrrrr&&&&&@          rrrrrrrrrrrrrrrrrrrr",
"rrrrrrrrrrrrrrrrrrrrrrrrrrrrrrrrrrrrrrrrrrrr&&&&&@          rrrrrrrrrrrrrrrrrrrr",
"rrrrrrrrrrrrrrrrrrrrrrrrrrrrrrrrrr&&&&&&&&&&9qqqq2#####     rrrrrrrrrrrrrrrrrrrr",
"rrrrrrrrrrrrrrrrrrrrrrrrrrrrrrrrr&&&&&&&&&&&qeeee7&&&&&     rrrrrrrrrrrrrrrrrrrr",
"rrrrrrrrrrrrrrrrrrrrrrrrrrrrrrrrr&&&&&&&&&&&qeeee7&&&&&     rrrrrrrrrrrrrrrrrrrr",
"rrrrrrrrrrrrrrrrrrrrrrrrrrrrrrrrr&&&&&&&&&&&qeeee7&&&&&     rrrrrrrrrrrrrrrrrrrr",
"rrrrrrrrrrrrrrrrrrrrrrrrrrrrrrrrr&&&&&&&&&&&qeeee7&&&&&     rrrrrrrrrrrrrrrrrrrr",
"rrrrrrrrrrrrrrrrrrrrrrrrrrrrrrrrr&&&&&&<<<<<0wwww6=====OOOOOrrrrrrrrrrrrrrrrrrrr",
"rrrrrrrrrrrrrrrrrrrrrrrrrrrrrrrrr&&&&&&eeeee83333333333&&&&&O     rrrrrrrrrrrrrr",
"rrrrrrrrrrrrrrrrrrrrrrrrrrrrrrrrr&&&&&&eeeee83333333333&&&&&O     rrrrrrrrrrrrrr",
"rrrrrrrrrrrrrrrrrrrrrrrrrrrrrrrrr&&&&&&eeeee83333333333&&&&&O     rrrrrrrrrrrrrr",
"rrrrrrrrrrrrrrrrrrrrrrrrrrrrrrrrr&&&&&&eeeee83333333333&&&&&O     rrrrrrrrrrrrrr",
"rrrrrrrrrrrrrrrrrrrrrrrrrrrrrrrrr&&&&&&eeeee83333333333&&&&&O     rrrrrrrrrrrrrr",
"rrrrrrrrrrrrrrrrrrrrrrrrrrrr&&&&&&&&&&&eeeee83333333333&&&&&O     rrrrrrrrrrrrrr",
"rrrrrrrrrrrrrrrrrrrrrrrrrrrr&&&&&&&&&&&eeeee83333333333&&&&&O     rrrrrrrrrrrrrr",
"rrrrrrrrrrrrrrrrrrrrrrrrrrrr&&&&&&&&&&&eeeee83333333333&&&&&O     rrrrrrrrrrrrrr",
"rrrrrrrrrrrrrrrrrrrrrrrrrrrr&&&&&&&&&&&eeeee83333333333&&&&&O     rrrrrrrrrrrrrr",
"rrrrrrrrrrrrrrrrrrrrrrrrrrrr&&&&&&&&&&&eeeee83333333333&&&&&O     rrrrrrrrrrrrrr",
"rrrrrrrrrrrrrrrrrrrrrrrrrrrroOOOO:qqqqq8888853333333333&&&&&O     rrrrrrrrrrrrrr",
"rrrrrrrrrrrrrrrrrrrrrrrrrrrr     <eeeee3333333333333333&&&&&O     rrrrrrrrrrrrrr",
"rrrrrrrrrrrrrrrrrrrrrrrrrrrr     <eeeee3333333333333333&&&&&O     rrrrrrrrrrrrrr",
"rrrrrrrrrrrrrrrrrrrrrrrrrrrr     <eeeee3333333333333333&&&&&O     rrrrrrrrrrrrrr",
"rrrrrrrrrrrrrrrrrrrrrrrrrrrr     <eeeee3333333333333333&&&&&O     rrrrrrrrrrrrrr",
"rrrrrrrrrrrrrrrrrrrrrrrrrrrr.    ;wwwww3333333333333333=====@OOOOXrrrrrrrrrrrrrr",
"rrrrrrrrrrrr&&&&&&&&&&&&&&&&O    %33333333333333333333333333=&&&&@     rrrrrrrrr",
"rrrrrrrrrrrr&&&&&&&&&&&&&&&&O    %33333333333333333333333333=&&&&@     rrrrrrrrr",
"rrrrrrrrrrrr&&&&&&&&&&&&&&&&O    %33333333333333333333333333=&&&&@     rrrrrrrrr",
"rrrrrrrrrrrr&&&&&&&&&&&&&&&&O    %33333333333333333333333333=&&&&@     rrrrrrrrr",
"rrrrrrrrrrrr&&&&&&&&&&&&&&&&O    %33333333333333333333333333=&&&&@     rrrrrrrrr",
"rrrrrrr&&&&&qeeee03333333333+    @&&&&&&&&&&1333333333333333=&&&&@     rrrrrrrrr",
"rrrrrrr&&&&&qeeee03333333333+    @&&&&&&&&&&1333333333333333=&&&&@     rrrrrrrrr",
"rrrrrrr&&&&&qeeee03333333333+    @&&&&&&&&&&1333333333333333=&&&&@     rrrrrrrrr",
"rrrrrrr&&&&&qeeee03333333333+    @&&&&&&&&&&1333333333333333=&&&&@     rrrrrrrrr",
"rrrrrrr&&&&&qeeee03333333333+    @&&&&&&&&&&1333333333333333=&&&&@     rrrrrrrrr",
"rr&&&&&qqqqq98888633333=====$####@OOOOO&&&&&*====,3333333333=&&&&$#####     rrrr",
"r&&&&&&eeeee83333333333&&&&&&&&&&@     &&&&&&&&&&>3333333333=&&&&&&&&&&     rrrr",
"r&&&&&&eeeee83333333333&&&&&&&&&&@     &&&&&&&&&&>3333333333=&&&&&&&&&&     rrrr",
"r&&&&&&eeeee83333333333&&&&&&&&&&@     &&&&&&&&&&>3333333333=&&&&&&&&&&     rrrr",
"r&&&&&&eeeee83333333333&&&&&&&&&&@     &&&&&&&&&&>3333333333=&&&&&&&&&&     rrrr",
"r######qqqqq41111111111&&&&&&&&&&@     &&&&&&&&&&-1111111111*&&&&&&&&&&     rrrr",
"r      &&&&&&&&&&&&&&&&&&&&&&&&&&@     &&&&&&&&&&&&&&&&&&&&&&&&&&&&&&&&     rrrr",
"r      &&&&&&&&&&&&&&&&&&&&&&&&&&@     &&&&&&&&&&&&&&&&&&&&&&&&&&&&&&&&     rrrr",
"r      &&&&&&&&&&&&&&&&&&&&&&&&&&@     &&&&&&&&&&&&&&&&&&&&&&&&&&&&&&&&     rrrr",
"r      &&&&&&&&&&&&&&&&&&&&&&&&&&@     &&&&&&&&&&&&&&&&&&&&&&&&&&&&&&&&     rrrr",
"r      &&&&&&&&&&&&&&&&&&&&&&&&&&@     &&&&&&&&&&&&&&&&&&&&&&&&&&&&&&&&     rrrr",
"r                                                                           rrrr",
"r                                                                           rrrr",
"r                                                                           rrrr",
"r                                                                           rrrr",
"r                                                                           rrrr",
"rrrrrrrrrrrrrrrrrrrrrrrrrrrrrrrrrrrrrrrrrrrrrrrrrrrrrrrrrrrrrrrrrrrrrrrrrrrrrrrr",
"rrrrrrrrrrrrrrrrrrrrrrrrrrrrrrrrrrrrrrrrrrrrrrrrrrrrrrrrrrrrrrrrrrrrrrrrrrrrrrrr",
"rrrrrrrrrrrrrrrrrrrrrrrrrrrrrrrrrrrrrrrrrrrrrrrrrrrrrrrrrrrrrrrrrrrrrrrrrrrrrrrr",
"rrrrrrrrrrrrrrrrrrrrrrrrrrrrrrrrrrrrrrrrrrrrrrrrrrrrrrrrrrrrrrrrrrrrrrrrrrrrrrrr",
"rrrrrrrrrrrrrrrrrrrrrrrrrrrrrrrrrrrrrrrrrrrrrrrrrrrrrrrrrrrrrrrrrrrrrrrrrrrrrrrr",
"rrrrrrrrrrrrrrrrrrrrrrrrrrrrrrrrrrrrrrrrrrrrrrrrrrrrrrrrrrrrrrrrrrrrrrrrrrrrrrrr",
"rrrrrrrrrrrrrrrrrrrrrrrrrrrrrrrrrrrrrrrrrrrrrrrrrrrrrrrrrrrrrrrrrrrrrrrrrrrrrrrr",
"rrrrrrrrrrrrrrrrrrrrrrrrrrrrrrrrrrrrrrrrrrrrrrrrrrrrrrrrrrrrrrrrrrrrrrrrrrrrrrrr",
"rrrrrrrrrrrrrrrrrrrrrrrrrrrrrrrrrrrrrrrrrrrrrrrrrrrrrrrrrrrrrrrrrrrrrrrrrrrrrrrr",
"rrrrrrrrrrrrrrrrrrrrrrrrrrrrrrrrrrrrrrrrrrrrrrrrrrrrrrrrrrrrrrrrrrrrrrrrrrrrrrrr",
"rrrrrrrrrrrrrrrrrrrrrrrrrrrrrrrrrrrrrrrrrrrrrrrrrrrrrrrrrrrrrrrrrrrrrrrrrrrrrrrr"
};
