/* XPM */
static char *result[] = {
/* columns rows colors chars-per-pixel */
"80 80 30 1 ",
"  c #2F2F2F",
". c gray21",
"X c gray22",
"o c #393939",
"O c #3F3F3F",
"+ c gray26",
"@ c #444444",
"# c #464646",
"$ c #4C4C4C",
"% c #505050",
"& c gray33",
"* c #555555",
"= c gray34",
"- c gray35",
"; c #5A5A5A",
": c #5D5D5D",
"> c #656565",
", c DimGray",
"< c #6C6C6C",
"1 c #747474",
"2 c #767676",
"3 c #777777",
"4 c gray48",
"5 c #7C7C7C",
"6 c #808080",
"7 c #909090",
"8 c #979797",
"9 c #9A9A9A",
"0 c gray64",
"q c None",
/* pixels */
"qqqqqqqqqqqqqqqqqqqqqqqqqqqqqqqqqqqqqqqqqqqqqqqqqqqqqqqqqqqqqqqqqqqqqqqqqqqqqqqq",
"qqqqqqqqqqqqqqqqqqqqqqqqqqqqqqqqqqqqqqqqqqqqqqqqqqqqqqqqqqqqqqqqqqqqqqqqqqqqqqqq",
"qqqqqqqqqqqqqqqqqqqqqqqqqqqqqqqqqqqqqqqqqqqqqqqqqqqqqqqqqqqqqqqqqqqqqqqqqqqqqqqq",
"qqqqqqqqqqqqqqqqqqqqqqqqqqqqqqqqqqqqqqqqqqqqqqqqqqqqqqqqqqqqqqqqqqqqqqqqqqqqqqqq",
"qqqqqqqqqqqqqqqqqqqqqqqqqqqqqqqqqqqqqqqqqqqqqqqqqqqqqqqqqqqqqqqqqqqqqqqqqqqqqqqq",
"qqqqqqqqqqqqqqqqqqqqqqqqqqqqqqqqqqqqqqqqqqqqqqqqqqqqqqqqqqqqqqqqqqqqqqqqqqqqqqqq",
"qqqqqqqqqqqqqqqqqqqqqqqqqqqqqqqqqqqqqqqqqqqqqqqqqqqqqqqqqqqqqqqqqqqqqqqqqqqqqqqq",
"qqqqqqqqqqqqqqqqqqqqqqqqqqqqqqqqqqqqqqqqqqqqqqqqqqqqqqqqqqqqqqqqqqqqqqqqqqqqqqqq",
"qqqqqqqqqqqqqqqqqqqqqqqqqqqqqqqqqqqqqqqqqqqqqqqqqqqqqqqqqqqqqqqqqqqqqqqqqqqqqqqq",
"qqqqqqqqqqqqqqqqqqqqqqqqqqqqqqqqqqqqqqqqqqqqqqqqqqqqqqqqqqqqqqqqqqqqqqqqqqqqqqqq",
"qqqqqqqqqqqqqqqqqqqqqqqqqqqqqqqqqqqqqqqqqqqqqqqqqqqqqqqqqqqqqqqqqqqqqqqqqqqqqqqq",
"qqqqqqqqqqqqqqqqqqqqqqqqqqqqqqqqqqqqqqqqqqqqqqqqqqqqqqqqqqqqqqqqqqqqqqqqqqqqqqqq",
"qqqqqqqqqqqqqqqqqqqqqqqqqqqqqqqqqqqqqqqqqqqqqqqqqqqqqqqqqqqqqqqqqqqqqqqqqqqqqqqq",
"qqqqqqqqqqqqqqqqqqqqqqqqqqqqqqqqqqqqqqqqqqqqqqqqqqqqqqqqqqqqqqqqqqqqqqqqqqqqqqqq",
"qqqqqqqqqqqqqqqqqqqqqqqqqqqqqqqqqqqqqqqqqqqqqqqqqqqqqqqqqqqqqqqqqqqqqqqqqqqqqqqq",
"qqqqqqqqqqqqqqqqqqqqqqqqqqqqqqqqqqqqqqqqqqqqqqqqqqqqqqqqqqqqqqqqqqqqqqqqqqqqqqqq",
"qqqqqqqqqqqqqqqqqqqqqqqqq*****************qqqqqqqqqqqqqqqqqqqqqqqqqqqqqqqqqqqqqq",
"qqqqqqqqqqqqqqqqqqqqqqqqq*****************qqqqqqqqqqqqqqqqqqqqqqqqqqqqqqqqqqqqqq",
"qqqqqqqqqqqqqqqqqqqqqqqqq*****************qqqqqqqqqqqqqqqqqqqqqqqqqqqqqqqqqqqqqq",
"qqqqqqqqqqqqqqqqqqqqqqqqq*****************qqqqqqqqqqqqqqqqqqqqqqqqqqqqqqqqqqqqqq",
"qqqqqqqqqqqqqqqqqqqqqqqqq*****************qqqqqqqqqqqqqqqqqqqqqqqqqqqqqqqqqqqqqq",
"qqqqqqqqqqqqqqqqqqqq***********77777777772*****qqqqqqqqqqqqqqqqqqqqqqqqqqqqqqqqq",
"qqqqqqqqqqqqqqqqqqqq***********00000000005*****qqqqqqqqqqqqqqqqqqqqqqqqqqqqqqqqq",
"qqqqqqqqqqqqqqqqqqqq***********00000000005*****qqqqqqqqqqqqqqqqqqqqqqqqqqqqqqqqq",
"qqqqqqqqqqqqqqqqqqqq***********00000000005*****qqqqqqqqqqqqqqqqqqqqqqqqqqqqqqqqq",
"qqqqqqqqqqqqqqqqqqqq***********00000000005*****qqqqqqqqqqqqqqqqqqqqqqqqqqqqqqqqq",
"qqqqqqqqqqqqqqqqqqqq$$$$$;,,,,,00000988884:::::qqqqqqqqqqqqqqqqqqqqqqqqqqqqqqqqq",
"qqqqqqqqqqqqqqqqqqqq     ,000000000061111111111     qqqqqqqqqqqqqqqqqqqqqqqqqqqq",
"qqqqqqqqqqqqqqqqqqqq     ,000000000061111111111     qqqqqqqqqqqqqqqqqqqqqqqqqqqq",
"qqqqqqqqqqqqqqqqqqqq     ,000000000061111111111     qqqqqqqqqqqqqqqqqqqqqqqqqqqq",
"qqqqqqqqqqqqqqqqqqqq     ,000000000061111111111     qqqqqqqqqqqqqqqqqqqqqqqqqqqq",
"qqqqqqqqqqqqqqqqqqqq     ,000000000061111111111     qqqqqqqqqqqqqqqqqqqqqqqqqqqq",
"qqqqqqqqqqqqqqqqqqqq     ,000001111111111111111*****o     qqqqqqqqqqqqqqqqqqqqqq",
"qqqqqqqqqqqqqqqqqqqq     ,000001111111111111111*****o     qqqqqqqqqqqqqqqqqqqqqq",
"qqqqqqqqqqqqqqqqqqqq     ,000001111111111111111*****o     qqqqqqqqqqqqqqqqqqqqqq",
"qqqqqqqqqqqqqqqqqqqq     ,000001111111111111111*****o     qqqqqqqqqqqqqqqqqqqqqq",
"qqqqqqqqqqqqqqqqqqqq     ,000001111111111111111*****o     qqqqqqqqqqqqqqqqqqqqqq",
"qqqqqqqqqqqqqqq     #$$$$3000001111111111111111<<<<<&$$$$O     qqqqqqqqqqqqqqqqq",
"qqqqqqqqqqqqqqq     $****500000111111111111111111111:****+     qqqqqqqqqqqqqqqqq",
"qqqqqqqqqqqqqqq     $****500000111111111111111111111:****+     qqqqqqqqqqqqqqqqq",
"qqqqqqqqqqqqqqq     $****500000111111111111111111111:****+     qqqqqqqqqqqqqqqqq",
"qqqqqqqqqqqqqqq     $****500000111111111111111111111:****+     qqqqqqqqqqqqqqqqq",
"qqqqqqqqqqqqqqq     $****288888111111111111111111111:****+     qqqqqqqqqqqqqqqqq",
"qqqqqqqqqqqqqqq     $****>11111111111111111111111111:****+     qqqqqqqqqqqqqqqqq",
"qqqqqqqqqqqqqqq     $****>11111111111111111111111111:****+     qqqqqqqqqqqqqqqqq",
"qqqqqqqqqqqqqqq     $****>11111111111111111111111111:****+     qqqqqqqqqqqqqqqqq",
"qqqqqqqqqqqqqqq     $****>11111111111111111111111111:****+     qqqqqqqqqqqqqqqqq",
"qqqqqqqqqqqqqqq     $****>11111111111111111111111111:****+     qqqqqqqqqqqqqqqqq",
"qqqqqqqqqqqqqqq     $****>11111111111111111111111111:**********     qqqqqqqqqqqq",
"qqqqqqqqqqqqqqq     $****>11111111111111111111111111:**********     qqqqqqqqqqqq",
"qqqqqqqqqqqqqqq     $****>11111111111111111111111111:**********     qqqqqqqqqqqq",
"qqqqqqqqqqqqqqq     $****>11111111111111111111111111:**********     qqqqqqqqqqqq",
"qqqqqqqqqqqqqqq     $****>11111111111111111111111111:**********     qqqqqqqqqqqq",
"qqqqqqqqqqqqqqq     $****-:::::1111111111111111:::::=**********$$$$$X    qqqqqqq",
"qqqqqqqqqqqqqqq     $**********1111111111111111*********************o     qqqqqq",
"qqqqqqqqqqqqqqq     $**********1111111111111111*********************o     qqqqqq",
"qqqqqqqqqqqqqqq     $**********1111111111111111*********************o     qqqqqq",
"qqqqqqqqqqqqqqq     $**********1111111111111111*********************o     qqqqqq",
"qqqqqqqqqqqqqqq     @$$$$$$$$$$<<<<<<<<<<<<<<<<**********%$$$$$$$$$$.     qqqqqq",
"qqqqqqqqqqqqqqq                **************************+                qqqqqq",
"qqqqqqqqqqqqqqq                **************************+                qqqqqq",
"qqqqqqqqqqqqqqq                **************************+                qqqqqq",
"qqqqqqqqqqqqqqq                **************************+                qqqqqq",
"qqqqqqqqqqqqqqq                **************************+                qqqqqq",
"qqqqqqqqqqqqqqqqqqqqqqqqq                                 qqqqqqqqqqqqqqqqqqqqqq",
"qqqqqqqqqqqqqqqqqqqqqqqqq                                 qqqqqqqqqqqqqqqqqqqqqq",
"qqqqqqqqqqqqqqqqqqqqqqqqq                                 qqqqqqqqqqqqqqqqqqqqqq",
"qqqqqqqqqqqqqqqqqqqqqqqqq                                 qqqqqqqqqqqqqqqqqqqqqq",
"qqqqqqqqqqqqqqqqqqqqqqqqq                                 qqqqqqqqqqqqqqqqqqqqqq",
"qqqqqqqqqqqqqqqqqqqqqqqqqqqqqqqqqqqqqqqqqqqqqqqqqqqqqqqqqqqqqqqqqqqqqqqqqqqqqqqq",
"qqqqqqqqqqqqqqqqqqqqqqqqqqqqqqqqqqqqqqqqqqqqqqqqqqqqqqqqqqqqqqqqqqqqqqqqqqqqqqqq",
"qqqqqqqqqqqqqqqqqqqqqqqqqqqqqqqqqqqqqqqqqqqqqqqqqqqqqqqqqqqqqqqqqqqqqqqqqqqqqqqq",
"qqqqqqqqqqqqqqqqqqqqqqqqqqqqqqqqqqqqqqqqqqqqqqqqqqqqqqqqqqqqqqqqqqqqqqqqqqqqqqqq",
"qqqqqqqqqqqqqqqqqqqqqqqqqqqqqqqqqqqqqqqqqqqqqqqqqqqqqqqqqqqqqqqqqqqqqqqqqqqqqqqq",
"qqqqqqqqqqqqqqqqqqqqqqqqqqqqqqqqqqqqqqqqqqqqqqqqqqqqqqqqqqqqqqqqqqqqqqqqqqqqqqqq",
"qqqqqqqqqqqqqqqqqqqqqqqqqqqqqqqqqqqqqqqqqqqqqqqqqqqqqqqqqqqqqqqqqqqqqqqqqqqqqqqq",
"qqqqqqqqqqqqqqqqqqqqqqqqqqqqqqqqqqqqqqqqqqqqqqqqqqqqqqqqqqqqqqqqqqqqqqqqqqqqqqqq",
"qqqqqqqqqqqqqqqqqqqqqqqqqqqqqqqqqqqqqqqqqqqqqqqqqqqqqqqqqqqqqqqqqqqqqqqqqqqqqqqq",
"qqqqqqqqqqqqqqqqqqqqqqqqqqqqqqqqqqqqqqqqqqqqqqqqqqqqqqqqqqqqqqqqqqqqqqqqqqqqqqqq",
"qqqqqqqqqqqqqqqqqqqqqqqqqqqqqqqqqqqqqqqqqqqqqqqqqqqqqqqqqqqqqqqqqqqqqqqqqqqqqqqq"
};
