/* XPM */
static char *result[] = {
/* columns rows colors chars-per-pixel */
"80 80 28 1 ",
"  c #2F2F2F",
". c #343434",
"X c gray22",
"o c #393939",
"O c #3A3A3A",
"+ c gray25",
"@ c gray26",
"# c #4C4C4C",
"$ c #555555",
"% c gray34",
"& c #5D5D5D",
"* c #5F5F5F",
"= c #646464",
"- c DimGray",
"; c #6C6C6C",
": c gray43",
"> c #747474",
", c #767676",
"< c gray48",
"1 c #7C7C7C",
"2 c gray49",
"3 c #808080",
"4 c #848484",
"5 c gray55",
"6 c #909090",
"7 c #979797",
"8 c gray64",
"9 c None",
/* pixels */
"99999999999999999999999999999999999999999999999999999999999999999999999999999999",
"99999999999999999999999999999999999999999999999999999999999999999999999999999999",
"99999999999999999999999999999999999999999999999999999999999999999999999999999999",
"99999999999999999999999999999999999999999999999999999999999999999999999999999999",
"99999999999999999999999999999999999999999999999999999999999999999999999999999999",
"99999999999999999999999999999999999999999999999999999999999999999999999999999999",
"99999999999999999999999999999999999999999999999999999999999999999999999999999999",
"99999999999999999999999999999999999999999999999999999999999999999999999999999999",
"99999999999999999999999999999999999999999999999999999999999999999999999999999999",
"99999999999999999999999999999999999999999999999999999999999999999999999999999999",
"99999999999999999999999999999999999999999999999999999999999999999999999999999999",
"99999999999999999999999999999999999999999999999999999999999999999999999999999999",
"99999999999999999999999999999999999999999999999999999999999999999999999999999999",
"99999999999999999999999999999999999999999999999999999999999999999999999999999999",
"99999999999999999999999999999999999999999999999999999999999999999999999999999999",
"99999999999999999999999999999999999999999999999999999999999999999999999999999999",
"99999999999999999999999999999999999999999999999999999999999999999999999999999999",
"99999999999999999999999999999999999999999999999999999999999999999999999999999999",
"99999999999999999999999999999999999999999999999999999999999999999999999999999999",
"99999999999999999999999999999999999999999999999999999999999999999999999999999999",
"99999999999999999999999999999999999999999999999999999999999999999999999999999999",
"99999999999999999999999999999999999999999999999999999999999999999999999999999999",
"99999999999999999999999999999999999999999999999999999999999999999999999999999999",
"99999999999999999999999999999999999999999999999999999999999999999999999999999999",
"99999999999999999999999999999999999999999999999999999999999999999999999999999999",
"99999999999999999999999999999999999999999999999999999999999999999999999999999999",
"99999999999999999999999999999999999999999999999999999999999999999999999999999999",
"99999999999999999999999999999999999999999999999999999999999999999999999999999999",
"99999999999999999999999999999$$$$$$$$$$$$$$$$99999999999999999999999999999999999",
"99999999999999999999999999999$$$$$$$$$$$$$$$$99999999999999999999999999999999999",
"99999999999999999999999999999$$$$$$$$$$$$$$$$99999999999999999999999999999999999",
"99999999999999999999999999999$$$$$$$$$$$$$$$$99999999999999999999999999999999999",
"99999999999999999999999999999$$$$$$$$$$$$$$$$99999999999999999999999999999999999",
"999999999999999999999999$$$$$,1111111111$$$$$$$$$$999999999999999999999999999999",
"999999999999999999999999$$$$$68888888888$$$$$$$$$$$99999999999999999999999999999",
"999999999999999999999999$$$$$68888888888$$$$$$$$$$$99999999999999999999999999999",
"999999999999999999999999$$$$$68888888888$$$$$$$$$$$99999999999999999999999999999",
"999999999999999999999999$$$$$68888888888$$$$$$$$$$$99999999999999999999999999999",
"999999999999999999999999$$$$$68888888888$$$$$$$$$$$99999999999999999999999999999",
"9999999999999999999$$$$$$$$$$688887>>>>>>>>>>&$$$$#          9999999999999999999",
"9999999999999999999$$$$$$$$$$688887>>>>>>>>>>&$$$$#          9999999999999999999",
"9999999999999999999$$$$$$$$$$688887>>>>>>>>>>&$$$$#          9999999999999999999",
"9999999999999999999$$$$$$$$$$688887>>>>>>>>>>&$$$$#          9999999999999999999",
"9999999999999999999$$$$$$$$$$688887>>>>>>>>>>&$$$$#          9999999999999999999",
"9999999999999$$$$$$$$$$$66666433332>>>>>>>>>>:;;;;=#####           9999999999999",
"9999999999999$$$$$$$$$$$888883>>>>>>>>>>>>>>>>>>>>;$$$$$           9999999999999",
"9999999999999$$$$$$$$$$$888883>>>>>>>>>>>>>>>>>>>>;$$$$$           9999999999999",
"9999999999999$$$$$$$$$$$888883>>>>>>>>>>>>>>>>>>>>;$$$$$           9999999999999",
"9999999999999$$$$$$$$$$$888883>>>>>>>>>>>>>>>>>>>>;$$$$$           9999999999999",
"9999999999999$$$$$*1111155555<>>>>>>>>>>>>>>>>>>>>;$$$$$@@@@@.     9999999999999",
"9999999999999$$$$$-88888>>>>>>>>>>>>>>>>>>>>>>>>>>;$$$$$$$$$$o     9999999999999",
"9999999999999$$$$$-88888>>>>>>>>>>>>>>>>>>>>>>>>>>;$$$$$$$$$$o     9999999999999",
"9999999999999$$$$$-88888>>>>>>>>>>>>>>>>>>>>>>>>>>;$$$$$$$$$$o     9999999999999",
"9999999999999$$$$$-88888>>>>>>>>>>>>>>>>>>>>>>>>>>;$$$$$$$$$$o     9999999999999",
"9999999999999$$$$$-88888>>>>>>>>>>>>>>>>>>>>>>>>>>;$$$$$$$$$$o     9999999999999",
"9999999999999$$$$$&>>>>>>>>>>>>>>>>>>>>>>>>>>&$$$$$$$$$$$$$$$o     9999999999999",
"9999999999999$$$$$&>>>>>>>>>>>>>>>>>>>>>>>>>>&$$$$$$$$$$$$$$$o     9999999999999",
"9999999999999$$$$$&>>>>>>>>>>>>>>>>>>>>>>>>>>&$$$$$$$$$$$$$$$o     9999999999999",
"9999999999999$$$$$&>>>>>>>>>>>>>>>>>>>>>>>>>>&$$$$$$$$$$$$$$$o     9999999999999",
"9999999999999$$$$$&>>>>>>>>>>>>>>>>>>>>>>>>>>&$$$$$$$$$$$$$$$o     9999999999999",
"9999999999999XooooO+++++&&&&&&&&&&&&&&&&&&&&&%$$$$$$$$$$ooooo9999999999999999999",
"9999999999999           $$$$$$$$$$$$$$$$$$$$$$$$$$$$$$$$     9999999999999999999",
"9999999999999           $$$$$$$$$$$$$$$$$$$$$$$$$$$$$$$$     9999999999999999999",
"9999999999999           $$$$$$$$$$$$$$$$$$$$$$$$$$$$$$$$     9999999999999999999",
"9999999999999           $$$$$$$$$$$$$$$$$$$$$$$$$$$$$$$$     9999999999999999999",
"99999999999999          @@@@@@@@@@@@@@@@@@@@@@@@@@@@@@@@     9999999999999999999",
"9999999999999999999                                          9999999999999999999",
"9999999999999999999                                          9999999999999999999",
"9999999999999999999                                          9999999999999999999",
"9999999999999999999                                          9999999999999999999",
"9999999999999999999                                          9999999999999999999",
"99999999999999999999999999999999999999999999999999999999999999999999999999999999",
"99999999999999999999999999999999999999999999999999999999999999999999999999999999",
"99999999999999999999999999999999999999999999999999999999999999999999999999999999",
"99999999999999999999999999999999999999999999999999999999999999999999999999999999",
"99999999999999999999999999999999999999999999999999999999999999999999999999999999",
"99999999999999999999999999999999999999999999999999999999999999999999999999999999",
"99999999999999999999999999999999999999999999999999999999999999999999999999999999",
"99999999999999999999999999999999999999999999999999999999999999999999999999999999",
"99999999999999999999999999999999999999999999999999999999999999999999999999999999"
};
