/* XPM */
static char *result[] = {
/* columns rows colors chars-per-pixel */
"80 80 41 1 ",
"  c #2F2F2F",
". c gray21",
"X c gray22",
"o c #393939",
"O c #3C3C3C",
"+ c gray25",
"@ c gray26",
"# c #444444",
"$ c #4B4B4B",
"% c #4C4C4C",
"& c #4E4E4E",
"* c gray32",
"= c #535353",
"- c gray33",
"; c #555555",
": c gray35",
"> c #5B5B5B",
", c #5D5D5D",
"< c #606060",
"1 c gray38",
"2 c gray39",
"3 c #646464",
"4 c #656565",
"5 c #686868",
"6 c DimGray",
"7 c #6A6A6A",
"8 c #6C6C6C",
"9 c gray43",
"0 c gray44",
"q c #727272",
"w c #747474",
"e c #7C7C7C",
"r c #808080",
"t c #818181",
"y c #868686",
"u c #888888",
"i c gray55",
"p c #909090",
"a c #979797",
"s c gray64",
"d c None",
/* pixels */
"dddddddddddddddddddddddddddddddddddddddddddddddddddddddddddddddddddddddddddddddd",
"dddddddddddddddddddddddddddddddddddddddddddddddddddddddddddddddddddddddddddddddd",
"dddddddddddddddddddddddddddddddddddddddddddddddddddddddddddddddddddddddddddddddd",
"dddddddddddddddddddddddddddddddddddddddddddddddddddddddddddddddddddddddddddddddd",
"ddddddddddddddddddddddddddd;;;;;;;;;;;;;;;;;;;;;dddddddddddddddddddddddddddddddd",
"ddddddddddddddddddddddddddd;;;;;;;;;;;;;;;;;;;;;dddddddddddddddddddddddddddddddd",
"ddddddddddddddddddddddddddd;;;;;;;;;;;;;;;;;;;;;dddddddddddddddddddddddddddddddd",
"ddddddddddddddddddddddddddd;;;;;;;;;;;;;;;;;;;;;dddddddddddddddddddddddddddddddd",
"ddddddddddddddddddddddddddd;;;;;;;;;;;;;;;;;;;;;dddddddddddddddddddddddddddddddd",
"dddddddddddddddddddddd;;;;;;;;;;eeeee744441;;;;;;;;;;;;;;;dddddddddddddddddddddd",
"ddddddddddddddddddddd;;;;;;;;;;;sssssrwwww8;;;;;;;;;;;;;;;;ddddddddddddddddddddd",
"ddddddddddddddddddddd;;;;;;;;;;;sssssrwwww8;;;;;;;;;;;;;;;;ddddddddddddddddddddd",
"ddddddddddddddddddddd;;;;;;;;;;;sssssrwwww8;;;;;;;;;;;;;;;;ddddddddddddddddddddd",
"ddddddddddddddddddddd;;;;;;;;;;;sssssrwwww8;;;;;;;;;;;;;;;;ddddddddddddddddddddd",
"ddddddddddddddddddddd;;;;;;;;;;;sssssrwwww8;;;;;;;;;;;;;;;;ddddddddddddddddddddd",
"dddddddddddddddd;;;;;;;;;;6ssssswwwwwwwwwwwwwwww;;;;;o          dddddddddddddddd",
"dddddddddddddddd;;;;;;;;;;6ssssswwwwwwwwwwwwwwww;;;;;o          dddddddddddddddd",
"dddddddddddddddd;;;;;;;;;;6ssssswwwwwwwwwwwwwwww;;;;;o          dddddddddddddddd",
"dddddddddddddddd;;;;;;;;;;6ssssswwwwwwwwwwwwwwww;;;;;o          dddddddddddddddd",
"dddddddddddddddd;;;;;;;;;;6ssssswwwwwwwwwwwwwwww;;;;;o          dddddddddddddddd",
"dddddddddddddddd;;;;;tppppirrrrrwwwwwwwwwwwwwwww;;;;;o               ddddddddddd",
"dddddddddddddddd;;;;;pssssawwwwwwwwwwwwwwwwwwwww;;;;;o               ddddddddddd",
"dddddddddddddddd;;;;;pssssawwwwwwwwwwwwwwwwwwwww;;;;;o               ddddddddddd",
"dddddddddddddddd;;;;;pssssawwwwwwwwwwwwwwwwwwwww;;;;;o               ddddddddddd",
"dddddddddddddddd;;;;;pssssawwwwwwwwwwwwwwwwwwwww;;;;;o               ddddddddddd",
"ddddddddddd;;;;;eeeeeuiiiiywwwwwwwwwwwwwww044444@@@@@@@@@@@@@@@@     ddddddddddd",
"ddddddddddd;;;;;sssssrwwwwwwwwwwwwwwwwwwww8;;;;;     %;;;;;;;;;;     ddddddddddd",
"ddddddddddd;;;;;sssssrwwwwwwwwwwwwwwwwwwww8;;;;;     %;;;;;;;;;;     ddddddddddd",
"ddddddddddd;;;;;sssssrwwwwwwwwwwwwwwwwwwww8;;;;;     %;;;;;;;;;;     ddddddddddd",
"ddddddddddd;;;;;sssssrwwwwwwwwwwwwwwwwwwww8;;;;;     %;;;;;;;;;;     ddddddddddd",
"ddddddddddd;;;;;sssssrwwwwwwwwwwwwwwwwwwww8;;;;;     %;;;;;;;;;;     ddddddddddd",
"ddddddddddd;;;;;wwwwwwwwwwwwwwwwwwwwwwwwww8;;;;;     %;;;;;;;;;;           ddddd",
"ddddddddddd;;;;;wwwwwwwwwwwwwwwwwwwwwwwwww8;;;;;     %;;;;;;;;;;           ddddd",
"ddddddddddd;;;;;wwwwwwwwwwwwwwwwwwwwwwwwww8;;;;;     %;;;;;;;;;;           ddddd",
"ddddddddddd;;;;;wwwwwwwwwwwwwwwwwwwwwwwwww8;;;;;     %;;;;;;;;;;           ddddd",
"ddddddddddd;;;;;wwwwwwwwwwwwwwwwwwwwwwwwww8;;;;;     %;;;;;;;;;;           ddddd",
"ddddddddddd;;;;;,,,,,,,,,,2wwwwwwwwww2,,,,-ooooo%%%%%=;;;;>88888%%%%%.     ddddd",
"ddddddddddd;;;;;;;;;;;;;;;,wwwwwwwwww,;;;;%     ;;;;;;;;;;,wwwww;;;;;o     ddddd",
"ddddddddddd;;;;;;;;;;;;;;;,wwwwwwwwww,;;;;%     ;;;;;;;;;;,wwwww;;;;;o     ddddd",
"ddddddddddd;;;;;;;;;;;;;;;,wwwwwwwwww,;;;;%     ;;;;;;;;;;,wwwww;;;;;o     ddddd",
"ddddddddddd;;;;;;;;;;;;;;;,wwwwwwwwww,;;;;%     ;;;;;;;;;;,wwwww;;;;;o     ddddd",
"dddddd;;;;;;;;;;@@@@@@@@@@$4444444444:;;;;%     ;;;;;144445wwwww44444O     ddddd",
"ddddd;;;;;;;;;;;          o;;;;;;;;;;;;;;;%     ;;;;;8wwwwwwwwwwwwwww+     ddddd",
"ddddd;;;;;;;;;;;          o;;;;;;;;;;;;;;;%     ;;;;;8wwwwwwwwwwwwwww+     ddddd",
"ddddd;;;;;;;;;;;          o;;;;;;;;;;;;;;;%     ;;;;;8wwwwwwwwwwwwwww+     ddddd",
"ddddd;;;;;;;;;;;          o;;;;;;;;;;;;;;;%     ;;;;;8wwwwwwwwwwwwwww+     ddddd",
"ddddd;;;;;;;;;;;          o;;;;;;;;;;;;;;;%     ;;;;;8wwwwwwwwwwwwwww+     ddddd",
"ddddd;;;;;6ssssswwwww,;;;;%               o;;;;;;;;;;8wwwwwwwwwwwwwww+     ddddd",
"ddddd;;;;;6ssssswwwww,;;;;%               o;;;;;;;;;;8wwwwwwwwwwwwwww+     ddddd",
"ddddd;;;;;6ssssswwwww,;;;;%               o;;;;;;;;;;8wwwwwwwwwwwwwww+     ddddd",
"ddddd;;;;;6ssssswwwww,;;;;%               o;;;;;;;;;;8wwwwwwwwwwwwwww+     ddddd",
"ddddd;;;;;6ssssswwwww,;;;;%               o;;;;;;;;;;8wwwwwwwwwwwwwww+     ddddd",
"ddddd;;;;;<rrrrrwwwww988883%%%%%     #%%%%&;;;;;88888qwwwwwwwwwwwwwww+     ddddd",
"ddddd;;;;;,wwwwwwwwwwwwwww8;;;;;     %;;;;;;;;;;wwwwwwwwwwwwwwwwwwwww+     ddddd",
"ddddd;;;;;,wwwwwwwwwwwwwww8;;;;;     %;;;;;;;;;;wwwwwwwwwwwwwwwwwwwww+     ddddd",
"ddddd;;;;;,wwwwwwwwwwwwwww8;;;;;     %;;;;;;;;;;wwwwwwwwwwwwwwwwwwwww+     ddddd",
"ddddd;;;;;,wwwwwwwwwwwwwww8;;;;;     %;;;;;;;;;;wwwwwwwwwwwwwwwwwwwww+     ddddd",
"ddddd;;;;;-*****44444444441;;;;;     %;;;;;;;;;;wwwwwwwwww04444444444O     ddddd",
"ddddd;;;;;%     ;;;;;;;;;;;;;;;;     %;;;;;;;;;;wwwwwwwwww8;;;;;;;;;;o     ddddd",
"ddddd;;;;;%     ;;;;;;;;;;;;;;;;     %;;;;;;;;;;wwwwwwwwww8;;;;;;;;;;o     ddddd",
"ddddd;;;;;%     ;;;;;;;;;;;;;;;;     %;;;;;;;;;;wwwwwwwwww8;;;;;;;;;;o     ddddd",
"ddddd;;;;;%     ;;;;;;;;;;;;;;;;     %;;;;;;;;;;wwwwwwwwww8;;;;;;;;;;o     ddddd",
"ddddd;;;;;%     ;;;;;;;;;;;;;;;;     %;;;;;;;;;;wwwwwwwwww8;;;;;;;;;;o     ddddd",
"ddddddddddd                          %;;;;;;;;;;;;;;;;;;;;;;;;;;           ddddd",
"ddddddddddd                          %;;;;;;;;;;;;;;;;;;;;;;;;;;           ddddd",
"ddddddddddd                          %;;;;;;;;;;;;;;;;;;;;;;;;;;           ddddd",
"ddddddddddd                          %;;;;;;;;;;;;;;;;;;;;;;;;;;           ddddd",
"ddddddddddd                          %;;;;;;;;;;;;;;;;;;;;;;;;;;           ddddd",
"dddddddddddddddddddddddddddddddddddddXoooooooooooooooooooooooooo     ddddddddddd",
"ddddddddddddddddddddddddddddddddddddd                                ddddddddddd",
"ddddddddddddddddddddddddddddddddddddd                                ddddddddddd",
"ddddddddddddddddddddddddddddddddddddd                                ddddddddddd",
"ddddddddddddddddddddddddddddddddddddd                                ddddddddddd",
"dddddddddddddddddddddddddddddddddddddd                               ddddddddddd",
"dddddddddddddddddddddddddddddddddddddddddddddddddddddddddddddddddddddddddddddddd",
"dddddddddddddddddddddddddddddddddddddddddddddddddddddddddddddddddddddddddddddddd",
"dddddddddddddddddddddddddddddddddddddddddddddddddddddddddddddddddddddddddddddddd",
"dddddddddddddddddddddddddddddddddddddddddddddddddddddddddddddddddddddddddddddddd",
"dddddddddddddddddddddddddddddddddddddddddddddddddddddddddddddddddddddddddddddddd",
"dddddddddddddddddddddddddddddddddddddddddddddddddddddddddddddddddddddddddddddddd"
};
