/* XPM */
static char *result[] = {
/* columns rows colors chars-per-pixel */
"79 80 172 2 ",
"   c #000122",
".  c #0D0C2B",
"X  c #0F0C27",
"o  c #120E2B",
"O  c #14122F",
"+  c #1E162C",
"@  c #0F0F30",
"#  c #141433",
"$  c #181634",
"%  c #1D1932",
"&  c #1D1C3D",
"*  c #251B2A",
"=  c #231F37",
"-  c #221F39",
";  c #282735",
":  c #24213B",
">  c #29253C",
",  c #2C283E",
"<  c #34233D",
"1  c #3F2A39",
"2  c #412A38",
"3  c #4B363A",
"4  c #5A413F",
"5  c #5C4136",
"6  c #6F4E3A",
"7  c #262443",
"8  c #2B2542",
"9  c #2D2943",
"0  c #2E2B4C",
"q  c #312C43",
"w  c #3B2945",
"e  c #322D4B",
"r  c #3B2D4E",
"t  c #363342",
"y  c #393347",
"u  c #36314C",
"i  c #3A354B",
"p  c #3E384B",
"a  c #393844",
"s  c #3B3553",
"d  c #3E3956",
"f  c #3D3959",
"g  c #333050",
"h  c #4E3744",
"j  c #41334A",
"k  c #443C4E",
"l  c #483945",
"z  c #513A46",
"x  c #563B4B",
"c  c #4A3653",
"v  c #413B54",
"b  c #4C3C55",
"n  c #413D5E",
"m  c #513F59",
"M  c #563D53",
"N  c #42404C",
"B  c #5F4846",
"V  c #5B4146",
"C  c #414056",
"Z  c #4B4253",
"A  c #47425D",
"S  c #49425C",
"D  c #4B4953",
"F  c #53435E",
"G  c #52495D",
"H  c #5F4C5E",
"J  c #5A545E",
"K  c #67494F",
"L  c #644842",
"P  c #785648",
"I  c #7E5A4A",
"U  c #614D5D",
"Y  c #7B6858",
"T  c #474261",
"R  c #4B4664",
"E  c #524A63",
"W  c #5A4B61",
"Q  c #544D6A",
"!  c #5F4868",
"~  c #585567",
"^  c #5C5963",
"/  c #59516C",
"(  c #5B5575",
")  c #6D5166",
"_  c #64566B",
"`  c #69556C",
"'  c #6B5869",
"]  c #7C5D6A",
"[  c #6D5572",
"{  c #645974",
"}  c #6C5C73",
"|  c #725A74",
" . c #64616A",
".. c #626070",
"X. c #6D6A72",
"o. c #6B6079",
"O. c #736277",
"+. c #73677F",
"@. c #7D647C",
"#. c #70697B",
"$. c #79687E",
"%. c #76737B",
"&. c #845E4B",
"*. c #815A5B",
"=. c #9B6D43",
"-. c #8C6754",
";. c #966B52",
":. c #986950",
">. c #986C5E",
",. c #A6775D",
"<. c #A8775F",
"1. c #AD795E",
"2. c #A77557",
"3. c #B57E59",
"4. c #8A6462",
"5. c #8F6C6F",
"6. c #916666",
"7. c #9B6C66",
"8. c #956C6A",
"9. c #916960",
"0. c #826976",
"q. c #8A6A71",
"w. c #826C7A",
"e. c #886D79",
"r. c #A87661",
"t. c #A67361",
"y. c #B88149",
"u. c #B4805B",
"i. c #BF8F69",
"p. c #B88766",
"a. c #B08A76",
"s. c #BC8F72",
"d. c #C58956",
"f. c #CA8D55",
"g. c #C28958",
"h. c #CF9254",
"j. c #CE955D",
"k. c #D09154",
"l. c #DD9B51",
"z. c #D59857",
"x. c #C69961",
"c. c #DAAA72",
"v. c #D5B178",
"b. c #EEB86D",
"n. c #E7B36F",
"m. c #756A82",
"M. c #7E6E82",
"N. c #7D728A",
"B. c #7F7B81",
"V. c #80768D",
"C. c #837F8A",
"Z. c #867B92",
"A. c #82789A",
"S. c #8A8096",
"D. c #8E849A",
"F. c #8E8A93",
"G. c #908C90",
"H. c #948698",
"J. c #9D989C",
"K. c #B29C95",
"L. c #BCA494",
"P. c #A39FA4",
"I. c #AAA5A7",
"U. c #A9A4A8",
"Y. c #AEA9AD",
"T. c #B3ADAF",
"R. c #B9B4B5",
"E. c #C4BEBE",
"W. c #F6CF8E",
"Q. c #FFD489",
"!. c #E3C190",
"~. c None",
/* pixels */
"~.~.~.~.~.~.~.~.~.~.~.~.~.~.~.~.~.~.~.~.~.~.~.~.~.~.~.~.~.~.~.~.~.~.~.~.~.~.~.~.~.~.~.~.~.~.~.~.~.~.~.~.~.~.~.~.~.~.~.~.~.~.~.~.~.~.~.~.~.~.~.~.~.~.~.~.~.~.~.",
"~.~.~.~.~.~.~.~.~.~.~.~.~.~.~.~.~.~.~.~.~.~.~.~.~.~.~.~.~.~.~.~.~.~.~.~.~.~.~.~.~.~.~.~.~.~.~.~.~.~.~.~.~.~.~.~.~.~.~.~.~.~.~.~.~.~.~.~.~.~.~.~.~.~.~.~.~.~.~.",
"~.~.~.~.~.~.~.~.~.~.~.~.~.~.~.~.~.~.~.~.~.~.~.~.~.~.~.~.~.~.~.~.~.~.~.~.~.~.~.~.~.~.~.~.~.~.~.~.~.~.~.~.~.~.~.~.~.~.~.~.~.~.~.~.~.~.~.~.~.~.~.~.~.~.~.~.~.~.~.",
"~.~.~.~.~.~.~.~.~.~.~.~.~.~.~.~.~.~.~.~.~.~.~.~.~.~.~.~.~.~.~.~.~.~.~.~.              ~.~.~.                  ~.~.~.~.~.~.~.~.~.~.~.~.~.~.~.~.~.~.~.~.~.~.~.~.",
"~.~.~.~.~.~.~.~.~.~.~.~.~.~.~.~.~.~.~.~.~.~.~.~.~.~.~.~.~.~.~.~.~.~.~.~.              ~.~.                    ~.~.~.~.~.~.~.~.~.~.~.~.~.~.~.~.~.~.~.~.~.~.~.~.",
"~.~.~.~.~.~.~.~.~.~.~.~.~.~.~.~.~.~.~.~.~.~.~.~.~.~.~.~.~.              ..............    C ................~         ~.~.~.~.~.~.~.~.~.~.~.~.~.~.~.~.~.~.~.~.",
"~.~.~.~.~.~.~.~.~.~.~.~.~.~.~.~.~.~.~.~.~.~.~.~.~.~.~.~.~.              E.E.E.E.E.E.E.    ..E.E.E.E.E.E.E.E.U.          ~.~.~.~.~.~.~.~.~.~.~.~.~.~.~.~.~.~.~.",
"~.~.~.~.~.~.~.~.~.~.~.~.~.~.~.~.~.~.~.~.~.~.~.~.~.~.~.~.~.              E.E.E.E.E.E.E.    ..E.E.E.E.E.E.E.E.U.          ~.~.~.~.~.~.~.~.~.~.~.~.~.~.~.~.~.~.~.",
"~.~.~.~.~.~.~.~.~.~.~.~.~.~.~.~.~.~.~.~.~.~.~.~.        : E.E.E.E.E.E.E.E.E.E.E.E.E.E.    ..E.E.E.E.E.E.E.E.E.E.E.E.E.C.    ~.~.~.~.~.~.~.~.~.~.~.~.~.~.~.~.~.",
"~.~.~.~.~.~.~.~.~.~.~.~.~.~.~.~.~.~.~.~.~.~.~.~.        & E.E.E.E.E.E.E.E.E.E.E.E.E.E.    ..E.E.E.E.E.E.E.E.E.E.E.E.E.C.    ~.~.~.~.~.~.~.~.~.~.~.~.~.~.~.~.~.",
"~.~.~.~.~.~.~.~.~.~.~.~.~.~.~.~.~.~.~.~.        m.S.C.C.F.E.E.E.E.E.E.E.^ ^ ^ ^ %.E.E.    ..E.E.E.E.X.^ ^ ^ X.E.E.E.E.Y.C.C.    ~.~.~.~.~.~.~.~.~.~.~.~.~.~.~.",
"~.~.~.~.~.~.~.~.~.~.~.~.~.~.~.~.~.~.~.          P.E.E.E.E.E.E.E.E.E.E.E.; ; ; ; _ E.E.    ..E.E.E.E.N ; ; ; N E.E.E.E.E.E.E.    ~.~.~.~.~.~.~.~.~.~.~.~.~.~.~.",
"~.~.~.~.~.~.~.~.~.~.~.~.~.~.~.~.~.~.~.: 7 $     P.E.E.E.E.E.E.E.E.I.G.G.; ; D ^ X.G.G.     .E.R.G.G.a ; N ^  .G.G.T.E.E.E.E.    ~.~.~.~.~.~.~.~.~.~.~.~.~.~.~.",
"~.~.~.~.~.~.~.~.~.~.~.~.~.~.~.~.~.    R m.G     P.E.E.E.E.E.E.E.E.%.; ; ; ; G.E.G.; ;     ..E.I.; ; ; ; %.E.I.; ; G.E.E.E.E.    ~.~.~.~.~.~.~.~.~.~.~.~.~.~.~.",
"~.~.~.~.~.~.~.~.~.~.~.~.~.~.~.~.~.    R m.R     P.E.E.E.E.E.E.E.E.%.; ; ; ; G.E.G.; ;     ..E.I.; ; ; ; %.E.I.; ; G.E.E.E.E.    ~.~.~.~.~.~.~.~.~.~.~.~.~.~.~.",
"~.~.~.~.~.~.~.~.~.~.~.~.~.~.~.    m.+.~ Z t     P.E.E.E.E.E.E.E.E.%.; ; ; ; ; ; ; ; ;     ..E.I.; ; ; ; ; ; ; ; ; G.E.E.E.E.    ~.~.~.~.~.~.~.~.~.~.~.~.~.~.~.",
"~.~.~.~.~.~.~.~.~.~.~.~.~.~.~.    m.m.W Z q     U.R.E.E.E.E.E.E.E.%.; ; ; ; ; ; ; ; ;     ..E.I.; ; ; ; ; ; ; ; ; G.E.E.E.E.    ~.~.~.~.~.~.~.~.~.~.~.~.~.~.~.",
"~.~.~.~.~.~.~.~.~.~.~.~.~.~.~.    _ _ H Z p : > ~  .J.E.E.E.E.E.E.J.%.%.; ; ; ; N %.%.    ..E.T.%.%.1 ; ; ; t %.%.I.E.P.....    ~.~.~.~.~.~.~.~.~.~.~.~.~.~.~.",
"~.~.~.~.~.~.~.~.~.~.~.~.~.~.~.    Z Z Z F Z Z Z X   _ E.E.E.E.E.E.E.E.E.; ; ; ; ^ E.E.    ..E.E.E.E.N ; ; ; N E.E.E.E.C.    ~.~.~.~.~.~.~.~.~.~.~.~.~.~.~.~.~.",
"~.~.~.~.~.~.~.~.~.~.~.~.~.~.~.    Z Z Z Z Z Z Z $ . ~ U.U.E.E.E.E.E.E.E.N N N N  .P.P.. . ~ P.U.E.E.^ N N N J E.E.Y.P.%.    ~.~.~.~.~.~.~.~.~.~.~.~.~.~.~.~.~.",
"~.~.~.~.~.~.~.~.~.~.~.~.~.~.~.    Z Z Z Z Z Z Z Z Z >   : E.E.E.E.E.E.E.E.E.E.E.C.    Z Z >   : E.E.E.E.E.E.E.E.E.C     ~.~.~.~.~.~.~.~.~.~.~.~.~.~.~.~.~.~.~.",
"~.~.~.~.~.~.~.~.~.~.~.~.~.~.~.    Z Z Z Z Z V Z Z Z >   : E.E.E.E.E.E.E.E.E.E.E.C.    Z Z ;   : E.E.E.E.E.E.E.E.E.C     ~.~.~.~.~.~.~.~.~.~.~.~.~.~.~.~.~.~.~.",
"~.~.~.~.~.~.~.~.~.~.~.~.~.~.~.~.~.o O t Z Z F Z Z Z b j y : : & : : - : : : : : j *.*.Z F k j i & : : : : : : : : ~.~.~.~.~.~.~.~.~.~.~.~.~.~.~.~.~.~.~.~.~.~.",
"~.~.~.~.~.~.~.~.~.~.~.~.~.~.~.~.~.    w Z Z Z Z Z Z Z Z p                       < 7.7.Z Z Z Z j                   ~.~.~.~.~.~.~.~.~.~.~.~.~.~.~.~.~.~.~.~.~.~.",
"~.~.~.~.~.~.~.~.~.~.~.~.~.~.~.~.~.    = : > > : > : > = : > > > : : < > z h h h B 7.7.Z Z Z Z k                   ~.~.~.~.~.~.~.~.~.~.~.~.~.~.~.~.~.~.~.~.~.~.",
"~.~.~.~.~.~.~.~.~.~.~.~.~.~.~.~.~.~.~.                  o Z b Z Z Z Z Z 7.7.7.7.7.~.~.~.~.~.~.~.~.~.~.~.~.~.~.~.~.~.~.~.~.~.~.~.~.~.~.~.~.~.~.~.~.~.~.~.~.~.~.",
"~.~.~.~.~.~.~.~.~.~.~.~.~.~.~.~.~.~.~.                  . Z Z Z Z Z Z Z 7.7.7.7.7.~.~.~.~.~.~.~.~.~.~.~.~.~.~.~.~.~.~.~.~.~.~.~.~.~.~.~.~.~.~.~.~.~.~.~.~.~.~.",
"~.~.~.~.~.~.~.~.~.~.~.~.~.~.~.~.~.~.~.~.~.~.~.~.~.~.~.~.~.    :.u.f.l.l.3.3.k.l.l.~.~.~.~.~.~.~.~.~.~.~.~.~.~.~.~.~.~.~.~.~.~.~.~.~.~.~.~.~.~.~.~.~.~.~.~.~.~.",
"~.~.~.~.~.~.~.~.~.~.~.~.~.~.~.~.~.~.~.~.~.~.~.~.~.~.~.~.~.    :.3.f.l.l.3.3.k.l.l.~.~.~.~.~.~.~.~.~.~.~.~.~.~.~.~.~.~.~.~.~.~.~.~.~.~.~.~.~.~.~.~.~.~.~.~.~.~.",
"~.~.~.~.~.~.~.~.~.~.~.~.~.~.~.~.~.~.~.~.~.~.~.~.~.~.~.  * K K 2.3.f.l.l.3.3.f.~.~.~.~.~.~.~.~.~.~.~.~.~.~.~.~.~.~.~.~.~.~.~.~.~.~.~.~.~.~.~.~.~.~.~.~.~.~.~.~.",
"~.~.~.~.~.~.~.~.~.~.~.~.~.~.~.~.~.~.~.~.~.~.~.~.~.~.X X % 7.7.3.3.f.l.l.3.3.~.~.~.~.~.~.~.~.~.~.~.~.~.~.~.~.~.~.~.~.~.~.~.~.~.~.~.~.~.~.~.~.~.~.~.~.~.~.~.~.~.",
"~.~.~.~.~.~.~.~.~.~.~.~.~.~.~.~.~.~.~.~.~.~.~.~.~.~.=   % 7.7.3.3.d.k.k.1.1.t.~.~.~.~.~.~.~.~.~.~.~.~.~.~.~.~.~.~.~.~.~.~.~.~.~.~.~.~.~.~.~.~.~.~.~.~.~.~.~.~.",
"~.~.~.~.~.~.~.~.~.~.~.~.~.~.~.~.~.~.~.~.~.~.7.7.7.7.z . % 7.7.3.3.3.3.3.7.7.7.7.7.7.7.7.7.7.7.7.7.7.7.7.7.7.7.7.7.~.~.~.~.~.~.~.~.~.~.~.~.~.~.~.~.~.~.~.~.~.~.",
"~.~.~.~.~.~.~.~.~.~.~.~.~.~.~.~.~.~.~.~.~.~.7.7.7.7.z   % 7.7.1.3.3.3.3.7.7.7.7.7.7.7.7.7.7.7.7.7.7.7.7.7.>.7.7.7.~.~.~.~.~.~.~.~.~.~.~.~.~.~.~.~.~.~.~.~.~.~.",
"~.~.~.~.~.~.~.~.~.~.7.7.7.7.7.7.7.7.7.7.7.s.Q.Q.Q.Q.Q.Q.Q.Q.Q.Q.Q.Q.Q.Q.Q.Q.Q.Q.Q.Q.Q.Q.Q.Q.Q.Q.Q.Q.Q.Q.Q.Q.v.    ~.~.~.~.~.~.~.~.~.~.~.~.~.~.~.~.~.~.~.~.~.~.",
"~.~.~.~.~.~.~.~.~.~.7.7.7.7.7.7.7.7.7.7.7.s.Q.Q.Q.Q.Q.Q.Q.Q.Q.Q.Q.Q.Q.Q.Q.Q.Q.Q.Q.Q.Q.Q.Q.Q.Q.Q.Q.Q.Q.Q.Q.Q.v.    ~.~.~.~.~.~.~.~.~.~.~.~.~.~.~.~.~.~.~.~.~.~.",
"~.~.~.~.~.~.~.~.~.~.h h >.,.r.r.r.r.r.r.r.p.c.c.c.c.c.c.c.c.c.c.c.c.c.c.c.c.n.b.b.b.b.b.b.b.b.b.b.b.b.b.b.b.h.    ~.~.~.~.~.~.~.~.~.~.~.~.~.~.~.~.~.~.~.~.~.~.",
"~.~.~.~.~.~.~.~.~.~.    ;.u.u.u.u.u.u.u.u.u.u.u.u.u.u.u.u.u.u.u.u.u.u.u.u.u.h.l.l.l.l.l.l.l.l.l.l.l.l.l.l.l.y.    ~.~.~.~.~.~.~.~.~.~.~.~.~.~.~.~.~.~.~.~.~.~.",
"~.~.~.~.~.~.~.~.~.~.    ;.u.1.,.,.,.,.,.,.,.,.,.,.,.1.u.u.u.u.3.u.u.u.u.u.u.h.l.z.j.j.j.j.j.j.j.j.j.j.j.z.l.3.    ~.~.~.~.~.~.~.~.~.~.~.~.~.~.~.~.~.~.~.~.~.~.",
"~.~.~.~.~.~.~.~.~.~.    ;.u.>.! ! ! ! ! ! ! ! ! ! ! 4.u.u.u.u.3.u.u.u.u.u.u.h.l.x.A.A.A.A.A.A.A.A.A.A.A.a.l.3.    ~.~.~.~.~.~.~.~.~.~.~.~.~.~.~.~.~.~.~.~.~.~.",
"~.~.~.~.~.~.~.~.~.~.    :.u.7.! ! ! ! ! ! ! ! ! ! ! *.3.3.3.3.3.u.u.u.u.u.u.z.l.x.A.A.A.A.A.A.A.A.A.A.A.a.l.y.    ~.~.~.~.~.~.~.~.~.~.~.~.~.~.~.~.~.~.~.~.~.~.",
"~.~.~.~.~.~.~.~.~.~.    ;.u.r.6.6.6.6.M w m $.$.c w M ) ) ) ) ) ) >.u.u.u.u.k.l.i.A.A.A.A.K.!.!.!.!.H.A.a.l.y.    r ! ! ~.~.~.~.~.~.~.~.~.~.~.~.~.~.~.~.~.~.~.",
"~.~.~.~.~.~.~.~.~.~.    ;.u.r.7.7.7.7.x < x V.w.j < c ! ! ! ! ! ! 4.u.u.u.u.k.l.i.A.A.A.A.L.W.W.W.W.H.A.a.l.y.    s ! ! ~.~.~.~.~.~.~.~.~.~.~.~.~.~.~.~.~.~.~.",
"~.~.~.~.~.~.~.~.~.~.    ;.u.r.t.7.7.7.x < c V.$.j < m | [ c c [ [ ] 4.-.4 3 6 6 B n n f n J Y Y Y Y S n ;.l.y.    b [ [ ! !                                 ~.",
"~.~.~.~.~.~.~.~.~.~.    :.3.1.7.7.7.7.x < b M.M.j < U w.O.< < [ m.[ ! !                                 6 l.y.    F @.| ! !                                   ",
"~.~.~.~.~.~.~.~.~.~.    ;.3.<.7.7.7.7.x < b M.M.j < m V.O.< < [ @.[ ! !                                 6 l.y.    F @.| ! !                                   ",
"~.~.~.~.~.~.~.~.~.~.    ;.u.<.7.7.7.7.e.M._ < < | V.W < j V.M.M.M.U 2 2 7.7.7.7.q.m.m.H.D.D.D.D.D.D.$   6 l.y.    E w.' 2 2 7.7.7.7.8.$.m.S.D.D.D.D.D.D.$     ",
"~.~.~.~.~.~.~.~.~.~.    ;.u.<.7.7.7.7.e.M._ < w | V.m < j w.M.w.V.U 2 2 7.7.7.7.5.m.m.H.D.D.D.D.D.D.$   6 l.y.    E V.' 2 2 7.7.7.7.8.m.m.S.D.D.D.D.D.D.&     ",
"~.~.~.~.~.~.~.~.~.~.    ;.u.-.< < < < ; , = o o : 8 8 w j 0.M.@.M.U 1 2 7.7.q.0.V.Z.Z.D.D.Z.N.V.D.D.$   6 l.y.    W w.) 1 1 7.7.q.0.w.Z.Z.D.D.Z.N.N.D.D.$     ",
"~.~.~.~.~.~.~.~.~.~.    ;.u.P                       O < j V.M.V.M.U 1 1 7.7.0.+.M.D.D.D.D.N.m.m.D.D.$   6 l.y.    W V.' 1 1 7.7.0.+.m.H.D.H.D.N.m.m.D.D.$     ",
"~.~.~.~.~.~.~.~.~.~.    6 P 4 O $ . . . . . o . . o O = > E G $.M.H 2 1 7.7.0.+.M.H.D.D.D.N.o.+.D.D.$   6 l.y.    s E Z 1 1 7.7.0.+.m.D.D.D.D.N.{ m.D.D.$     ",
"~.~.~.~.~.~.~.~.~.~.        $ Z Z > > > > > > > > > O         } M.H 1 2 7.7.w.m.N.D.D.D.D.m./ { D.D.$   6 l.y.        o 1 1 7.7.w.m.N.D.D.D.D.m.( { D.D.$     ",
"~.~.~.~.~.~.~.~.~.~.        $ Z Z : > : > : > > > > #         } M.U 1 1 7.7.w.m.N.H.D.D.D.m.! { D.D.$   6 l.y.        o 1 1 7.7.w.m.N.D.D.D.D.m./ { D.D.#     ",
"~.~.~.~.~.~.~.                    Z Z t > i / / ! Q 9                           7 o.m.D.D.m.( { D.D.$   6 l.y.                      O #.#.S.D.m.! { D.D.$     ",
"~.~.~.~.~.~.~.                    Z N q > y / ~ / / 0                           7 #.#.D.D.m./ { D.D.#   6 l.y.                      # #.#.S.D.m./ { D.D.$     ",
"~.~.~.~.~.~.            7 0 &     Z Z u > q C d v v 8 O O     3 4 4 4 4 4 4 4 5 N s u T T s q e R R .   6 l.y.                      @ u s A A s e e R A .     ",
"~.~.~.~.~.              R ( f     Z Z q : > > > , : > , :     ;.u.u.u.u.u.u.u.u.P                       6 l.y.          ~.~.~.~.~.~.~.                        ",
"~.~.~.~.~.          @ @ T Q f @ . p y u , , > > q q q 9 >   . P ;.2.u.u.u.u.u.u.&.* * * * * * * * *     5 y.=.X         ~.~.~.~.~.~.~.                        ",
"~.~.~.~.~.        @ ( ( 9 = u ( (     t Z p > > E / / / E : > X   4 u.u.u.u.u.u.g.l.l.l.l.l.l.l.l.l.*         > , .     ~.~.~.~.~.~.~.~.~.~.~.~.~.~.~.~.~.~.~.",
"~.~.~.~.~.        @ ( ( 9 = u ( (     , Z p > > E / / / E > : X   4 u.u.u.u.u.u.g.l.l.l.l.l.l.l.l.l.*       X : > o     ~.~.~.~.~.~.~.~.~.~.~.~.~.~.~.~.~.~.~.",
"~.~.~.              @ @ T Q f @ @     q Z p > > 9 9 u 9 9 > >     X + + + + + + * * * * * * * * * * ; = u T R E E $     ~.~.~.~.~.~.~.~.~.~.~.~.~.~.~.~.~.~.~.",
"~.~.~.                  R ( f         , Z p > : > > : , > > > X                                     = > v / / / / &     ~.~.~.~.~.~.~.~.~.~.~.~.~.~.~.~.~.~.~.",
"~.~.~.        $ 0 7     7 0 &         $ : > y y , > y d v v v % O X                             : : s v v v v v v : O O     ~.~.~.~.~.~.~.~.~.~.~.~.~.~.~.~.~.",
"~.~.~.        g ( R                       $ Z Z 9 > v ~ / / / q : O                           X Z Z Q Q v > > > > > > %     ~.~.~.~.~.~.~.~.~.~.~.~.~.~.~.~.~.",
"~.~.~.        0 ( R                       $ Z Z , : v / / / / q > O                           X Z Z E / d : , > > > > $     ~.~.~.~.~.~.~.~.~.~.~.~.~.~.~.~.~.",
"          R ( f : 8 ( ( .         ( ( &   $ k Z , > > > > > > > > O                                 y Z y , q / / / / s     ~.~.~.~.~.~.~.~.~.~.~.~.~.~.~.~.~.",
"          R ( n = 9 ( ( #         ( ( &   $ N Z q > > > > > > > > O                                 y Z y : q / / / / s     ~.~.~.~.~.~.~.~.~.~.~.~.~.~.~.~.~.",
"          R ( d = 9 ( ( .   # f f u g s f e $ $ y p t : , S S A S e % $                             p Z Z S S i u i i 9 % %     ~.~.~.~.~.~.~.~.~.~.~.~.~.~.~.",
"          R ( n = 9 ( ( #   & ( ( : = T ( f     a Z y > q / / / / v > >                             p N E ~ E : > > > > > >     ~.~.~.~.~.~.~.~.~.~.~.~.~.~.~.",
"          g f s e s f f .   & ( ( = = T ( f     y Z y > 9 S A A A i > >                             , q d E S , > > > > > >     ~.~.~.~.~.~.~.~.~.~.~.~.~.~.~.",
"              0 ( R         & ( ( = = T ( f     p Z y > > > > > > > > >                                 - Z k > > > > > > >     ~.~.~.~.~.~.~.~.~.~.~.~.~.~.~.",
"              0 ( R         & ( ( ; = T ( f     i Z y > > > > > > > > >                                 : Z k > > > > > > >     ~.~.~.~.~.~.~.~.~.~.~.~.~.~.~.",
"~.~.~.                            ( ( &             : N k > > E / / / /     ~.~.~.~.~.                                      ~.~.~.~.~.~.~.~.~.~.~.~.~.~.~.~.~.",
"~.~.~.                            ( ( &             : Z k > : E / / / /     ~.~.~.~.~.                                      ~.~.~.~.~.~.~.~.~.~.~.~.~.~.~.~.~.",
"~.~.~.                            0 0 .             O : : O # 8 0 8 9 0     ~.~.~.~.~.                                      ~.~.~.~.~.~.~.~.~.~.~.~.~.~.~.~.~.",
"~.~.~.~.~.~.~.~.~.~.~.~.                                                ~.~.~.~.~.~.~.~.~.~.~.~.~.~.~.~.~.~.~.~.~.~.~.~.~.~.~.~.~.~.~.~.~.~.~.~.~.~.~.~.~.~.~.",
"~.~.~.~.~.~.~.~.~.~.~.~.                                                ~.~.~.~.~.~.~.~.~.~.~.~.~.~.~.~.~.~.~.~.~.~.~.~.~.~.~.~.~.~.~.~.~.~.~.~.~.~.~.~.~.~.~.",
"~.~.~.~.~.~.~.~.~.~.~.~.~.~.~.~.~.~.~.~.~.~.~.~.~.~.~.~.~.~.~.~.~.~.~.~.~.~.~.~.~.~.~.~.~.~.~.~.~.~.~.~.~.~.~.~.~.~.~.~.~.~.~.~.~.~.~.~.~.~.~.~.~.~.~.~.~.~.~.",
"~.~.~.~.~.~.~.~.~.~.~.~.~.~.~.~.~.~.~.~.~.~.~.~.~.~.~.~.~.~.~.~.~.~.~.~.~.~.~.~.~.~.~.~.~.~.~.~.~.~.~.~.~.~.~.~.~.~.~.~.~.~.~.~.~.~.~.~.~.~.~.~.~.~.~.~.~.~.~.",
"~.~.~.~.~.~.~.~.~.~.~.~.~.~.~.~.~.~.~.~.~.~.~.~.~.~.~.~.~.~.~.~.~.~.~.~.~.~.~.~.~.~.~.~.~.~.~.~.~.~.~.~.~.~.~.~.~.~.~.~.~.~.~.~.~.~.~.~.~.~.~.~.~.~.~.~.~.~.~."
};
