/* XPM */
static char *result[] = {
/* columns rows colors chars-per-pixel */
"80 80 143 2 ",
"   c #000122",
".  c #0C0B2A",
"X  c #0D0C2A",
"o  c #0F0E2B",
"O  c #100F2C",
"+  c #12112E",
"@  c #131131",
"#  c #151430",
"$  c #171635",
"%  c #161536",
"&  c #191732",
"*  c #1A1833",
"=  c #1D1B35",
"-  c #1F1B36",
";  c #1F1F3B",
":  c #231F37",
">  c #231F38",
",  c #35262D",
"<  c #282735",
"1  c #22203F",
"2  c #29253C",
"3  c #2B273F",
"4  c #2E283F",
"5  c #392833",
"6  c #3E2C3D",
"7  c #493338",
"8  c #483439",
"9  c #523A36",
"0  c #583F35",
"q  c #211F40",
"w  c #242343",
"e  c #2A2643",
"r  c #2F2B41",
"t  c #2C2944",
"y  c #2F2A47",
"u  c #2F2E47",
"i  c #2C2948",
"p  c #2D2A48",
"a  c #2E2B49",
"s  c #312B41",
"d  c #312C44",
"f  c #392C4C",
"g  c #353045",
"h  c #373145",
"j  c #3B3247",
"k  c #383645",
"l  c #343048",
"z  c #33304D",
"x  c #35314E",
"c  c #3C3649",
"v  c #3A354D",
"b  c #3C374F",
"n  c #373354",
"m  c #393550",
"M  c #383451",
"N  c #393552",
"B  c #3E3D53",
"V  c #3F3B55",
"C  c #473641",
"Z  c #41384B",
"A  c #523946",
"S  c #453F59",
"D  c #523D57",
"F  c #57414D",
"G  c #484152",
"H  c #4D4253",
"J  c #4D4B56",
"K  c #5B4C55",
"L  c #514C5D",
"P  c #6D4C43",
"I  c #6A4A4A",
"U  c #775A55",
"Y  c #7B695D",
"T  c #4E4D60",
"R  c #4E486A",
"E  c #534E65",
"W  c #564E67",
"Q  c #5F4868",
"!  c #55506A",
"~  c #58516C",
"^  c #5B5575",
"/  c #5E5774",
"(  c #775667",
")  c #645A70",
"_  c #655F72",
"`  c #645E75",
"'  c #6B5D73",
"]  c #66636C",
"[  c #6C657D",
"{  c #736F77",
"}  c #75677E",
"|  c #706C7D",
" . c #855D3E",
".. c #8F3043",
"X. c #AB775E",
"o. c #B67E59",
"O. c #B57F5E",
"+. c #8A4D66",
"@. c #835E67",
"#. c #875E7B",
"$. c #876263",
"%. c #8D6366",
"&. c #8E6F65",
"*. c #926A60",
"=. c #9B6C66",
"-. c #9E7E6F",
";. c #A87560",
":. c #BF8557",
">. c #B4805B",
",. c #BF855A",
"<. c #BF9173",
"1. c #C68A56",
"2. c #CD8F54",
"3. c #CD9055",
"4. c #DD9B51",
"5. c #D7AA7B",
"6. c #746A83",
"7. c #766E82",
"8. c #776F87",
"9. c #767280",
"0. c #7F7282",
"q. c #7D7A86",
"w. c #84788F",
"e. c #967B81",
"r. c #82789A",
"t. c #868287",
"y. c #8C888D",
"u. c #8B8392",
"i. c #8E849A",
"p. c #928C94",
"a. c #958698",
"s. c #959199",
"d. c #9F9A9D",
"f. c #B09B95",
"g. c #978DA0",
"h. c #A49BA8",
"j. c #A5A0A5",
"k. c #AEA7B0",
"l. c #B7B0B5",
"z. c #C4BEBE",
"x. c #F6CF8E",
"c. c #FFD489",
"v. c None",
/* pixels */
"v.v.v.v.v.v.v.v.v.v.v.v.v.v.v.v.v.v.v.v.v.v.v.v.v.v.v.v.v.v.v.v.v.v.v.v.v.v.v.v.v.v.v.v.v.v.v.v.v.v.v.v.v.v.v.v.v.v.v.v.v.v.v.v.v.v.v.v.v.v.v.v.v.v.v.v.v.v.v.v.",
"v.v.v.v.v.v.v.v.v.v.v.v.v.v.v.v.v.v.v.v.v.v.v.v.v.v.v.v.v.v.v.v.v.v.v.v.v.v.v.v.v.v.v.v.v.v.v.v.v.v.v.v.v.v.v.v.v.v.v.v.v.v.v.v.v.v.v.v.v.v.v.v.v.v.v.v.v.v.v.v.",
"v.v.v.v.v.v.v.v.v.v.v.v.v.v.v.v.v.v.v.v.v.v.v.v.v.v.v.v.v.v.v.v.v.v.v.v.v.v.v.v.v.v.v.v.v.v.v.v.v.v.v.v.v.v.v.v.v.v.v.v.v.v.v.v.v.v.v.v.v.v.v.v.v.v.v.v.v.v.v.v.",
"v.v.v.v.v.v.v.v.v.v.v.v.v.v.v.v.v.v.v.v.v.v.v.v.v.v.v.v.v.v.v.v.v.v.v.v.v.v.v.v.v.v.v.v.v.v.v.v.v.v.v.v.v.v.v.v.v.v.v.v.v.v.v.v.v.v.v.v.v.v.v.v.v.v.v.v.v.v.v.v.",
"v.v.v.v.v.v.v.v.v.v.v.v.v.v.v.v.v.v.v.v.v.v.v.v.v.v.v.v.v.v.v.v.v.v.v.v.v.v.v.v.v.v.v.2 2 2 2 2 2 2 &                                 v.v.v.v.v.v.v.v.v.v.v.v.v.",
"v.v.v.v.v.v.v.v.v.v.v.v.v.v.v.v.v.v.v.v.v.v.v.v.v.v.v.v.v.v.v.v.v.v.v.v.v.v.v.v.v.v.v.2 2 2 2 2 2 2 &                                 v.v.v.v.v.v.v.v.v.v.v.v.v.",
"v.v.v.v.v.v.v.v.v.v.v.v.v.v.v.v.v.v.v.v.v.v.v.v.v.v.v.v.v.v.v.v.v.v.v.v.v.v.v.v.v.v.> h h h h h & & o     1 N N N N N N N N N N N N p v.v.v.v.v.v.v.v.v.v.v.v.v.",
"v.v.v.v.v.v.v.v.v.v.v.v.v.v.v.v.2 2 2 2 2 2 2 2                                     - H H H H H           ! i.i.i.i.i.i.i.i.i.i.i.i.!           v.v.v.v.v.v.v.v.",
"v.v.v.v.v.v.v.v.v.v.v.v.v.v.v.v.2 2 2 2 2 2 2 2                                     - H H H H H           ! i.i.i.i.i.i.i.i.i.i.i.i.!           v.v.v.v.v.v.v.v.",
"v.v.v.v.v.v.v.v.v.v.v.=.=.F 2 2 W W W W W t O O     1 ! ! ! ! ! ! ! ! ! ! ! ! ! ! ! V - - - - -     1 ! ! 8.i.i.i.i.i.i.i.i.i.i.i.i.8.! ! 1     v.v.v.v.v.v.v.v.",
"v.v.v.v.v.v.v.v.v.v.v.=.=.F 2 2 6.6.6.6.6.a         N i.i.i.i.i.i.i.i.i.i.i.i.i.i.i.!               N i.i.i.i.i.i.i.i.i.i.i.i.i.i.i.i.i.i.N     v.v.v.v.v.v.v.v.",
"v.v.v.v.v.v.v.v.v.v.v.=.=.F 2 2 6.6.6.6.6.a         N i.i.i.i.i.i.i.i.i.i.i.i.i.i.i.!               N i.i.i.i.i.i.i.i.i.i.i.i.i.i.i.i.i.i.N     v.v.v.v.v.v.v.v.",
"v.v.v.v.v.v.v.v.=.=.O.4.4.-.6.6.H H H H H -     i.i.i.i.i.i.i.i.i.i.i.i.i.i.i.i.i.i.i.i.i.N     i.i.i.i.i.k.z.z.< < < < < < < < z.z.k.i.i.N           v.v.v.v.v.",
"v.v.v.v.v.v.v.v.=.=.O.4.4.-.6.6.H H H H H -     i.i.i.i.i.i.i.i.i.i.i.i.i.i.i.i.i.i.i.i.i.N     i.i.i.i.i.k.z.z.< < < < < < < < z.z.k.i.i.N           v.v.v.v.v.",
"v.v.v.v.v.v.v.v.O.O.,.2.2.&.) ) H H Z 4 4 +     i.i.g.h.h.h.h.h.h.h.u._ _ _ _ _ _ _ 7.i.i.N     i.i.g.h.h.p.t.t.] ] J < < < < < t.t.p.h.h.` N N       v.v.v.v.v.",
"v.v.v.v.v.=.=.=.4.4.2.o.o.U H H H H 4           i.i.h.z.z.z.z.z.z.z.t.< < < < < < < L i.i.N     i.i.h.z.z.] < < z.z.t.< < < < < < < ] z.z.h.i.i.      v.v.v.v.v.",
"v.v.v.v.v.=.=.=.4.4.2.o.o.U H H H H 4           i.i.h.z.z.z.z.z.z.z.t.< < < < < < < L i.i.N     i.i.h.z.z.] < < z.z.t.< < < < < < < ] z.z.h.i.i.      v.v.v.v.v.",
"v.v.v.v.v.6 6 6 1.1.:.o.o.U H H H H 4     z ! ! k.k.l.z.z.z.z.z.] ] { t.t.J < < < < k L L E ! ! N N | z.z.] < < z.z.t.< < < < < < < ] z.z.l.k.k.      v.v.v.v.v.",
"v.v.v.v.v.      o.o.o.o.o.U H H H H 4     ! i.i.z.z.z.z.z.z.z.z.< < ] z.z.] < < < < < < < _ i.i.    T z.z.] < < z.z.t.< < < < < < < ] z.z.z.z.z.      v.v.v.v.v.",
"v.v.v.v.v.      o.o.o.o.o.U H H H H 4     ! i.i.z.z.z.z.z.z.z.z.< < ] z.z.] < < < < < < < _ i.i.    T z.z.] < < z.z.t.< < < < < < < ] z.z.z.z.z.      v.v.v.v.v.",
"v.v.v.v.v.      o.o.o.o.o.U H H H H 4     9.z.z.z.z.z.z.z.z.z.z.< < ] z.z.] < < < < < < < t.z.z.    T z.z.] < < < < < < < < < < < < ] z.z.z.z.z.      v.v.v.v.v.",
"v.v.v.v.v.      o.o.o.o.o.U H H H H 4     9.z.z.z.z.z.z.z.z.z.z.< < ] z.z.] < < < < < < < t.z.z.    T z.z.] < < < < < < < < < < < < ] z.z.z.z.z.      v.v.v.v.v.",
"v.v.v.v.v.      o.o.o.o.o.U H H H H 4     9.z.z.z.z.z.z.z.z.z.z.< < J t.t.J < < < < < < < t.z.z.    T z.z.] < < < < < < < < < < < < ] z.z.z.z.z.      v.v.v.v.v.",
"v.v.v.v.v.      o.o.o.o.o.U H H H H 4     9.z.z.z.z.z.z.z.z.z.z.< < < < < < < < < < < < < t.z.z.    T z.z.] < < < < < < < < < < < < ] z.z.z.z.z.      v.v.v.v.v.",
"v.v.v.v.v.      o.o.o.o.o.U H H H H 4     9.z.z.z.z.z.z.z.z.z.z.< < < < < < < < < < < < < t.z.z.    T z.z.] < < < < < < < < < < < < ] z.z.z.z.z.      v.v.v.v.v.",
"v.v.v.v.v.      o.o.o.o.o.U H H H H 4     9.z.z.z.z.z.z.z.z.z.z.< < < < < < < < < < < < < t.z.z.    T z.z.d.t.t.< < < < < < < < t.t.d.z.z.q.T T       v.v.v.v.v.",
"v.v.v.v.v.      o.o.o.o.o.U H H H H 4     9.z.z.z.z.z.z.z.z.z.z.< < < < < < < < < < < < < t.z.z.    T z.z.z.z.z.< < < < < < < < z.z.z.z.z.T           v.v.v.v.v.",
"v.v.v.v.v.      o.o.o.o.o.U H H H H 4     9.z.z.z.z.z.z.z.z.z.z.< < < < < < < < < < < < < t.z.z.    T z.z.z.z.z.< < < < < < < < z.z.z.z.z.T           v.v.v.v.v.",
"v.v.v.v.v.v.v.v.    7 o.o.U H H H H 4           z.z.z.z.z.z.z.z.z.z.t.< < < < < < < ] z.z.T         T z.z.z.z.z.z.z.z.z.z.z.z.z.z.z.z.z.z.T     v.v.v.v.v.v.v.v.",
"v.v.v.v.v.v.v.v.    7 o.o.U H H H H 4           z.z.z.z.z.z.z.z.z.z.t.< < < < < < < ] z.z.T         T z.z.z.z.z.z.z.z.z.z.z.z.z.z.z.z.z.z.T     v.v.v.v.v.v.v.v.",
"v.v.v.v.v.v.v.v.    5 P P C 4 4 H H j - - .     z.z.z.z.z.z.z.z.z.z.d.] ] ] ] ] ] ] y.z.z.T         u 9.9.j.z.z.z.z.z.z.z.z.z.z.z.z.j.9.9.u     v.v.v.v.v.v.v.v.",
"v.v.v.v.v.v.v.v.v.v.v.          H H H H H -     z.z.z.z.z.z.z.z.z.z.z.z.z.z.z.z.z.z.z.z.z.T               9.z.z.z.z.z.z.z.z.z.z.z.z.9.          v.v.v.v.v.v.v.v.",
"v.v.v.v.v.v.v.v.v.v.v.          H H H H H -     z.z.z.z.z.z.z.z.z.z.z.z.z.z.z.z.z.z.z.z.z.T               9.z.z.z.z.z.z.z.z.z.z.z.z.9.          v.v.v.v.v.v.v.v.",
"v.v.v.v.v.v.v.v.v.v.v.v.v.      - - s H H j 4 4 T T q.z.z.z.z.z.z.z.z.z.z.z.z.z.z.z.s.T T ;     P P P P P K T T T T T T T T T T T T B v.v.v.v.v.v.v.v.v.v.v.v.v.",
"v.v.v.v.v.v.v.v.v.v.v.v.v.          - H H H H H     T z.z.z.z.z.z.z.z.z.z.z.z.z.z.z.9.          o.o.o.o.o.7                           v.v.v.v.v.v.v.v.v.v.v.v.v.",
"v.v.v.v.v.v.v.v.v.v.v.v.v.          - H H H H H     T z.z.z.z.z.z.z.z.z.z.z.z.z.z.z.9.          o.o.o.o.o.7                           v.v.v.v.v.v.v.v.v.v.v.v.v.",
"v.v.v.v.v.v.v.v.v.v.v.v.v.v.v.v.v.v.v.                                              7 o.o.o.o.o.o.o.o.v.v.v.v.v.v.v.v.v.v.v.v.v.v.v.v.v.v.v.v.v.v.v.v.v.v.v.v.v.",
"v.v.v.v.v.v.v.v.v.v.v.v.v.v.v.v.v.v.v.                                              7 o.o.o.o.o.o.o.o.v.v.v.v.v.v.v.v.v.v.v.v.v.v.v.v.v.v.v.v.v.v.v.v.v.v.v.v.v.",
"v.v.v.v.v.v.v.v.v.v.v.v.v.v.v.v.v.v.v.6 6 6 6 6 6 6 6 6 6 6 6 6 6 6 6 6 6 6 6 6 6 6 I X.X.X.X.X.X.X.;.v.v.v.v.v.v.v.v.v.v.v.v.v.v.v.v.v.v.v.v.v.v.v.v.v.v.v.v.v.",
"v.v.v.v.v.v.v.v.v.v.v.v.v.v.v.v.v.v.v.=.=.=.=.=.=.=.=.=.=.=.=.=.=.=.=.=.=.=.=.=.=.=.=.=.=.=.=.=.=.=.=.=.=.=.=.=.=.=.=.=.=.v.v.v.v.v.v.v.v.v.v.v.v.v.v.v.v.v.v.v.",
"v.v.v.v.v.v.v.v.v.v.v.v.v.v.v.v.v.v.v.=.=.=.=.=.=.=.=.=.=.=.=.=.=.=.=.=.=.=.=.=.=.=.=.=.=.=.=.=.=.=.=.=.=.=.=.=.=.=.=.=.=.v.v.v.v.v.v.v.v.v.v.v.v.v.v.v.v.v.v.v.",
"v.v.v.v.v.v.v.v.v.v.v.v.v.v.v.v.=.=.=.=.=.<.5.5.5.5.5.5.5.5.5.5.5.5.5.5.5.5.5.5.5.5.5.5.5.5.5.5.5.5.5.5.5.5.5.5.5.5.<.=.=.A               v.v.v.v.v.v.v.v.v.v.v.",
"v.v.v.v.v.v.v.v.v.v.v.v.v.v.v.v.=.=.=.=.=.5.c.c.c.c.c.c.c.c.c.c.c.c.c.c.c.c.c.c.c.c.c.c.c.c.c.c.c.c.c.c.c.c.c.c.c.c.5.=.=.6               v.v.v.v.v.v.v.v.v.v.v.",
"v.v.v.v.v.v.v.v.v.v.v.v.v.v.v.v.=.=.=.=.=.5.c.c.c.c.c.c.c.c.c.c.c.c.c.c.c.c.c.c.c.c.c.c.c.c.c.c.c.c.c.c.c.c.c.c.c.c.5.=.=.6               v.v.v.v.v.v.v.v.v.v.v.",
"v.v.v.v.v.v.v.v.v.v.v.v.v.      Q Q Q Q Q *.>.>.                                r.r.r.r.r.r.r.r.r.r.r.r.r.r.r.r.4.4. .    ! i.i.i.i.!     v.v.v.v.v.v.v.v.v.v.v.",
"v.v.v.v.v.v.v.v.v.v.v.v.v.      Q Q Q Q Q *.>.>.                                r.r.r.r.r.r.r.r.r.r.r.r.r.r.r.r.4.4. .    ! i.i.i.i.!     v.v.v.v.v.v.v.v.v.v.v.",
"v.v.v.v.v.v.v.v.v.v.v.v.v.      f f D ( ( $.*.*.    @ y y x N N N N N N N $     r.r.r.r.r.r.r.r./ / 0.f.f.a.r.r.4.4. .    ! i.i.i.i.!     v.v.v.v.v.v.v.v.v.v.v.",
"v.v.v.v.v.v.v.v.v.v.v.v.v.          6 =.=.( Q Q     y } } w.i.i.i.i.i.i.i.N     r.r.r.r.r.r.r.r.2 2 Y x.x.f.r.r.4.4. .    ! i.i.i.i.!     v.v.v.v.v.v.v.v.v.v.v.",
"v.v.v.v.v.v.v.v.v.v.v.v.v.          6 =.=.( Q Q     y } } w.i.i.i.i.i.i.i.N     r.r.r.r.r.r.r.r.2 2 Y x.x.f.r.r.4.4. .    ! i.i.i.i.!     v.v.v.v.v.v.v.v.v.v.v.",
"v.v.v.v.v.v.v.v.v.v.v.v.v.          6 =.=.%.@.@.    y } } w.i.i.i.i.[ N N $     +.+.#.r.r.r.r.r.2 2 Y x.x.f.r.r.4.4. .    ! i.i.i.i.!     v.v.v.v.v.v.v.v.v.v.v.",
"v.v.v.v.v.v.v.v.v.v.v.v.v.          6 =.=.=.=.=.    y } } w.i.i.i.i.!           ....+.r.r.r.r.r.2 2 Y x.x.f.r.r.4.4. .    ! i.i.i.i.!     v.v.v.v.v.v.v.v.v.v.v.",
"v.v.v.v.v.v.v.v.v.v.v.v.v.          6 =.=.=.=.=.    y } } w.i.i.i.i.!           ....+.r.r.r.r.r.2 2 Y x.x.f.r.r.4.4. .    ! i.i.i.i.!     v.v.v.v.v.v.v.v.v.v.v.",
"v.v.v.v.v.v.v.v.v.v.v.v.v.                          y } } w.i.i.i.i.!           r.r.r.r.r.r.r.r.r.r.r.r.r.r.r.r.4.4. .    ! i.i.i.i.!     v.v.v.v.v.v.v.v.v.v.v.",
"v.v.v.v.v.v.v.v.v.v.v.v.v.                          y } } w.i.i.i.i.!           r.r.r.r.r.r.r.r.r.r.r.r.r.r.r.r.4.4. .    ! i.i.i.i.!     v.v.v.v.v.v.v.v.v.v.v.",
"v.v.v.v.v.v.v.v.v.v.v.v.v.                          y } } w.i.i.i.i.[ N N $     R R ' e.e.e.e.e.e.e.e.e.e.e.e.e.4.4. .    z ! ! ! ! z     v.v.v.v.v.v.v.v.v.v.v.",
"v.v.v.v.v.v.v.v.v.v.v.v.v.                          y } } w.i.i.i.i.i.i.i.N         8 >.>.>.>.>.>.>.>.>.>.>.>.>.4.4. .                    v.v.v.v.v.v.v.v.v.v.v.",
"v.v.v.v.v.v.v.v.v.v.v.v.v.                          y } } w.i.i.i.i.i.i.i.N         8 >.>.>.>.>.>.>.>.>.>.>.>.>.4.4. .                    v.v.v.v.v.v.v.v.v.v.v.",
"v.v.v.v.v.v.v.v.v.v.v.v.v.      n n q               @ y y x N N N N N N N $         9 3.3.3.3.3.3.3.3.3.3.3.3.3.4.4. .    o & & & & & & & X     v.v.v.v.v.v.v.v.",
"v.v.v.v.v.v.v.v.v.v.v.v.v.      ^ ^ n                                               0 4.4.4.4.4.4.4.4.4.4.4.4.4.4.4. .    & 2 2 2 2 2 2 2 O     v.v.v.v.v.v.v.v.",
"v.v.v.v.v.v.v.v.v.v.v.v.v.      ^ ^ n                                               0 4.4.4.4.4.4.4.4.4.4.4.4.4.4.4. .    & 2 2 2 2 2 2 2 O     v.v.v.v.v.v.v.v.",
"v.v.v.v.v.v.v.v.v.v.v.    n ^ ^ : : m ^ ^ w               3 G G 2 2 2 2 2 2 2 2 2 2 &      .4.4.4.4.4.4.4.4.4.4.4.4. .    x ~ ~ ~ ~ S 2 2 O     v.v.v.v.v.v.v.v.",
"v.v.v.v.v.v.v.v.v.v.v.    n ^ ^ : : m ^ ^ w               3 G G 2 2 2 2 2 2 2 2 2 2 &      .4.4.4.4.4.4.4.4.4.4.4.4. .    x ~ ~ ~ ~ S 2 2 O     v.v.v.v.v.v.v.v.",
"v.v.v.v.v.v.v.v.v.v.v.    q n n m m M n n %               3 G G 2 2 d b b b b b 2 2 &      .4.4.4.4.4.4.4.4.4.4.4.4. .    e S S S S v 2 2 O     v.v.v.v.v.v.v.v.",
"v.v.v.v.v.v.v.v.v.v.v.          ^ ^ n                     3 G G 2 2 b ~ ~ ~ ~ ~ 2 2 &      .4.4.4.4.4.4.4.4.4.4.4.4. .    & 2 2 2 2 2 2 2 O     v.v.v.v.v.v.v.v.",
"v.v.v.v.v.v.v.v.v.v.v.          ^ ^ n                     3 G G 2 2 b ~ ~ ~ ~ ~ 2 2 &      .4.4.4.4.4.4.4.4.4.4.4.4. .    & 2 2 2 2 2 2 2 O     v.v.v.v.v.v.v.v.",
"v.v.v.v.v.v.v.v.v.v.v.          w w %     q n n           3 G G 2 2 d b b b b b 2 2 &     , 0 0 0 0 0 0 0 0 0 0 0 0 ,     e S S S S v 2 2 O     v.v.v.v.v.v.v.v.",
"v.v.v.v.v.v.v.v.v.v.v.                    n ^ ^           3 G G 2 2 2 2 2 2 2 2 2 2 &                                     x ~ ~ ~ ~ S 2 2 O     v.v.v.v.v.v.v.v.",
"v.v.v.v.v.v.v.v.v.v.v.                    n ^ ^           3 G G 2 2 2 2 2 2 2 2 2 2 &                                     x ~ ~ ~ ~ S 2 2 O     v.v.v.v.v.v.v.v.",
"v.v.v.v.v.v.v.v.v.v.v.              w ^ ^ m : : ^ ^ n     3 G G 2 2 b ~ ~ ~ ~ ~ 2 2 &           ^ ^ n     3 G G 2 2 2 2 2 2 2 2 2 2 2 2 2 O     v.v.v.v.v.v.v.v.",
"v.v.v.v.v.v.v.v.v.v.v.              w ^ ^ m : : ^ ^ n     3 G G 2 2 b ~ ~ ~ ~ ~ 2 2 &           ^ ^ n     3 G G 2 2 2 2 2 2 2 2 2 2 2 2 2 O     v.v.v.v.v.v.v.v.",
"v.v.v.v.v.v.v.v.v.v.v.              % n n M m m n n i = = r c c 2 2 l S S S S S 2 2 &           n n q     * 3 3 & & & & & & & & & & & & & X     v.v.v.v.v.v.v.v.",
"v.v.v.v.v.v.v.v.v.v.v.                    n ^ ^     = G G g 2 2 2 2 2 2 2 2 2 2 2 2 &                                                     v.v.v.v.v.v.v.v.v.v.v.",
"v.v.v.v.v.v.v.v.v.v.v.                    n ^ ^     = G G g 2 2 2 2 2 2 2 2 2 2 2 2 &                                                     v.v.v.v.v.v.v.v.v.v.v.",
"v.v.v.v.v.v.v.v.v.v.v.v.v.                % w w     . = = # O O O O O O O O O O O O X v.v.v.v.v.v.v.v.v.v.v.v.v.v.v.v.v.v.v.v.v.v.v.v.v.v.v.v.v.v.v.v.v.v.v.v.v.",
"v.v.v.v.v.v.v.v.v.v.v.v.v.                                                            v.v.v.v.v.v.v.v.v.v.v.v.v.v.v.v.v.v.v.v.v.v.v.v.v.v.v.v.v.v.v.v.v.v.v.v.v.",
"v.v.v.v.v.v.v.v.v.v.v.v.v.                                                            v.v.v.v.v.v.v.v.v.v.v.v.v.v.v.v.v.v.v.v.v.v.v.v.v.v.v.v.v.v.v.v.v.v.v.v.v.",
"v.v.v.v.v.v.v.v.v.v.v.v.v.v.v.v.v.v.v.v.v.v.v.v.v.v.v.v.v.v.v.v.v.v.v.v.v.v.v.v.v.v.v.v.v.v.v.v.v.v.v.v.v.v.v.v.v.v.v.v.v.v.v.v.v.v.v.v.v.v.v.v.v.v.v.v.v.v.v.v.",
"v.v.v.v.v.v.v.v.v.v.v.v.v.v.v.v.v.v.v.v.v.v.v.v.v.v.v.v.v.v.v.v.v.v.v.v.v.v.v.v.v.v.v.v.v.v.v.v.v.v.v.v.v.v.v.v.v.v.v.v.v.v.v.v.v.v.v.v.v.v.v.v.v.v.v.v.v.v.v.v.",
"v.v.v.v.v.v.v.v.v.v.v.v.v.v.v.v.v.v.v.v.v.v.v.v.v.v.v.v.v.v.v.v.v.v.v.v.v.v.v.v.v.v.v.v.v.v.v.v.v.v.v.v.v.v.v.v.v.v.v.v.v.v.v.v.v.v.v.v.v.v.v.v.v.v.v.v.v.v.v.v.",
"v.v.v.v.v.v.v.v.v.v.v.v.v.v.v.v.v.v.v.v.v.v.v.v.v.v.v.v.v.v.v.v.v.v.v.v.v.v.v.v.v.v.v.v.v.v.v.v.v.v.v.v.v.v.v.v.v.v.v.v.v.v.v.v.v.v.v.v.v.v.v.v.v.v.v.v.v.v.v.v."
};
